<?xml version="1.0" encoding="UTF-8" standalone="no"?>
<!-- Created with Inkscape (http://www.inkscape.org/) -->

<svg
   xmlns:dc="http://purl.org/dc/elements/1.1/"
   xmlns:cc="http://creativecommons.org/ns#"
   xmlns:rdf="http://www.w3.org/1999/02/22-rdf-syntax-ns#"
   xmlns:svg="http://www.w3.org/2000/svg"
   xmlns="http://www.w3.org/2000/svg"
   xmlns:sodipodi="http://sodipodi.sourceforge.net/DTD/sodipodi-0.dtd"
   xmlns:inkscape="http://www.inkscape.org/namespaces/inkscape"
   width="320"
   height="320"
   viewBox="0 0 320.00001 320"
   id="svg2"
   version="1.1"
   inkscape:version="0.91 r13725"
   sodipodi:docname="tableroBase.svg"
   inkscape:export-filename="C:\Users\antonio\Documents\GitHub\tutoriales\damasInteractivas\siSePuede4.png"
   inkscape:export-xdpi="150"
   inkscape:export-ydpi="150">
  <defs
     id="defs4" />
  <sodipodi:namedview
     id="base"
     pagecolor="#ffffff"
     bordercolor="#666666"
     borderopacity="1.0"
     inkscape:pageopacity="0.0"
     inkscape:pageshadow="2"
     inkscape:zoom="1"
     inkscape:cx="104.03615"
     inkscape:cy="100.9248"
     inkscape:document-units="px"
     inkscape:current-layer="layer2"
     showgrid="false"
     units="px"
     inkscape:window-width="1024"
     inkscape:window-height="706"
     inkscape:window-x="-8"
     inkscape:window-y="-8"
     inkscape:window-maximized="1" />
  <metadata
     id="metadata7">
    <rdf:RDF>
      <cc:Work
         rdf:about="">
        <dc:format>image/svg+xml</dc:format>
        <dc:type
           rdf:resource="http://purl.org/dc/dcmitype/StillImage" />
        <dc:title />
      </cc:Work>
    </rdf:RDF>
  </metadata>
  <g
     inkscape:label="Capa 1"
     inkscape:groupmode="layer"
     id="layer1"
     transform="translate(0,-732.36217)"
     sodipodi:insensitive="true">
    <rect
       style="fill:none;stroke:#000000;stroke-width:0.72290492"
       id="rect3465"
       width="39.277092"
       height="39.277096"
       x="0.36145246"
       y="732.72363" />
    <rect
       style="fill:none;stroke:#000000;stroke-width:0.72290492"
       id="rect3465-0"
       width="39.277092"
       height="39.277096"
       x="40.361454"
       y="732.72363" />
    <rect
       style="fill:none;stroke:#000000;stroke-width:0.72290492"
       id="rect3465-8"
       width="39.277092"
       height="39.277096"
       x="80.36145"
       y="732.72363" />
    <rect
       style="fill:none;stroke:#000000;stroke-width:0.72290492"
       id="rect3465-7"
       width="39.277092"
       height="39.277096"
       x="120.36145"
       y="732.72363" />
    <rect
       style="fill:none;stroke:#000000;stroke-width:0.72290492"
       id="rect3465-6"
       width="39.277092"
       height="39.277096"
       x="160.36145"
       y="732.72363" />
    <rect
       style="fill:none;stroke:#000000;stroke-width:0.72290492"
       id="rect3465-0-8"
       width="39.277092"
       height="39.277096"
       x="200.36145"
       y="732.72363" />
    <rect
       style="fill:none;stroke:#000000;stroke-width:0.72290492"
       id="rect3465-8-0"
       width="39.277092"
       height="39.277096"
       x="240.36145"
       y="732.72363" />
    <rect
       style="fill:none;stroke:#000000;stroke-width:0.72290492"
       id="rect3465-7-6"
       width="39.277092"
       height="39.277096"
       x="280.36145"
       y="732.72363" />
    <rect
       style="fill:none;stroke:#000000;stroke-width:0.72290492"
       id="rect3465-67"
       width="39.277092"
       height="39.277096"
       x="0.36145246"
       y="772.72363" />
    <rect
       style="fill:none;stroke:#000000;stroke-width:0.72290492"
       id="rect3465-0-2"
       width="39.277092"
       height="39.277096"
       x="40.361469"
       y="772.72363" />
    <rect
       style="fill:none;stroke:#000000;stroke-width:0.72290492"
       id="rect3465-8-1"
       width="39.277092"
       height="39.277096"
       x="80.361465"
       y="772.72363" />
    <rect
       style="fill:none;stroke:#000000;stroke-width:0.72290492"
       id="rect3465-7-3"
       width="39.277092"
       height="39.277096"
       x="120.36145"
       y="772.72363" />
    <rect
       style="fill:none;stroke:#000000;stroke-width:0.72290492"
       id="rect3465-6-3"
       width="39.277092"
       height="39.277096"
       x="160.36147"
       y="772.72363" />
    <rect
       style="fill:none;stroke:#000000;stroke-width:0.72290492"
       id="rect3465-0-8-5"
       width="39.277092"
       height="39.277096"
       x="200.36147"
       y="772.72363" />
    <rect
       style="fill:none;stroke:#000000;stroke-width:0.72290492"
       id="rect3465-8-0-5"
       width="39.277092"
       height="39.277096"
       x="240.36147"
       y="772.72363" />
    <rect
       style="fill:none;stroke:#000000;stroke-width:0.72290492"
       id="rect3465-7-6-2"
       width="39.277092"
       height="39.277096"
       x="280.36148"
       y="772.72363" />
    <rect
       style="fill:none;stroke:#000000;stroke-width:0.72290492"
       id="rect3465-2"
       width="39.277092"
       height="39.277096"
       x="0.36145246"
       y="812.72363" />
    <rect
       style="fill:none;stroke:#000000;stroke-width:0.72290492"
       id="rect3465-0-9"
       width="39.277092"
       height="39.277096"
       x="40.361454"
       y="812.72363" />
    <rect
       style="fill:none;stroke:#000000;stroke-width:0.72290492"
       id="rect3465-8-3"
       width="39.277092"
       height="39.277096"
       x="80.36145"
       y="812.72363" />
    <rect
       style="fill:none;stroke:#000000;stroke-width:0.72290492"
       id="rect3465-7-0"
       width="39.277092"
       height="39.277096"
       x="120.36145"
       y="812.72363" />
    <rect
       style="fill:none;stroke:#000000;stroke-width:0.72290492"
       id="rect3465-6-33"
       width="39.277092"
       height="39.277096"
       x="160.36145"
       y="812.72363" />
    <rect
       style="fill:none;stroke:#000000;stroke-width:0.72290492"
       id="rect3465-0-8-2"
       width="39.277092"
       height="39.277096"
       x="200.36145"
       y="812.72363" />
    <rect
       style="fill:none;stroke:#000000;stroke-width:0.72290492"
       id="rect3465-8-0-7"
       width="39.277092"
       height="39.277096"
       x="240.36145"
       y="812.72363" />
    <rect
       style="fill:none;stroke:#000000;stroke-width:0.72290492"
       id="rect3465-7-6-5"
       width="39.277092"
       height="39.277096"
       x="280.36145"
       y="812.72363" />
    <rect
       style="fill:none;stroke:#000000;stroke-width:0.72290492"
       id="rect3465-67-8"
       width="39.277092"
       height="39.277096"
       x="0.36145246"
       y="852.72363" />
    <rect
       style="fill:none;stroke:#000000;stroke-width:0.72290492"
       id="rect3465-0-2-4"
       width="39.277092"
       height="39.277096"
       x="40.361485"
       y="852.72363" />
    <rect
       style="fill:none;stroke:#000000;stroke-width:0.72290492"
       id="rect3465-8-1-5"
       width="39.277092"
       height="39.277096"
       x="80.361481"
       y="852.72363" />
    <rect
       style="fill:none;stroke:#000000;stroke-width:0.72290492"
       id="rect3465-7-3-9"
       width="39.277092"
       height="39.277096"
       x="120.36145"
       y="852.72363" />
    <rect
       style="fill:none;stroke:#000000;stroke-width:0.72290492"
       id="rect3465-6-3-9"
       width="39.277092"
       height="39.277096"
       x="160.36148"
       y="852.72363" />
    <rect
       style="fill:none;stroke:#000000;stroke-width:0.72290492"
       id="rect3465-0-8-5-8"
       width="39.277092"
       height="39.277096"
       x="200.36148"
       y="852.72363" />
    <rect
       style="fill:none;stroke:#000000;stroke-width:0.72290492"
       id="rect3465-8-0-5-5"
       width="39.277092"
       height="39.277096"
       x="240.36148"
       y="852.72363" />
    <rect
       style="fill:none;stroke:#000000;stroke-width:0.72290492"
       id="rect3465-7-6-2-1"
       width="39.277092"
       height="39.277096"
       x="280.36148"
       y="852.72363" />
    <rect
       style="fill:none;stroke:#000000;stroke-width:0.72290492"
       id="rect3465-5"
       width="39.277088"
       height="39.277096"
       x="0.36145246"
       y="892.72363" />
    <rect
       style="fill:none;stroke:#000000;stroke-width:0.72290492"
       id="rect3465-0-7"
       width="39.277088"
       height="39.277096"
       x="40.36145"
       y="892.72363" />
    <rect
       style="fill:none;stroke:#000000;stroke-width:0.72290492"
       id="rect3465-8-00"
       width="39.277088"
       height="39.277096"
       x="80.361427"
       y="892.72363" />
    <rect
       style="fill:none;stroke:#000000;stroke-width:0.72290492"
       id="rect3465-7-1"
       width="39.277088"
       height="39.277096"
       x="120.36142"
       y="892.72363" />
    <rect
       style="fill:none;stroke:#000000;stroke-width:0.72290492"
       id="rect3465-6-7"
       width="39.277088"
       height="39.277096"
       x="160.36142"
       y="892.72363" />
    <rect
       style="fill:none;stroke:#000000;stroke-width:0.72290492"
       id="rect3465-0-8-0"
       width="39.277088"
       height="39.277096"
       x="200.36142"
       y="892.72363" />
    <rect
       style="fill:none;stroke:#000000;stroke-width:0.72290492"
       id="rect3465-8-0-72"
       width="39.277088"
       height="39.277096"
       x="240.36142"
       y="892.72363" />
    <rect
       style="fill:none;stroke:#000000;stroke-width:0.72290492"
       id="rect3465-7-6-6"
       width="39.277088"
       height="39.277096"
       x="280.36142"
       y="892.72363" />
    <rect
       style="fill:none;stroke:#000000;stroke-width:0.72290492"
       id="rect3465-67-3"
       width="39.277088"
       height="39.277096"
       x="0.36145246"
       y="932.72363" />
    <rect
       style="fill:none;stroke:#000000;stroke-width:0.72290492"
       id="rect3465-0-2-2"
       width="39.277088"
       height="39.277096"
       x="40.361465"
       y="932.72363" />
    <rect
       style="fill:none;stroke:#000000;stroke-width:0.72290492"
       id="rect3465-8-1-2"
       width="39.277088"
       height="39.277096"
       x="80.361458"
       y="932.72363" />
    <rect
       style="fill:none;stroke:#000000;stroke-width:0.72290492"
       id="rect3465-7-3-6"
       width="39.277088"
       height="39.277096"
       x="120.36142"
       y="932.72363" />
    <rect
       style="fill:none;stroke:#000000;stroke-width:0.72290492"
       id="rect3465-6-3-97"
       width="39.277088"
       height="39.277096"
       x="160.36145"
       y="932.72363" />
    <rect
       style="fill:none;stroke:#000000;stroke-width:0.72290492"
       id="rect3465-0-8-5-9"
       width="39.277088"
       height="39.277096"
       x="200.36145"
       y="932.72363" />
    <rect
       style="fill:none;stroke:#000000;stroke-width:0.72290492"
       id="rect3465-8-0-5-8"
       width="39.277088"
       height="39.277096"
       x="240.36145"
       y="932.72363" />
    <rect
       style="fill:none;stroke:#000000;stroke-width:0.72290492"
       id="rect3465-7-6-2-13"
       width="39.277088"
       height="39.277096"
       x="280.36145"
       y="932.72363" />
    <rect
       style="fill:none;stroke:#000000;stroke-width:0.72290492"
       id="rect3465-2-0"
       width="39.277088"
       height="39.277096"
       x="0.36145246"
       y="972.72363" />
    <rect
       style="fill:none;stroke:#000000;stroke-width:0.72290492"
       id="rect3465-0-9-5"
       width="39.277088"
       height="39.277096"
       x="40.36145"
       y="972.72363" />
    <rect
       style="fill:none;stroke:#000000;stroke-width:0.72290492"
       id="rect3465-8-3-9"
       width="39.277088"
       height="39.277096"
       x="80.361427"
       y="972.72363" />
    <rect
       style="fill:none;stroke:#000000;stroke-width:0.72290492"
       id="rect3465-7-0-5"
       width="39.277088"
       height="39.277096"
       x="120.36142"
       y="972.72363" />
    <rect
       style="fill:none;stroke:#000000;stroke-width:0.72290492"
       id="rect3465-6-33-3"
       width="39.277088"
       height="39.277096"
       x="160.36142"
       y="972.72363" />
    <rect
       style="fill:none;stroke:#000000;stroke-width:0.72290492"
       id="rect3465-0-8-2-8"
       width="39.277088"
       height="39.277096"
       x="200.36142"
       y="972.72363" />
    <rect
       style="fill:none;stroke:#000000;stroke-width:0.72290492"
       id="rect3465-8-0-7-3"
       width="39.277088"
       height="39.277096"
       x="240.36142"
       y="972.72363" />
    <rect
       style="fill:none;stroke:#000000;stroke-width:0.72290492"
       id="rect3465-7-6-5-5"
       width="39.277088"
       height="39.277096"
       x="280.36142"
       y="972.72363" />
    <rect
       style="fill:none;stroke:#000000;stroke-width:0.72290492"
       id="rect3465-67-8-2"
       width="39.277088"
       height="39.277096"
       x="0.36145246"
       y="1012.7236" />
    <rect
       style="fill:none;stroke:#000000;stroke-width:0.72290492"
       id="rect3465-0-2-4-0"
       width="39.277088"
       height="39.277096"
       x="40.361481"
       y="1012.7236" />
    <rect
       style="fill:none;stroke:#000000;stroke-width:0.72290492"
       id="rect3465-8-1-5-8"
       width="39.277088"
       height="39.277096"
       x="80.361458"
       y="1012.7236" />
    <rect
       style="fill:none;stroke:#000000;stroke-width:0.72290492"
       id="rect3465-7-3-9-0"
       width="39.277088"
       height="39.277096"
       x="120.36142"
       y="1012.7236" />
    <rect
       style="fill:none;stroke:#000000;stroke-width:0.72290492"
       id="rect3465-6-3-9-8"
       width="39.277088"
       height="39.277096"
       x="160.36145"
       y="1012.7236" />
    <rect
       style="fill:none;stroke:#000000;stroke-width:0.72290492"
       id="rect3465-0-8-5-8-4"
       width="39.277088"
       height="39.277096"
       x="200.36145"
       y="1012.7236" />
    <rect
       style="fill:none;stroke:#000000;stroke-width:0.72290492"
       id="rect3465-8-0-5-5-1"
       width="39.277088"
       height="39.277096"
       x="240.36145"
       y="1012.7236" />
    <rect
       style="fill:none;stroke:#000000;stroke-width:0.72290492"
       id="rect3465-7-6-2-1-1"
       width="39.277088"
       height="39.277096"
       x="280.36145"
       y="1012.7236" />
    <path
       style="fill:#000000;stroke:#000000;stroke-width:0.70710677"
       d="m 41.012962,19.976889 0,-19.09188274 19.091883,0 19.091883,0 0,19.09188274 0,19.091883 -19.091883,0 -19.091883,0 0,-19.091883 z"
       id="path3722"
       inkscape:connector-curvature="0"
       transform="translate(0,732.36217)" />
    <path
       style="fill:#000000;stroke:#000000;stroke-width:0.70710677"
       d="m 120.91603,19.976889 0,-19.09188274 19.09188,0 19.09188,0 0,19.09188274 0,19.091883 -19.09188,0 -19.09188,0 0,-19.091883 z"
       id="path3724"
       inkscape:connector-curvature="0"
       transform="translate(0,732.36217)" />
    <path
       style="fill:#000000;stroke:#000000;stroke-width:0.70710677"
       d="m 200.81909,19.976889 0,-19.09188274 19.09189,0 19.09188,0 0,19.09188274 0,19.091883 -19.09188,0 -19.09189,0 0,-19.091883 z"
       id="path3726"
       inkscape:connector-curvature="0"
       transform="translate(0,732.36217)" />
    <path
       style="fill:#000000;stroke:#000000;stroke-width:0.70710677"
       d="m 280.72216,19.976889 0,-19.09188274 19.09188,0 19.09189,0 0,19.09188274 0,19.091883 -19.09189,0 -19.09188,0 0,-19.091883 z"
       id="path3728"
       inkscape:connector-curvature="0"
       transform="translate(0,732.36217)" />
    <path
       style="fill:#000000;stroke:#000000;stroke-width:0.70710677"
       d="m 241.12418,59.928423 0,-18.73833 18.73833,0 18.73833,0 0,18.73833 0,18.738329 -18.73833,0 -18.73833,0 0,-18.738329 z"
       id="path3730"
       inkscape:connector-curvature="0"
       transform="translate(0,732.36217)" />
    <path
       style="fill:#000000;stroke:#000000;stroke-width:0.70710677"
       d="m 161.22111,59.928423 0,-18.73833 18.73833,0 18.73833,0 0,18.73833 0,18.738329 -18.73833,0 -18.73833,0 0,-18.738329 z"
       id="path3732"
       inkscape:connector-curvature="0"
       transform="translate(0,732.36217)" />
    <path
       style="fill:#000000;stroke:#000000;stroke-width:0.70710677"
       d="m 81.318049,59.928423 0,-18.73833 18.738331,0 18.73833,0 0,18.73833 0,18.738329 -18.73833,0 -18.738331,0 0,-18.738329 z"
       id="path3734"
       inkscape:connector-curvature="0"
       transform="translate(0,732.36217)" />
    <path
       style="fill:#000000;stroke:#000000;stroke-width:0.70710677"
       d="m 0.70787554,59.928423 0,-18.73833 19.09188346,0 19.091883,0 0,18.73833 0,18.738329 -19.091883,0 -19.09188346,0 0,-18.738329 z"
       id="path3736"
       inkscape:connector-curvature="0"
       transform="translate(0,732.36217)" />
    <path
       style="fill:#000000;stroke:#000000;stroke-width:0.70710677"
       d="m 41.012962,99.879956 0,-19.091883 19.091883,0 19.091883,0 0,19.091883 0,19.091884 -19.091883,0 -19.091883,0 0,-19.091884 z"
       id="path3738"
       inkscape:connector-curvature="0"
       transform="translate(0,732.36217)" />
    <path
       style="fill:#000000;stroke:#000000;stroke-width:0.70710677"
       d="m 120.91603,99.879956 0,-19.091883 19.09188,0 19.09188,0 0,19.091883 0,19.091884 -19.09188,0 -19.09188,0 0,-19.091884 z"
       id="path3740"
       inkscape:connector-curvature="0"
       transform="translate(0,732.36217)" />
    <path
       style="fill:#000000;stroke:#000000;stroke-width:0.70710677"
       d="m 200.81909,99.879956 0,-19.091883 19.09189,0 19.09188,0 0,19.091883 0,19.091884 -19.09188,0 -19.09189,0 0,-19.091884 z"
       id="path3742"
       inkscape:connector-curvature="0"
       transform="translate(0,732.36217)" />
    <path
       style="fill:#000000;stroke:#000000;stroke-width:0.70710677"
       d="m 280.72216,99.879956 0,-19.091883 19.09188,0 19.09189,0 0,19.091883 0,19.091884 -19.09189,0 -19.09188,0 0,-19.091884 z"
       id="path3744"
       inkscape:connector-curvature="0"
       transform="translate(0,732.36217)" />
    <path
       style="fill:#000000;stroke:#000000;stroke-width:0.70710677"
       d="m 241.12418,140.18504 0,-19.09188 18.73833,0 18.73833,0 0,19.09188 0,19.09189 -18.73833,0 -18.73833,0 0,-19.09189 z"
       id="path3746"
       inkscape:connector-curvature="0"
       transform="translate(0,732.36217)" />
    <path
       style="fill:#000000;stroke:#000000;stroke-width:0.70710677"
       d="m 161.22111,140.18504 0,-19.09188 18.73833,0 18.73833,0 0,19.09188 0,19.09189 -18.73833,0 -18.73833,0 0,-19.09189 z"
       id="path3748"
       inkscape:connector-curvature="0"
       transform="translate(0,732.36217)" />
    <path
       style="fill:#000000;stroke:#000000;stroke-width:0.70710677"
       d="m 81.318049,140.18504 0,-19.09188 18.738331,0 18.73833,0 0,19.09188 0,19.09189 -18.73833,0 -18.738331,0 0,-19.09189 z"
       id="path3750"
       inkscape:connector-curvature="0"
       transform="translate(0,732.36217)" />
    <path
       style="fill:#000000;stroke:#000000;stroke-width:0.70710677"
       d="m 0.70787554,140.18504 0,-19.09188 19.09188346,0 19.091883,0 0,19.09188 0,19.09189 -19.091883,0 -19.09188346,0 0,-19.09189 z"
       id="path3752"
       inkscape:connector-curvature="0"
       transform="translate(0,732.36217)" />
    <path
       style="fill:#000000;stroke:#000000;stroke-width:0.70710677"
       d="m 41.012962,179.78302 0,-19.09188 19.091883,0 19.091883,0 0,19.09188 0,19.09189 -19.091883,0 -19.091883,0 0,-19.09189 z"
       id="path3754"
       inkscape:connector-curvature="0"
       transform="translate(0,732.36217)" />
    <path
       style="fill:#000000;stroke:#000000;stroke-width:0.70710677"
       d="m 120.91603,179.78302 0,-19.09188 19.09188,0 19.09188,0 0,19.09188 0,19.09189 -19.09188,0 -19.09188,0 0,-19.09189 z"
       id="path3756"
       inkscape:connector-curvature="0"
       transform="translate(0,732.36217)" />
    <path
       style="fill:#000000;stroke:#000000;stroke-width:0.70710677"
       d="m 200.81909,179.78302 0,-19.09188 19.09189,0 19.09188,0 0,19.09188 0,19.09189 -19.09188,0 -19.09189,0 0,-19.09189 z"
       id="path3758"
       inkscape:connector-curvature="0"
       transform="translate(0,732.36217)" />
    <path
       style="fill:#000000;stroke:#000000;stroke-width:0.70710677"
       d="m 280.72216,179.78302 0,-19.09188 19.09188,0 19.09189,0 0,19.09188 0,19.09189 -19.09189,0 -19.09188,0 0,-19.09189 z"
       id="path3760"
       inkscape:connector-curvature="0"
       transform="translate(0,732.36217)" />
    <path
       style="fill:#000000;stroke:#000000;stroke-width:0.70710677"
       d="m 241.12418,220.08811 0,-19.09188 18.73833,0 18.73833,0 0,19.09188 0,19.09188 -18.73833,0 -18.73833,0 0,-19.09188 z"
       id="path3762"
       inkscape:connector-curvature="0"
       transform="translate(0,732.36217)" />
    <path
       style="fill:#000000;stroke:#000000;stroke-width:0.70710677"
       d="m 161.22111,220.08811 0,-19.09188 18.73833,0 18.73833,0 0,19.09188 0,19.09188 -18.73833,0 -18.73833,0 0,-19.09188 z"
       id="path3764"
       inkscape:connector-curvature="0"
       transform="translate(0,732.36217)" />
    <path
       style="fill:#000000;stroke:#000000;stroke-width:0.70710677"
       d="m 81.318049,220.08811 0,-19.09188 18.738331,0 18.73833,0 0,19.09188 0,19.09188 -18.73833,0 -18.738331,0 0,-19.09188 z"
       id="path3766"
       inkscape:connector-curvature="0"
       transform="translate(0,732.36217)" />
    <path
       style="fill:#000000;stroke:#000000;stroke-width:0.70710677"
       d="m 0.70787554,220.08811 0,-19.09188 19.09188346,0 19.091883,0 0,19.09188 0,19.09188 -19.091883,0 -19.09188346,0 0,-19.09188 z"
       id="path3768"
       inkscape:connector-curvature="0"
       transform="translate(0,732.36217)" />
    <path
       style="fill:#000000;stroke:#000000;stroke-width:0.70710677"
       d="m 41.012962,260.03964 0,-18.73833 19.091883,0 19.091883,0 0,18.73833 0,18.73833 -19.091883,0 -19.091883,0 0,-18.73833 z"
       id="path3770"
       inkscape:connector-curvature="0"
       transform="translate(0,732.36217)" />
    <path
       style="fill:#000000;stroke:#000000;stroke-width:0.70710677"
       d="m 120.91603,260.03964 0,-18.73833 19.09188,0 19.09188,0 0,18.73833 0,18.73833 -19.09188,0 -19.09188,0 0,-18.73833 z"
       id="path3772"
       inkscape:connector-curvature="0"
       transform="translate(0,732.36217)" />
    <path
       style="fill:#000000;stroke:#000000;stroke-width:0.70710677"
       d="m 200.81909,260.03964 0,-18.73833 19.09189,0 19.09188,0 0,18.73833 0,18.73833 -19.09188,0 -19.09189,0 0,-18.73833 z"
       id="path3774"
       inkscape:connector-curvature="0"
       transform="translate(0,732.36217)" />
    <path
       style="fill:#000000;stroke:#000000;stroke-width:0.70710677"
       d="m 280.72216,260.03964 0,-18.73833 19.09188,0 19.09189,0 0,18.73833 0,18.73833 -19.09189,0 -19.09188,0 0,-18.73833 z"
       id="path3776"
       inkscape:connector-curvature="0"
       transform="translate(0,732.36217)" />
    <path
       style="fill:#000000;stroke:#000000;stroke-width:0.70710677"
       d="m 241.12418,299.99117 0,-19.09188 18.73833,0 18.73833,0 0,19.09188 0,19.09189 -18.73833,0 -18.73833,0 0,-19.09189 z"
       id="path3778"
       inkscape:connector-curvature="0"
       transform="translate(0,732.36217)" />
    <path
       style="fill:#000000;stroke:#000000;stroke-width:0.70710677"
       d="m 161.22111,299.99117 0,-19.09188 18.73833,0 18.73833,0 0,19.09188 0,19.09189 -18.73833,0 -18.73833,0 0,-19.09189 z"
       id="path3780"
       inkscape:connector-curvature="0"
       transform="translate(0,732.36217)" />
    <path
       style="fill:#000000;stroke:#000000;stroke-width:0.70710677"
       d="m 81.318049,299.99117 0,-19.09188 18.738331,0 18.73833,0 0,19.09188 0,19.09189 -18.73833,0 -18.738331,0 0,-19.09189 z"
       id="path3782"
       inkscape:connector-curvature="0"
       transform="translate(0,732.36217)" />
    <path
       style="fill:none;stroke:#000000;stroke-width:0.70710677"
       d="m 0.70787554,299.99117 0,-19.09188 19.09188346,0 19.091883,0 0,19.09188 0,19.09189 -19.091883,0 -19.09188346,0 0,-19.09189 z"
       id="path3784"
       inkscape:connector-curvature="0"
       transform="translate(0,732.36217)" />
    <path
       style="fill:#000000;fill-opacity:1;stroke:#000000"
       d="m 1.8750752,300.08889 0,-18 17.9999998,0 18,0 0,18 0,18 -18,0 -17.9999998,0 0,-18 z"
       id="path3941"
       inkscape:connector-curvature="0"
       transform="translate(0,732.36217)" />
    <path
       style="fill:#ff0000;fill-opacity:1;stroke:#000000"
       d=""
       id="path3945"
       inkscape:connector-curvature="0"
       transform="translate(0,732.36217)" />
    <path
       style="fill:#ff0000;fill-opacity:1;stroke:#000000"
       d=""
       id="path3947"
       inkscape:connector-curvature="0"
       transform="translate(0,732.36217)" />
    <path
       style="fill:#ff0000;fill-opacity:1;stroke:#000000"
       d=""
       id="path3957"
       inkscape:connector-curvature="0"
       transform="translate(0,732.36217)" />
    <text
       xml:space="preserve"
       style="font-style:normal;font-weight:normal;font-size:30px;line-height:125%;font-family:Sans;text-align:center;letter-spacing:0px;word-spacing:0px;text-anchor:middle;fill:#000000;fill-opacity:1;stroke:none;stroke-width:1px;stroke-linecap:butt;stroke-linejoin:miter;stroke-opacity:1"
       x="45"
       y="1147.3622"
       id="text4001"
       sodipodi:linespacing="125%"><tspan
         sodipodi:role="line"
         id="tspan4003"
         x="45"
         y="1147.3622" /></text>
    <text
       xml:space="preserve"
       style="font-style:normal;font-weight:normal;font-size:44.18946075px;line-height:125%;font-family:Sans;text-align:center;letter-spacing:0px;word-spacing:0px;writing-mode:tb-rl;text-anchor:middle;fill:#000000;fill-opacity:1;stroke:none;stroke-width:1px;stroke-linecap:butt;stroke-linejoin:miter;stroke-opacity:1"
       x="-23.04318"
       y="1100.1588"
       id="text4045"
       sodipodi:linespacing="125%"
       transform="scale(1.2326602,0.8112536)"><tspan
         sodipodi:role="line"
         id="tspan4047"
         x="1100.1588"
         y="-23.04318">01234567</tspan></text>
    <text
       xml:space="preserve"
       style="font-style:normal;font-weight:normal;font-size:36.19417572px;line-height:125%;font-family:Sans;text-align:center;letter-spacing:0px;word-spacing:0px;writing-mode:lr-tb;text-anchor:middle;fill:#000000;fill-opacity:1;stroke:none;stroke-width:1px;stroke-linecap:butt;stroke-linejoin:miter;stroke-opacity:1"
       x="134.38913"
       y="871.51007"
       id="text4049"
       sodipodi:linespacing="125%"
       transform="scale(1.2064725,0.82886264)"><tspan
         sodipodi:role="line"
         id="tspan4051"
         x="134.38913"
         y="871.51007">0 1 2 3 4 5 6 7</tspan></text>
  </g>
  <g
     inkscape:groupmode="layer"
     id="layer2"
     inkscape:label="Piezas">
    <circle
       style="fill:#aa0000;stroke:#000000;stroke-width:1.01342821"
       id="path3786"
       cx="20"
       cy="20"
       r="9.4932861" />
    <circle
       style="fill:#aa0000;stroke:#000000;stroke-width:1.01342821"
       id="path3786-5"
       cx="100"
       cy="20"
       r="9.4932861" />
    <circle
       style="fill:#aa0000;stroke:#000000;stroke-width:1.01342821"
       id="path3786-1"
       cx="180"
       cy="20"
       r="9.4932861" />
    <circle
       style="fill:#aa0000;stroke:#000000;stroke-width:1.01342821"
       id="path3786-5-1"
       cx="260"
       cy="20"
       r="9.4932861" />
    <circle
       style="fill:#aa0000;stroke:#000000;stroke-width:1.01342821"
       id="path3786-59"
       cx="60"
       cy="60"
       r="9.4932861" />
    <circle
       style="fill:none;stroke:#000000;stroke-width:1.01342821"
       id="path3786-5-7"
       cx="140"
       cy="60"
       r="9.4932861" />
    <circle
       style="fill:none;stroke:#000000;stroke-width:1.01342821"
       id="path3786-1-8"
       cx="220"
       cy="60"
       r="9.4932861" />
    <circle
       style="fill:#aa0000;stroke:#000000;stroke-width:1.01342821"
       id="path3786-5-1-4"
       cx="300"
       cy="60"
       r="9.4932861" />
    <circle
       style="fill:#0000ff;stroke:#000000;stroke-width:1.01342821"
       id="path3786-8-8"
       cx="20"
       cy="260"
       r="9.4932861" />
    <circle
       style="fill:#0000ff;stroke:#000000;stroke-width:1.01342821"
       id="path3786-5-70-0"
       cx="100"
       cy="260"
       r="9.4932861" />
    <circle
       style="fill:#0000ff;stroke:#000000;stroke-width:1.01342821"
       id="path3786-1-3-9"
       cx="180"
       cy="260"
       r="9.4932861" />
    <circle
       style="fill:#0000ff;stroke:#000000;stroke-width:1.01342821"
       id="path3786-5-1-1-6"
       cx="260"
       cy="260"
       r="9.4932861" />
    <circle
       style="fill:#0000ff;stroke:#000000;stroke-width:1.01342821"
       id="path3786-59-9-0"
       cx="60"
       cy="300"
       r="9.4932861" />
    <circle
       style="fill:#0000ff;stroke:#000000;stroke-width:1.01342821"
       id="path3786-5-7-4-5"
       cx="140"
       cy="300"
       r="9.4932861" />
    <circle
       style="fill:#0000ff;stroke:#000000;stroke-width:1.01342821"
       id="path3786-1-8-3-1"
       cx="220"
       cy="300"
       r="9.4932861" />
    <circle
       style="fill:#0000ff;stroke:#000000;stroke-width:1.01342821"
       id="path3786-5-1-4-4-8"
       cx="300"
       cy="300"
       r="9.4932861" />
    <circle
       style="fill:none;stroke:#000000;stroke-width:1.01342821"
       id="path3786-8-8-2"
       cx="20"
       cy="180"
       r="9.4932861" />
    <circle
       style="fill:none;stroke:#000000;stroke-width:1.01342821"
       id="path3786-5-70-0-1"
       cx="100"
       cy="180"
       r="9.4932861" />
    <circle
       style="fill:none;stroke:#000000;stroke-width:1.01342821"
       id="path3786-1-3-9-1"
       cx="180"
       cy="180"
       r="9.4932861" />
    <circle
       style="fill:none;stroke:#000000;stroke-width:1.01342821"
       id="path3786-5-1-1-6-7"
       cx="260"
       cy="180"
       r="9.4932861" />
    <circle
       style="fill:#aa0000;stroke:#000000;stroke-width:1.01342821"
       id="path3786-59-9-0-6"
       cx="60"
       cy="220"
       r="9.4932861" />
    <circle
       style="fill:none;stroke:#000000;stroke-width:1.01342821"
       id="path3786-5-7-4-5-2"
       cx="140"
       cy="220"
       r="9.4932861" />
    <circle
       style="fill:none;stroke:#000000;stroke-width:1.01342821"
       id="path3786-1-8-3-1-6"
       cx="220"
       cy="220"
       r="9.4932861" />
    <circle
       style="fill:none;stroke:#000000;stroke-width:1.01342821"
       id="path3786-5-1-4-4-8-4"
       cx="300"
       cy="220"
       r="9.4932861" />
    <circle
       style="fill:none;stroke:#000000;stroke-width:1.01342821"
       id="path3786-8-8-2-1"
       cx="20"
       cy="100"
       r="9.4932861" />
    <circle
       style="fill:none;stroke:#000000;stroke-width:1.01342821"
       id="path3786-5-70-0-1-8"
       cx="100"
       cy="100"
       r="9.4932861" />
    <circle
       style="fill:none;stroke:#000000;stroke-width:1.01342821"
       id="path3786-1-3-9-1-4"
       cx="180"
       cy="100"
       r="9.4932861" />
    <circle
       style="fill:none;stroke:#000000;stroke-width:1.01342821"
       id="path3786-5-1-1-6-7-9"
       cx="260"
       cy="100"
       r="9.4932861" />
    <circle
       style="fill:none;stroke:#000000;stroke-width:1.01342821"
       id="path3786-59-9-0-6-8"
       cx="60"
       cy="140"
       r="9.4932861" />
    <circle
       style="fill:#800000;stroke:#000000;stroke-width:1.01342821"
       id="path3786-5-7-4-5-2-1"
       cx="140"
       cy="140"
       r="9.4932861" />
    <circle
       style="fill:none;stroke:#000000;stroke-width:1.01342821"
       id="path3786-1-8-3-1-6-1"
       cx="220"
       cy="140"
       r="9.4932861" />
    <circle
       style="fill:none;stroke:#000000;stroke-width:1.01342821"
       id="path3786-5-1-4-4-8-4-5"
       cx="300"
       cy="140"
       r="9.4932861" />
    <text
       xml:space="preserve"
       style="font-style:normal;font-weight:normal;font-size:30px;line-height:125%;font-family:Sans;text-align:center;letter-spacing:0px;word-spacing:0px;writing-mode:lr-tb;text-anchor:middle;fill:#000000;fill-opacity:1;stroke:none;stroke-width:1px;stroke-linecap:butt;stroke-linejoin:miter;stroke-opacity:1"
       x="157"
       y="391"
       id="text3910"
       sodipodi:linespacing="125%"><tspan
         sodipodi:role="line"
         id="tspan3912"
         x="157"
         y="391">COLUMNA 0</tspan><tspan
         sodipodi:role="line"
         x="157"
         y="428.5"
         id="tspan3914">ROJAS: B00000001</tspan><tspan
         sodipodi:role="line"
         x="157"
         y="466"
         id="tspan3916">AZULES: B0100</tspan></text>
  </g>
</svg>
