solid pedro
facet normal 0.999999999737397 2.6036425003291718e-06 -2.2768995245366666e-05
  outer loop
    vertex 606.7653815664783 -118.77562727820198 -63.40673546373707
    vertex 606.7653085094344 -90.71986301901894 -63.40716866931611
    vertex 606.7653708609378 -114.6644272787067 -63.40679894426646
  endloop
endfacet
facet normal 0.999999999737397 2.6036425003291718e-06 -2.2768995245366666e-05
  outer loop
    vertex 606.7653085094344 -90.71986301901894 -63.40716866931611
    vertex 606.7653815664783 -118.77562727820198 -63.40673546373707
    vertex 606.7652435111039 -118.77573650420112 -69.47005346115535
  endloop
endfacet
facet normal 0.999999999737397 2.6036425003291718e-06 -2.2768995245366666e-05
  outer loop
    vertex 606.7653085094344 -90.71986301901894 -63.40716866931611
    vertex 606.7651597484265 -86.60873650814523 -69.47055014781522
    vertex 606.7652978038009 -86.60862728214543 -63.40723215039636
  endloop
endfacet
facet normal 0.999999999737397 2.6036425003291718e-06 -2.2768995245366666e-05
  outer loop
    vertex 606.7651597484265 -86.60873650814523 -69.47055014781522
    vertex 606.7653085094344 -90.71986301901894 -63.40716866931611
    vertex 606.7652435111039 -118.77573650420112 -69.47005346115535
  endloop
endfacet
facet normal -6.48845381189043e-05 0.9999999961411755 -5.9225380418108354e-05
  outer loop
    vertex 578.7293818784245 -86.6102205818016 -55.432319251873274
    vertex 606.7651597484265 -86.60873650814523 -69.47055014781522
    vertex 578.7290445040699 -86.6103759011979 -69.46995193037996
  endloop
endfacet
facet normal -6.48845381189043e-05 0.9999999961411755 -5.9225380418108354e-05
  outer loop
    vertex 606.7651597484265 -86.60873650814523 -69.47055014781522
    vertex 578.7293818784245 -86.6102205818016 -55.432319251873274
    vertex 589.8050956756576 -86.60854830759408 -55.432372703495076
  endloop
endfacet
facet normal -6.48845381189043e-05 0.9999999961411755 -5.9225380418108354e-05
  outer loop
    vertex 606.7651597484265 -86.60873650814523 -69.47055014781522
    vertex 589.8050956756576 -86.60854830759408 -55.432372703495076
    vertex 606.7652978038009 -86.60862728214543 -63.40723215039636
  endloop
endfacet
facet normal 6.514238969238724e-05 -0.9999999960408447 6.061996105548572e-05
  outer loop
    vertex 578.7292336258422 -118.77738728433945 -69.46961495654021
    vertex 589.8051794383348 -118.77554830364983 -55.431876016835695
    vertex 578.729465641226 -118.77722057773998 -55.43181505952207
  endloop
endfacet
facet normal 6.514238969238724e-05 -0.9999999960408447 6.061996105548572e-05
  outer loop
    vertex 589.8051794383348 -118.77554830364983 -55.431876016835695
    vertex 578.7292336258422 -118.77738728433945 -69.46961495654021
    vertex 606.7652435111039 -118.77573650420112 -69.47005346115535
  endloop
endfacet
facet normal 6.514238969238724e-05 -0.9999999960408447 6.061996105548572e-05
  outer loop
    vertex 589.8051794383348 -118.77554830364983 -55.431876016835695
    vertex 606.7652435111039 -118.77573650420112 -69.47005346115535
    vertex 606.7653815664783 -118.77562727820198 -63.40673546373707
  endloop
endfacet
facet normal -0.9999999988481287 -2.0386726607128316e-06 4.7954004216772e-05
  outer loop
    vertex 594.0298407619998 -91.62288695877301 -57.418267998771
    vertex 594.0308526086319 -102.1725849432376 -59.019248315280464
    vertex 594.0320794319454 -113.75772709540936 -57.41950154634535
  endloop
endfacet
facet normal -0.9999999988481287 -2.0386726607128316e-06 4.7954004216772e-05
  outer loop
    vertex 594.0308526086319 -102.1725849432376 -59.019248315280464
    vertex 594.0298407619998 -91.62288695877301 -57.418267998771
    vertex 594.0308470709467 -101.69022612206776 -59.21905775730794
  endloop
endfacet
facet normal -0.9999999988481287 -2.0386726607128316e-06 4.7954004216772e-05
  outer loop
    vertex 594.0308470709467 -101.69022612206776 -59.21905775730794
    vertex 594.0298407619998 -91.62288695877301 -57.418267998771
    vertex 594.0308391812828 -101.27601776816726 -59.536902507165635
  endloop
endfacet
facet normal -0.9999999988481287 -2.0386726607128316e-06 4.7954004216772e-05
  outer loop
    vertex 594.0308391812828 -101.27601776816726 -59.536902507165635
    vertex 594.0298407619998 -91.62288695877301 -57.418267998771
    vertex 594.0311379392833 -91.6233002111585 -69.46987103703039
  endloop
endfacet
facet normal -0.9999999988481287 -2.0386726607128316e-06 4.7954004216772e-05
  outer loop
    vertex 594.0320794319454 -113.75772709540936 -57.41950154634535
    vertex 594.0308526086319 -102.1725849432376 -59.019248315280464
    vertex 594.0308554169546 -102.69022227515153 -58.951090864356026
  endloop
endfacet
facet normal -0.9999999988481287 -2.0386726607128316e-06 4.7954004216772e-05
  outer loop
    vertex 594.0308391812828 -101.27601776816726 -59.536902507165635
    vertex 594.0311379392833 -91.6233002111585 -69.46987103703039
    vertex 594.030829477308 -100.95818749634432 -59.95112197041407
  endloop
endfacet
facet normal -0.9999999988481287 -2.0386726607128316e-06 4.7954004216772e-05
  outer loop
    vertex 594.030829477308 -100.95818749634432 -59.95112197041407
    vertex 594.0311379392833 -91.6233002111585 -69.46987103703039
    vertex 594.0308186203322 -100.75839491438391 -60.433487775162135
  endloop
endfacet
facet normal -0.9999999988481287 -2.0386726607128316e-06 4.7954004216772e-05
  outer loop
    vertex 594.0308186203322 -100.75839491438391 -60.433487775162135
    vertex 594.0311379392833 -91.6233002111585 -69.46987103703039
    vertex 594.0308073502401 -100.69025555657312 -60.95112748896435
  endloop
endfacet
facet normal -0.9999999988481287 -2.0386726607128316e-06 4.7954004216772e-05
  outer loop
    vertex 594.0308073502401 -100.69025555657312 -60.95112748896435
    vertex 594.0311379392833 -91.6233002111585 -69.46987103703039
    vertex 594.0307964350703 -100.75841300754128 -61.46876482076448
  endloop
endfacet
facet normal -0.9999999988481287 -2.0386726607128316e-06 4.7954004216772e-05
  outer loop
    vertex 594.0307964350703 -100.75841300754128 -61.46876482076448
    vertex 594.0311379392833 -91.6233002111585 -69.46987103703039
    vertex 594.0307866186732 -100.95822244964167 -61.951123641836766
  endloop
endfacet
facet normal -0.9999999988481287 -2.0386726607128316e-06 4.7954004216772e-05
  outer loop
    vertex 594.0307866186732 -100.95822244964167 -61.951123641836766
    vertex 594.0311379392833 -91.6233002111585 -69.46987103703039
    vertex 594.0307785700203 -101.27606719959394 -62.36533199566075
  endloop
endfacet
facet normal -0.9999999988481287 -2.0386726607128316e-06 4.7954004216772e-05
  outer loop
    vertex 594.0307785700203 -101.27606719959394 -62.36533199566075
    vertex 594.0311379392833 -91.6233002111585 -69.46987103703039
    vertex 594.0307728376138 -101.69028666295425 -62.68316226743513
  endloop
endfacet
facet normal -0.9999999988481287 -2.0386726607128316e-06 4.7954004216772e-05
  outer loop
    vertex 594.0307728376138 -101.69028666295425 -62.68316226743513
    vertex 594.0311379392833 -91.6233002111585 -69.46987103703039
    vertex 594.0307698121077 -102.17265246782188 -62.88295484937797
  endloop
endfacet
facet normal -0.9999999988481287 -2.0386726607128316e-06 4.7954004216772e-05
  outer loop
    vertex 594.0307698121077 -102.17265246782188 -62.88295484937797
    vertex 594.0311379392833 -91.6233002111585 -69.46987103703039
    vertex 594.0307696996853 -102.69029218174538 -62.95109420720177
  endloop
endfacet
facet normal -0.9999999988481287 -2.0386726607128316e-06 4.7954004216772e-05
  outer loop
    vertex 594.0307696996853 -102.69029218174538 -62.95109420720177
    vertex 594.0311379392833 -91.6233002111585 -69.46987103703039
    vertex 594.0297165163738 -113.75792865922435 -69.46910463571638
  endloop
endfacet
facet normal -0.9999999988481287 -2.0386726607128316e-06 4.7954004216772e-05
  outer loop
    vertex 594.0320794319454 -113.75772709540936 -57.41950154634535
    vertex 594.0308465466197 -104.1044472573025 -59.53685307589723
    vertex 594.0297165163738 -113.75792865922435 -69.46910463571638
  endloop
endfacet
facet normal -0.9999999988481287 -2.0386726607128316e-06 4.7954004216772e-05
  outer loop
    vertex 594.0308465466197 -104.1044472573025 -59.53685307589723
    vertex 594.0320794319454 -113.75772709540936 -57.41950154634535
    vertex 594.0308522790262 -103.690227793943 -59.219022804123114
  endloop
endfacet
facet normal -0.9999999988481287 -2.0386726607128316e-06 4.7954004216772e-05
  outer loop
    vertex 594.0308522790262 -103.690227793943 -59.219022804123114
    vertex 594.0320794319454 -113.75772709540936 -57.41950154634535
    vertex 594.0308553045321 -103.20786198907453 -59.01923022218046
  endloop
endfacet
facet normal -0.9999999988481287 -2.0386726607128316e-06 4.7954004216772e-05
  outer loop
    vertex 594.0308553045321 -103.20786198907453 -59.01923022218046
    vertex 594.0320794319454 -113.75772709540936 -57.41950154634535
    vertex 594.0308554169546 -102.69022227515153 -58.951090864356026
  endloop
endfacet
facet normal -0.9999999988481287 -2.0386726607128316e-06 4.7954004216772e-05
  outer loop
    vertex 594.0297165163738 -113.75792865922435 -69.46910463571638
    vertex 594.0308465466197 -104.1044472573025 -59.53685307589723
    vertex 594.0308384979669 -104.42229200725444 -59.95106142972135
  endloop
endfacet
facet normal -0.9999999988481287 -2.0386726607128316e-06 4.7954004216772e-05
  outer loop
    vertex 594.0297165163738 -113.75792865922435 -69.46910463571638
    vertex 594.0308384979669 -104.42229200725444 -59.95106142972135
    vertex 594.0308286815697 -104.6221014493552 -60.433420250793546
  endloop
endfacet
facet normal -0.9999999988481287 -2.0386726607128316e-06 4.7954004216772e-05
  outer loop
    vertex 594.0297165163738 -113.75792865922435 -69.46910463571638
    vertex 594.0308286815697 -104.6221014493552 -60.433420250793546
    vertex 594.0308177663998 -104.69025890032363 -60.95105758259394
  endloop
endfacet
facet normal -0.9999999988481287 -2.0386726607128316e-06 4.7954004216772e-05
  outer loop
    vertex 594.0297165163738 -113.75792865922435 -69.46910463571638
    vertex 594.0308177663998 -104.69025890032363 -60.95105758259394
    vertex 594.030806496308 -104.62211954251283 -61.46869729639593
  endloop
endfacet
facet normal -0.9999999988481287 -2.0386726607128316e-06 4.7954004216772e-05
  outer loop
    vertex 594.0297165163738 -113.75792865922435 -69.46910463571638
    vertex 594.030806496308 -104.62211954251283 -61.46869729639593
    vertex 594.0307956393319 -104.42232696055211 -61.95106310114395
  endloop
endfacet
facet normal -0.9999999988481287 -2.0386726607128316e-06 4.7954004216772e-05
  outer loop
    vertex 594.0297165163738 -113.75792865922435 -69.46910463571638
    vertex 594.0307956393319 -104.42232696055211 -61.95106310114395
    vertex 594.0307859353572 -104.10449668872914 -62.36528256439216
  endloop
endfacet
facet normal -0.9999999988481287 -2.0386726607128316e-06 4.7954004216772e-05
  outer loop
    vertex 594.0297165163738 -113.75792865922435 -69.46910463571638
    vertex 594.0307859353572 -104.10449668872914 -62.36528256439216
    vertex 594.0307780456936 -103.69028833482899 -62.68312731424977
  endloop
endfacet
facet normal -0.9999999988481287 -2.0386726607128316e-06 4.7954004216772e-05
  outer loop
    vertex 594.0297165163738 -113.75792865922435 -69.46910463571638
    vertex 594.0307780456936 -103.69028833482899 -62.68312731424977
    vertex 594.0307725080082 -103.20792951365837 -62.88293675627787
  endloop
endfacet
facet normal -0.9999999988481287 -2.0386726607128316e-06 4.7954004216772e-05
  outer loop
    vertex 594.0297165163738 -113.75792865922435 -69.46910463571638
    vertex 594.0307725080082 -103.20792951365837 -62.88293675627787
    vertex 594.0307696996853 -102.69029218174538 -62.95109420720177
  endloop
endfacet
facet normal -7.740044210874891e-05 0.9999999958802085 4.742103559889507e-05
  outer loop
    vertex 583.2306638855075 -113.76005247142538 -55.432077184681425
    vertex 594.0297165163738 -113.75792865922435 -69.46910463571638
    vertex 583.2286323050893 -113.75753959892116 -69.46978512609596
  endloop
endfacet
facet normal -7.740044210874891e-05 0.9999999958802085 4.742103559889507e-05
  outer loop
    vertex 594.0297165163738 -113.75792865922435 -69.46910463571638
    vertex 583.2306638855075 -113.76005247142538 -55.432077184681425
    vertex 589.8063665836096 -113.75749563571594 -55.43171024890711
  endloop
endfacet
facet normal -7.740044210874891e-05 0.9999999958802085 4.742103559889507e-05
  outer loop
    vertex 594.0297165163738 -113.75792865922435 -69.46910463571638
    vertex 589.8063665836096 -113.75749563571594 -55.43171024890711
    vertex 594.0320794319454 -113.75772709540936 -57.41950154634535
  endloop
endfacet
facet normal -2.6039176688036775e-06 0.9999999999260961 -1.1875507253877663e-05
  outer loop
    vertex 581.729466863548 -114.7597658561309 -55.43194317096868
    vertex 578.7292231643961 -114.75994037375071 -69.46967877975824
    vertex 578.7294551797797 -114.75977366715155 -55.431878882741465
  endloop
endfacet
facet normal -2.6039176688036775e-06 0.9999999999260961 -1.1875507253877663e-05
  outer loop
    vertex 578.7292231643961 -114.75994037375071 -69.46967877975824
    vertex 581.729466863548 -114.7597658561309 -55.43194317096868
    vertex 581.7292348481633 -114.75993256273136 -69.46974306798596
  endloop
endfacet
facet normal -8.964159000227799e-06 7.690863957446262e-06 0.9999999999302474
  outer loop
    vertex 589.8063665836096 -113.75749563571594 -55.43171024890711
    vertex 583.2294688943423 -115.7650841397304 -55.43228947629396
    vertex 589.8051794383348 -118.77554830364983 -55.431876016835695
  endloop
endfacet
facet normal -8.964159000227799e-06 7.690863957446262e-06 0.9999999999302474
  outer loop
    vertex 583.2294688943423 -115.7650841397304 -55.43228947629396
    vertex 589.8063665836096 -113.75749563571594 -55.43171024890711
    vertex 583.2306638855075 -113.76005247142538 -55.432077184681425
  endloop
endfacet
facet normal -8.964159000227799e-06 7.690863957446262e-06 0.9999999999302474
  outer loop
    vertex 589.8051794383348 -118.77554830364983 -55.431876016835695
    vertex 578.7294551797797 -114.75977366715155 -55.431878882741465
    vertex 578.729465641226 -118.77722057773998 -55.43181505952207
  endloop
endfacet
facet normal -8.964159000227799e-06 7.690863957446262e-06 0.9999999999302474
  outer loop
    vertex 578.7294551797797 -114.75977366715155 -55.431878882741465
    vertex 589.8051794383348 -118.77554830364983 -55.431876016835695
    vertex 581.7294694791049 -115.76419176708976 -55.43192587143386
  endloop
endfacet
facet normal -8.964159000227799e-06 7.690863957446262e-06 0.9999999999302474
  outer loop
    vertex 581.7294694791049 -115.76419176708976 -55.43192587143386
    vertex 589.8051794383348 -118.77554830364983 -55.431876016835695
    vertex 583.2294688943423 -115.7650841397304 -55.43228947629396
  endloop
endfacet
facet normal -8.964159000227799e-06 7.690863957446262e-06 0.9999999999302474
  outer loop
    vertex 578.7294551797797 -114.75977366715155 -55.431878882741465
    vertex 581.7294694791049 -115.76419176708976 -55.43192587143386
    vertex 581.729466863548 -114.7597658561309 -55.43194317096868
  endloop
endfacet
facet normal -0.9999999997078038 -2.603622985908922e-06 2.4033593598348838e-05
  outer loop
    vertex 578.7293818784245 -86.6102205818016 -55.432319251873274
    vertex 578.7290562673534 -91.12777590064923 -69.46988216201252
    vertex 578.7293936417082 -91.12762058125236 -55.43224948350575
  endloop
endfacet
facet normal -0.9999999997078038 -2.603622985908922e-06 2.4033593598348838e-05
  outer loop
    vertex 578.7290562673534 -91.12777590064923 -69.46988216201252
    vertex 578.7293818784245 -86.6102205818016 -55.432319251873274
    vertex 578.7290445040699 -86.6103759011979 -69.46995193037996
  endloop
endfacet
facet normal 2.6039004936166702e-06 -0.999999999935399 1.1064438184400571e-05
  outer loop
    vertex 581.7290679511211 -91.12776808962928 -69.46994645032795
    vertex 578.7293936417082 -91.12762058125236 -55.43224948350575
    vertex 578.7290562673534 -91.12777590064923 -69.46988216201252
  endloop
endfacet
facet normal 2.6039004936166702e-06 -0.999999999935399 1.1064438184400571e-05
  outer loop
    vertex 578.7293936417082 -91.12762058125236 -55.43224948350575
    vertex 581.7290679511211 -91.12776808962928 -69.46994645032795
    vertex 581.7294053254287 -91.12761277025521 -55.43231597579517
  endloop
endfacet
facet normal -0.9999999998600241 -2.603738862077936e-06 1.6527933087874896e-05
  outer loop
    vertex 578.7294551797797 -114.75977366715155 -55.431878882741465
    vertex 578.7292336258422 -118.77738728433945 -69.46961495654021
    vertex 578.729465641226 -118.77722057773998 -55.43181505952207
  endloop
endfacet
facet normal -0.9999999998600241 -2.603738862077936e-06 1.6527933087874896e-05
  outer loop
    vertex 578.7292336258422 -118.77738728433945 -69.46961495654021
    vertex 578.7294551797797 -114.75977366715155 -55.431878882741465
    vertex 578.7292231643961 -114.75994037375071 -69.46967877975824
  endloop
endfacet
facet normal 0.9999999998600241 2.603738879618606e-06 -1.65279330878751e-05
  outer loop
    vertex 581.7292374637212 -115.76435847368813 -69.4697257684515
    vertex 581.729466863548 -114.7597658561309 -55.43194317096868
    vertex 581.7294694791049 -115.76419176708976 -55.43192587143386
  endloop
endfacet
facet normal 0.9999999998600241 2.603738879618606e-06 -1.65279330878751e-05
  outer loop
    vertex 581.729466863548 -114.7597658561309 -55.43194317096868
    vertex 581.7292374637212 -115.76435847368813 -69.4697257684515
    vertex 581.7292348481633 -114.75993256273136 -69.46974306798596
  endloop
endfacet
facet normal -0.00017518735925683206 0.9999999821727278 7.04551870095144e-05
  outer loop
    vertex 583.2294688943423 -115.7650841397304 -55.43228947629396
    vertex 581.7292374637212 -115.76435847368813 -69.4697257684515
    vertex 581.7294694791049 -115.76419176708976 -55.43192587143386
  endloop
endfacet
facet normal -0.00017518735925683206 0.9999999821727278 7.04551870095144e-05
  outer loop
    vertex 581.7292374637212 -115.76435847368813 -69.4697257684515
    vertex 583.2294688943423 -115.7650841397304 -55.43228947629396
    vertex 583.2274373139248 -115.76257126722483 -69.46999741770908
  endloop
endfacet
facet normal 0.42553556891960437 1.0752052776085278e-05 0.9049416994860288
  outer loop
    vertex 606.7653708609378 -114.6644272787067 -63.40679894426646
    vertex 589.8051794383348 -118.77554830364983 -55.431876016835695
    vertex 606.7653815664783 -118.77562727820198 -63.40673546373707
  endloop
endfacet
facet normal 0.42553556891960437 1.0752052776085278e-05 0.9049416994860288
  outer loop
    vertex 589.8051794383348 -118.77554830364983 -55.431876016835695
    vertex 606.7653708609378 -114.6644272787067 -63.40679894426646
    vertex 595.6428651275377 -114.66447570456779 -58.1769632362519
  endloop
endfacet
facet normal 0.42553556891960437 1.0752052776085278e-05 0.9049416994860288
  outer loop
    vertex 606.7652978038009 -86.60862728214543 -63.40723215039636
    vertex 595.642802777478 -90.71981122748477 -58.177253410079956
    vertex 606.7653085094344 -90.71986301901894 -63.40716866931611
  endloop
endfacet
facet normal 0.42553556891960437 1.0752052776085278e-05 0.9049416994860288
  outer loop
    vertex 595.642802777478 -90.71981122748477 -58.177253410079956
    vertex 594.0320794319454 -113.75772709540936 -57.41950154634535
    vertex 595.6428651275377 -114.66447570456779 -58.1769632362519
  endloop
endfacet
facet normal 0.42553556891960437 1.0752052776085278e-05 0.9049416994860288
  outer loop
    vertex 594.0320794319454 -113.75772709540936 -57.41950154634535
    vertex 595.642802777478 -90.71981122748477 -58.177253410079956
    vertex 594.0298407619998 -91.62288695877301 -57.418267998771
  endloop
endfacet
facet normal 0.42553556891960437 1.0752052776085278e-05 0.9049416994860288
  outer loop
    vertex 594.0298407619998 -91.62288695877301 -57.418267998771
    vertex 595.642802777478 -90.71981122748477 -58.177253410079956
    vertex 589.80778800652 -91.62286718765122 -55.43247665022026
  endloop
endfacet
facet normal 0.42553556891960437 1.0752052776085278e-05 0.9049416994860288
  outer loop
    vertex 589.80778800652 -91.62286718765122 -55.43247665022026
    vertex 595.642802777478 -90.71981122748477 -58.177253410079956
    vertex 589.8050956756576 -86.60854830759408 -55.432372703495076
  endloop
endfacet
facet normal 0.42553556891960437 1.0752052776085278e-05 0.9049416994860288
  outer loop
    vertex 589.8050956756576 -86.60854830759408 -55.432372703495076
    vertex 595.642802777478 -90.71981122748477 -58.177253410079956
    vertex 606.7652978038009 -86.60862728214543 -63.40723215039636
  endloop
endfacet
facet normal 0.42553556891960437 1.0752052776085278e-05 0.9049416994860288
  outer loop
    vertex 595.6428651275377 -114.66447570456779 -58.1769632362519
    vertex 589.8063665836096 -113.75749563571594 -55.43171024890711
    vertex 589.8051794383348 -118.77554830364983 -55.431876016835695
  endloop
endfacet
facet normal 0.42553556891960437 1.0752052776085278e-05 0.9049416994860288
  outer loop
    vertex 589.8063665836096 -113.75749563571594 -55.43171024890711
    vertex 595.6428651275377 -114.66447570456779 -58.1769632362519
    vertex 594.0320794319454 -113.75772709540936 -57.41950154634535
  endloop
endfacet
facet normal -1.161411822605533e-05 0.9999999998133489 -1.5440682944781952e-05
  outer loop
    vertex 606.7653708609378 -114.6644272787067 -63.40679894426646
    vertex 595.6427531696986 -114.66455637603076 -63.40148360617322
    vertex 595.6428651275377 -114.66447570456779 -58.1769632362519
  endloop
endfacet
facet normal 2.603994032601721e-06 -0.9999999998773994 1.5440876009299342e-05
  outer loop
    vertex 606.7653085094344 -90.71986301901894 -63.40716866931611
    vertex 595.642802777478 -90.71981122748477 -58.177253410079956
    vertex 595.6426908179342 -90.71989190017615 -63.40185333276933
  endloop
endfacet
facet normal 0.9999999997670022 2.6036631840197223e-06 -2.1429344926559236e-05
  outer loop
    vertex 595.6428651275377 -114.66447570456779 -58.1769632362519
    vertex 595.6428172483934 -103.20785779206855 -59.01926476546903
    vertex 595.6428173608157 -102.69021807814511 -58.951125407644554
  endloop
endfacet
facet normal 0.9999999997670022 2.6036631840197223e-06 -2.1429344926559236e-05
  outer loop
    vertex 595.6428172483934 -103.20785779206855 -59.01926476546903
    vertex 595.6428651275377 -114.66447570456779 -58.1769632362519
    vertex 595.6427531696986 -114.66455637603076 -63.40148360617322
  endloop
endfacet
facet normal 0.9999999997670022 2.6036631840197223e-06 -2.1429344926559236e-05
  outer loop
    vertex 595.6428172483934 -103.20785779206855 -59.01926476546903
    vertex 595.6427531696986 -114.66455637603076 -63.40148360617322
    vertex 595.6428142228872 -103.690223596937 -59.21905734741169
  endloop
endfacet
facet normal 0.9999999997670022 2.6036631840197223e-06 -2.1429344926559236e-05
  outer loop
    vertex 595.6428142228872 -103.690223596937 -59.21905734741169
    vertex 595.6427531696986 -114.66455637603076 -63.40148360617322
    vertex 595.6428084904807 -104.10444306029635 -59.53688761918584
  endloop
endfacet
facet normal 0.9999999997670022 2.6036631840197223e-06 -2.1429344926559236e-05
  outer loop
    vertex 595.6428084904807 -104.10444306029635 -59.53688761918584
    vertex 595.6427531696986 -114.66455637603076 -63.40148360617322
    vertex 595.6428004418277 -104.42228781024893 -59.95109597300992
  endloop
endfacet
facet normal 0.9999999997670022 2.6036631840197223e-06 -2.1429344926559236e-05
  outer loop
    vertex 595.6428004418277 -104.42228781024893 -59.95109597300992
    vertex 595.6427531696986 -114.66455637603076 -63.40148360617322
    vertex 595.6427906254305 -104.62209725234914 -60.43345479408225
  endloop
endfacet
facet normal 0.9999999997670022 2.6036631840197223e-06 -2.1429344926559236e-05
  outer loop
    vertex 595.6427906254305 -104.62209725234914 -60.43345479408225
    vertex 595.6427531696986 -114.66455637603076 -63.40148360617322
    vertex 595.6427797102606 -104.69025470331756 -60.951092125882646
  endloop
endfacet
facet normal 0.9999999997670022 2.6036631840197223e-06 -2.1429344926559236e-05
  outer loop
    vertex 595.6427797102606 -104.69025470331756 -60.951092125882646
    vertex 595.6427531696986 -114.66455637603076 -63.40148360617322
    vertex 595.6427684401689 -104.62211534550606 -61.4687318396845
  endloop
endfacet
facet normal 0.9999999997670022 2.6036631840197223e-06 -2.1429344926559236e-05
  outer loop
    vertex 595.6427684401689 -104.62211534550606 -61.4687318396845
    vertex 595.6427531696986 -114.66455637603076 -63.40148360617322
    vertex 595.642757583193 -104.42232276354613 -61.95109764443266
  endloop
endfacet
facet normal 0.9999999997670022 2.6036631840197223e-06 -2.1429344926559236e-05
  outer loop
    vertex 595.642757583193 -104.42232276354613 -61.95109764443266
    vertex 595.6427531696986 -114.66455637603076 -63.40148360617322
    vertex 595.6427478792181 -104.10449249172362 -62.36531710768074
  endloop
endfacet
facet normal 0.9999999997670022 2.6036631840197223e-06 -2.1429344926559236e-05
  outer loop
    vertex 595.6427478792181 -104.10449249172362 -62.36531710768074
    vertex 595.6427531696986 -114.66455637603076 -63.40148360617322
    vertex 595.6427399895546 -103.69028413782308 -62.683161857538295
  endloop
endfacet
facet normal 0.9999999997670022 2.6036631840197223e-06 -2.1429344926559236e-05
  outer loop
    vertex 595.6427399895546 -103.69028413782308 -62.683161857538295
    vertex 595.6427531696986 -114.66455637603076 -63.40148360617322
    vertex 595.642734451869 -103.20792531665255 -62.88297129956649
  endloop
endfacet
facet normal 0.9999999997670022 2.6036631840197223e-06 -2.1429344926559236e-05
  outer loop
    vertex 595.642734451869 -103.20792531665255 -62.88297129956649
    vertex 595.6427531696986 -114.66455637603076 -63.40148360617322
    vertex 595.6427316435463 -102.69028798473931 -62.95112875049034
  endloop
endfacet
facet normal 0.9999999997670022 2.6036631840197223e-06 -2.1429344926559236e-05
  outer loop
    vertex 595.642802777478 -90.71981122748477 -58.177253410079956
    vertex 595.6428145524927 -102.17258074623153 -59.01928285856899
    vertex 595.6426908179342 -90.71989190017615 -63.40185333276933
  endloop
endfacet
facet normal 0.9999999997670022 2.6036631840197223e-06 -2.1429344926559236e-05
  outer loop
    vertex 595.6428145524927 -102.17258074623153 -59.01928285856899
    vertex 595.642802777478 -90.71981122748477 -58.177253410079956
    vertex 595.6428173608157 -102.69021807814511 -58.951125407644554
  endloop
endfacet
facet normal 0.9999999997670022 2.6036631840197223e-06 -2.1429344926559236e-05
  outer loop
    vertex 595.6428173608157 -102.69021807814511 -58.951125407644554
    vertex 595.642802777478 -90.71981122748477 -58.177253410079956
    vertex 595.6428651275377 -114.66447570456779 -58.1769632362519
  endloop
endfacet
facet normal 0.9999999997670022 2.6036631840197223e-06 -2.1429344926559236e-05
  outer loop
    vertex 595.6426908179342 -90.71989190017615 -63.40185333276933
    vertex 595.6428145524927 -102.17258074623153 -59.01928285856899
    vertex 595.6428090148077 -101.69022192506173 -59.219092300596515
  endloop
endfacet
facet normal 0.9999999997670022 2.6036631840197223e-06 -2.1429344926559236e-05
  outer loop
    vertex 595.6426908179342 -90.71989190017615 -63.40185333276933
    vertex 595.6428090148077 -101.69022192506173 -59.219092300596515
    vertex 595.6428011251437 -101.27601357116131 -59.53693705045416
  endloop
endfacet
facet normal 0.9999999997670022 2.6036631840197223e-06 -2.1429344926559236e-05
  outer loop
    vertex 595.6426908179342 -90.71989190017615 -63.40185333276933
    vertex 595.6428011251437 -101.27601357116131 -59.53693705045416
    vertex 595.6427914211691 -100.95818329933869 -59.9511565137026
  endloop
endfacet
facet normal 0.9999999997670022 2.6036631840197223e-06 -2.1429344926559236e-05
  outer loop
    vertex 595.6426908179342 -90.71989190017615 -63.40185333276933
    vertex 595.6427914211691 -100.95818329933869 -59.9511565137026
    vertex 595.642780564193 -100.75839071737794 -60.43352231845093
  endloop
endfacet
facet normal 0.9999999997670022 2.6036631840197223e-06 -2.1429344926559236e-05
  outer loop
    vertex 595.6426908179342 -90.71989190017615 -63.40185333276933
    vertex 595.642780564193 -100.75839071737794 -60.43352231845093
    vertex 595.6427692941012 -100.69025135956713 -60.95116203225288
  endloop
endfacet
facet normal 0.9999999997670022 2.6036631840197223e-06 -2.1429344926559236e-05
  outer loop
    vertex 595.6426908179342 -90.71989190017615 -63.40185333276933
    vertex 595.6427692941012 -100.69025135956713 -60.95116203225288
    vertex 595.6427583789313 -100.75840881053585 -61.468799364053005
  endloop
endfacet
facet normal 0.9999999997670022 2.6036631840197223e-06 -2.1429344926559236e-05
  outer loop
    vertex 595.6426908179342 -90.71989190017615 -63.40185333276933
    vertex 595.6427583789313 -100.75840881053585 -61.468799364053005
    vertex 595.642748562534 -100.95821825263552 -61.951158185125514
  endloop
endfacet
facet normal 0.9999999997670022 2.6036631840197223e-06 -2.1429344926559236e-05
  outer loop
    vertex 595.6426908179342 -90.71989190017615 -63.40185333276933
    vertex 595.642748562534 -100.95821825263552 -61.951158185125514
    vertex 595.6427405138812 -101.27606300258776 -62.365366538949324
  endloop
endfacet
facet normal 0.9999999997670022 2.6036631840197223e-06 -2.1429344926559236e-05
  outer loop
    vertex 595.6426908179342 -90.71989190017615 -63.40185333276933
    vertex 595.6427405138812 -101.27606300258776 -62.365366538949324
    vertex 595.6427347814746 -101.690282465948 -62.68319681072366
  endloop
endfacet
facet normal 0.9999999997670022 2.6036631840197223e-06 -2.1429344926559236e-05
  outer loop
    vertex 595.6426908179342 -90.71989190017615 -63.40185333276933
    vertex 595.6427347814746 -101.690282465948 -62.68319681072366
    vertex 595.6427317559685 -102.17264827081591 -62.88298939266654
  endloop
endfacet
facet normal 0.9999999997670022 2.6036631840197223e-06 -2.1429344926559236e-05
  outer loop
    vertex 595.6426908179342 -90.71989190017615 -63.40185333276933
    vertex 595.6427317559685 -102.17264827081591 -62.88298939266654
    vertex 595.6427316435463 -102.69028798473931 -62.95112875049034
  endloop
endfacet
facet normal 0.9999999997670022 2.6036631840197223e-06 -2.1429344926559236e-05
  outer loop
    vertex 595.6426908179342 -90.71989190017615 -63.40185333276933
    vertex 595.6427316435463 -102.69028798473931 -62.95112875049034
    vertex 595.6427531696986 -114.66455637603076 -63.40148360617322
  endloop
endfacet
facet normal 2.0794613209679382e-05 -0.38266728600109046 0.9238862201549192
  outer loop
    vertex 595.6427347814746 -101.690282465948 -62.68319681072366
    vertex 594.0307698121077 -102.17265246782188 -62.88295484937797
    vertex 595.6427317559685 -102.17264827081591 -62.88298939266654
  endloop
endfacet
facet normal 2.0794613209679382e-05 -0.38266728600109046 0.9238862201549192
  outer loop
    vertex 594.0307698121077 -102.17265246782188 -62.88295484937797
    vertex 595.6427347814746 -101.690282465948 -62.68319681072366
    vertex 594.0307728376138 -101.69028666295425 -62.68316226743513
  endloop
endfacet
facet normal 1.8586243979647786e-05 -0.6087475637679071 0.7933639790545004
  outer loop
    vertex 595.6427347814746 -101.690282465948 -62.68319681072366
    vertex 594.0307785700203 -101.27606719959394 -62.36533199566075
    vertex 594.0307728376138 -101.69028666295425 -62.68316226743513
  endloop
endfacet
facet normal 1.8586243979647786e-05 -0.6087475637679071 0.7933639790545004
  outer loop
    vertex 594.0307785700203 -101.27606719959394 -62.36533199566075
    vertex 595.6427347814746 -101.690282465948 -62.68319681072366
    vertex 595.6427405138812 -101.27606300258776 -62.365366538949324
  endloop
endfacet
facet normal 1.5111252937623911e-05 -0.79334270106683 0.6087752938774998
  outer loop
    vertex 595.6427405138812 -101.27606300258776 -62.365366538949324
    vertex 594.0307866186732 -100.95822244964167 -61.951123641836766
    vertex 594.0307785700203 -101.27606719959394 -62.36533199566075
  endloop
endfacet
facet normal 1.5111252937623911e-05 -0.79334270106683 0.6087752938774998
  outer loop
    vertex 594.0307866186732 -100.95822244964167 -61.951123641836766
    vertex 595.6427405138812 -101.27606300258776 -62.365366538949324
    vertex 595.642748562534 -100.95821825263552 -61.951158185125514
  endloop
endfacet
facet normal 1.0606454980427989e-05 -0.9238728443488423 0.3826995784715251
  outer loop
    vertex 595.642748562534 -100.95821825263552 -61.951158185125514
    vertex 594.0307964350703 -100.75841300754128 -61.46876482076448
    vertex 594.0307866186732 -100.95822244964167 -61.951123641836766
  endloop
endfacet
facet normal 1.0606454980427989e-05 -0.9238728443488423 0.3826995784715251
  outer loop
    vertex 594.0307964350703 -100.75841300754128 -61.46876482076448
    vertex 595.642748562534 -100.95821825263552 -61.951158185125514
    vertex 595.6427583789313 -100.75840881053585 -61.468799364053005
  endloop
endfacet
facet normal 5.378844644308471e-06 -0.9914425800605873 0.1305435192335265
  outer loop
    vertex 594.0307964350703 -100.75841300754128 -61.46876482076448
    vertex 595.6427692941012 -100.69025135956713 -60.95116203225288
    vertex 594.0308073502401 -100.69025555657312 -60.95112748896435
  endloop
endfacet
facet normal 5.378844644308471e-06 -0.9914425800605873 0.1305435192335265
  outer loop
    vertex 595.6427692941012 -100.69025135956713 -60.95116203225288
    vertex 594.0307964350703 -100.75841300754128 -61.46876482076448
    vertex 595.6427583789313 -100.75840881053585 -61.468799364053005
  endloop
endfacet
facet normal -2.1532506535641918e-07 -0.9914471423774998 -0.1305088651067178
  outer loop
    vertex 595.6427692941012 -100.69025135956713 -60.95116203225288
    vertex 594.0308186203322 -100.75839491438391 -60.433487775162135
    vertex 594.0308073502401 -100.69025555657312 -60.95112748896435
  endloop
endfacet
facet normal -2.1532506535641918e-07 -0.9914471423774998 -0.1305088651067178
  outer loop
    vertex 594.0308186203322 -100.75839491438391 -60.433487775162135
    vertex 595.6427692941012 -100.69025135956713 -60.95116203225288
    vertex 595.642780564193 -100.75839071737794 -60.43352231845093
  endloop
endfacet
facet normal -5.7948207276594045e-06 -0.923886220385272 -0.38266728596606836
  outer loop
    vertex 594.0308186203322 -100.75839491438391 -60.433487775162135
    vertex 595.6427914211691 -100.95818329933869 -59.9511565137026
    vertex 594.030829477308 -100.95818749634432 -59.95112197041407
  endloop
endfacet
facet normal -5.7948207276594045e-06 -0.923886220385272 -0.38266728596606836
  outer loop
    vertex 595.6427914211691 -100.95818329933869 -59.9511565137026
    vertex 594.0308186203322 -100.75839491438391 -60.433487775162135
    vertex 595.642780564193 -100.75839071737794 -60.43352231845093
  endloop
endfacet
facet normal -1.0979408933766213e-05 -0.7933639792679765 -0.6087475636744135
  outer loop
    vertex 595.6427914211691 -100.95818329933869 -59.9511565137026
    vertex 594.0308391812828 -101.27601776816726 -59.536902507165635
    vertex 594.030829477308 -100.95818749634432 -59.95112197041407
  endloop
endfacet
facet normal -1.0979408933766213e-05 -0.7933639792679765 -0.6087475636744135
  outer loop
    vertex 594.0308391812828 -101.27601776816726 -59.536902507165635
    vertex 595.6427914211691 -100.95818329933869 -59.9511565137026
    vertex 595.6428011251437 -101.27601357116131 -59.53693705045416
  endloop
endfacet
facet normal -1.5415768565369432e-05 -0.6087752940594873 -0.7933427009213224
  outer loop
    vertex 594.0308391812828 -101.27601776816726 -59.536902507165635
    vertex 595.6428090148077 -101.69022192506173 -59.219092300596515
    vertex 594.0308470709467 -101.69022612206776 -59.21905775730794
  endloop
endfacet
facet normal -1.5415768565369432e-05 -0.6087752940594873 -0.7933427009213224
  outer loop
    vertex 595.6428090148077 -101.69022192506173 -59.219092300596515
    vertex 594.0308391812828 -101.27601776816726 -59.536902507165635
    vertex 595.6428011251437 -101.27601357116131 -59.53693705045416
  endloop
endfacet
facet normal -1.8801569045004377e-05 -0.38269957860958104 -0.9238728441612246
  outer loop
    vertex 594.0308470709467 -101.69022612206776 -59.21905775730794
    vertex 595.6428145524927 -102.17258074623153 -59.01928285856899
    vertex 594.0308526086319 -102.1725849432376 -59.019248315280464
  endloop
endfacet
facet normal -1.8801569045004377e-05 -0.38269957860958104 -0.9238728441612246
  outer loop
    vertex 595.6428145524927 -102.17258074623153 -59.01928285856899
    vertex 594.0308470709467 -101.69022612206776 -59.21905775730794
    vertex 595.6428090148077 -101.69022192506173 -59.219092300596515
  endloop
endfacet
facet normal -2.090607366528357e-05 -0.13054351931844388 -0.9914425798435788
  outer loop
    vertex 594.0308526086319 -102.1725849432376 -59.019248315280464
    vertex 595.6428173608157 -102.69021807814511 -58.951125407644554
    vertex 594.0308554169546 -102.69022227515153 -58.951090864356026
  endloop
endfacet
facet normal -2.090607366528357e-05 -0.13054351931844388 -0.9914425798435788
  outer loop
    vertex 595.6428173608157 -102.69021807814511 -58.951125407644554
    vertex 594.0308526086319 -102.1725849432376 -59.019248315280464
    vertex 595.6428145524927 -102.17258074623153 -59.01928285856899
  endloop
endfacet
facet normal -2.1585863914194245e-05 0.13050886508091422 -0.9914471421459353
  outer loop
    vertex 594.0308554169546 -102.69022227515153 -58.951090864356026
    vertex 595.6428172483934 -103.20785779206855 -59.01926476546903
    vertex 594.0308553045321 -103.20786198907453 -59.01923022218046
  endloop
endfacet
facet normal -2.1585863914194245e-05 0.13050886508091422 -0.9914471421459353
  outer loop
    vertex 595.6428172483934 -103.20785779206855 -59.01926476546903
    vertex 594.0308554169546 -102.69022227515153 -58.951090864356026
    vertex 595.6428173608157 -102.69021807814511 -58.951125407644554
  endloop
endfacet
facet normal -2.0794613209679402e-05 0.3826672860010882 -0.9238862201549202
  outer loop
    vertex 594.0308553045321 -103.20786198907453 -59.01923022218046
    vertex 595.6428142228872 -103.690223596937 -59.21905734741169
    vertex 594.0308522790262 -103.690227793943 -59.219022804123114
  endloop
endfacet
facet normal -2.0794613209679402e-05 0.3826672860010882 -0.9238862201549202
  outer loop
    vertex 595.6428142228872 -103.690223596937 -59.21905734741169
    vertex 594.0308553045321 -103.20786198907453 -59.01923022218046
    vertex 595.6428172483934 -103.20785779206855 -59.01926476546903
  endloop
endfacet
facet normal -1.8586243979647765e-05 0.6087475637679086 -0.793363979054499
  outer loop
    vertex 594.0308522790262 -103.690227793943 -59.219022804123114
    vertex 595.6428084904807 -104.10444306029635 -59.53688761918584
    vertex 594.0308465466197 -104.1044472573025 -59.53685307589723
  endloop
endfacet
facet normal -1.8586243979647765e-05 0.6087475637679086 -0.793363979054499
  outer loop
    vertex 595.6428084904807 -104.10444306029635 -59.53688761918584
    vertex 594.0308522790262 -103.690227793943 -59.219022804123114
    vertex 595.6428142228872 -103.690223596937 -59.21905734741169
  endloop
endfacet
facet normal -1.5111252937623891e-05 0.793342701066831 -0.6087752938774985
  outer loop
    vertex 595.6428084904807 -104.10444306029635 -59.53688761918584
    vertex 594.0308384979669 -104.42229200725444 -59.95106142972135
    vertex 594.0308465466197 -104.1044472573025 -59.53685307589723
  endloop
endfacet
facet normal -1.5111252937623891e-05 0.793342701066831 -0.6087752938774985
  outer loop
    vertex 594.0308384979669 -104.42229200725444 -59.95106142972135
    vertex 595.6428084904807 -104.10444306029635 -59.53688761918584
    vertex 595.6428004418277 -104.42228781024893 -59.95109597300992
  endloop
endfacet
facet normal -1.0606454980428016e-05 0.9238728443488419 -0.382699578471526
  outer loop
    vertex 594.0308384979669 -104.42229200725444 -59.95106142972135
    vertex 595.6427906254305 -104.62209725234914 -60.43345479408225
    vertex 594.0308286815697 -104.6221014493552 -60.433420250793546
  endloop
endfacet
facet normal -1.0606454980428016e-05 0.9238728443488419 -0.382699578471526
  outer loop
    vertex 595.6427906254305 -104.62209725234914 -60.43345479408225
    vertex 594.0308384979669 -104.42229200725444 -59.95106142972135
    vertex 595.6428004418277 -104.42228781024893 -59.95109597300992
  endloop
endfacet
facet normal -5.378844644308471e-06 0.9914425800605873 -0.1305435192335265
  outer loop
    vertex 595.6427906254305 -104.62209725234914 -60.43345479408225
    vertex 594.0308177663998 -104.69025890032363 -60.95105758259394
    vertex 594.0308286815697 -104.6221014493552 -60.433420250793546
  endloop
endfacet
facet normal -5.378844644308471e-06 0.9914425800605873 -0.1305435192335265
  outer loop
    vertex 594.0308177663998 -104.69025890032363 -60.95105758259394
    vertex 595.6427906254305 -104.62209725234914 -60.43345479408225
    vertex 595.6427797102606 -104.69025470331756 -60.951092125882646
  endloop
endfacet
facet normal 2.1532506535640865e-07 0.9914471423774999 0.13050886510671747
  outer loop
    vertex 595.6427797102606 -104.69025470331756 -60.951092125882646
    vertex 594.030806496308 -104.62211954251283 -61.46869729639593
    vertex 594.0308177663998 -104.69025890032363 -60.95105758259394
  endloop
endfacet
facet normal 2.1532506535640865e-07 0.9914471423774999 0.13050886510671747
  outer loop
    vertex 594.030806496308 -104.62211954251283 -61.46869729639593
    vertex 595.6427797102606 -104.69025470331756 -60.951092125882646
    vertex 595.6427684401689 -104.62211534550606 -61.4687318396845
  endloop
endfacet
facet normal 5.794820727659419e-06 0.9238862203852717 0.38266728596606914
  outer loop
    vertex 594.030806496308 -104.62211954251283 -61.46869729639593
    vertex 595.642757583193 -104.42232276354613 -61.95109764443266
    vertex 594.0307956393319 -104.42232696055211 -61.95106310114395
  endloop
endfacet
facet normal 5.794820727659419e-06 0.9238862203852717 0.38266728596606914
  outer loop
    vertex 595.642757583193 -104.42232276354613 -61.95109764443266
    vertex 594.030806496308 -104.62211954251283 -61.46869729639593
    vertex 595.6427684401689 -104.62211534550606 -61.4687318396845
  endloop
endfacet
facet normal 1.0979408933766213e-05 0.7933639792679765 0.6087475636744135
  outer loop
    vertex 595.642757583193 -104.42232276354613 -61.95109764443266
    vertex 594.0307859353572 -104.10449668872914 -62.36528256439216
    vertex 594.0307956393319 -104.42232696055211 -61.95106310114395
  endloop
endfacet
facet normal 1.0979408933766213e-05 0.7933639792679765 0.6087475636744135
  outer loop
    vertex 594.0307859353572 -104.10449668872914 -62.36528256439216
    vertex 595.642757583193 -104.42232276354613 -61.95109764443266
    vertex 595.6427478792181 -104.10449249172362 -62.36531710768074
  endloop
endfacet
facet normal 1.5415768565369432e-05 0.6087752940594873 0.7933427009213224
  outer loop
    vertex 595.6427399895546 -103.69028413782308 -62.683161857538295
    vertex 594.0307859353572 -104.10449668872914 -62.36528256439216
    vertex 595.6427478792181 -104.10449249172362 -62.36531710768074
  endloop
endfacet
facet normal 1.5415768565369432e-05 0.6087752940594873 0.7933427009213224
  outer loop
    vertex 594.0307859353572 -104.10449668872914 -62.36528256439216
    vertex 595.6427399895546 -103.69028413782308 -62.683161857538295
    vertex 594.0307780456936 -103.69028833482899 -62.68312731424977
  endloop
endfacet
facet normal 1.8801569045004377e-05 0.38269957860958104 0.9238728441612246
  outer loop
    vertex 595.642734451869 -103.20792531665255 -62.88297129956649
    vertex 594.0307780456936 -103.69028833482899 -62.68312731424977
    vertex 595.6427399895546 -103.69028413782308 -62.683161857538295
  endloop
endfacet
facet normal 1.8801569045004377e-05 0.38269957860958104 0.9238728441612246
  outer loop
    vertex 594.0307780456936 -103.69028833482899 -62.68312731424977
    vertex 595.642734451869 -103.20792531665255 -62.88297129956649
    vertex 594.0307725080082 -103.20792951365837 -62.88293675627787
  endloop
endfacet
facet normal 2.090607366528357e-05 0.13054351931844388 0.9914425798435788
  outer loop
    vertex 595.6427316435463 -102.69028798473931 -62.95112875049034
    vertex 594.0307725080082 -103.20792951365837 -62.88293675627787
    vertex 595.642734451869 -103.20792531665255 -62.88297129956649
  endloop
endfacet
facet normal 2.090607366528357e-05 0.13054351931844388 0.9914425798435788
  outer loop
    vertex 594.0307725080082 -103.20792951365837 -62.88293675627787
    vertex 595.6427316435463 -102.69028798473931 -62.95112875049034
    vertex 594.0307696996853 -102.69029218174538 -62.95109420720177
  endloop
endfacet
facet normal 2.1585863914194245e-05 -0.13050886508091422 0.9914471421459353
  outer loop
    vertex 595.6427316435463 -102.69028798473931 -62.95112875049034
    vertex 594.0307698121077 -102.17265246782188 -62.88295484937797
    vertex 594.0307696996853 -102.69029218174538 -62.95109420720177
  endloop
endfacet
facet normal 2.1585863914194245e-05 -0.13050886508091422 0.9914471421459353
  outer loop
    vertex 594.0307698121077 -102.17265246782188 -62.88295484937797
    vertex 595.6427316435463 -102.69028798473931 -62.95112875049034
    vertex 595.6427317559685 -102.17264827081591 -62.88298939266654
  endloop
endfacet
facet normal 0.00047788530007555663 1.5442118695339136e-05 0.9999998856935841
  outer loop
    vertex 606.7653708609378 -114.6644272787067 -63.40679894426646
    vertex 595.6426908179342 -90.71989190017615 -63.40185333276933
    vertex 595.6427531696986 -114.66455637603076 -63.40148360617322
  endloop
endfacet
facet normal 0.00047788530007555663 1.5442118695339136e-05 0.9999998856935841
  outer loop
    vertex 595.6426908179342 -90.71989190017615 -63.40185333276933
    vertex 606.7653708609378 -114.6644272787067 -63.40679894426646
    vertex 606.7653085094344 -90.71986301901894 -63.40716866931611
  endloop
endfacet
facet normal -0.9999998119156526 0.0005959807082733288 0.00014482974484965056
  outer loop
    vertex 583.2286323050893 -113.75753959892116 -69.46978512609596
    vertex 583.2294688943423 -115.7650841397304 -55.43228947629396
    vertex 583.2306638855075 -113.76005247142538 -55.432077184681425
  endloop
endfacet
facet normal -0.9999998119156526 0.0005959807082733288 0.00014482974484965056
  outer loop
    vertex 583.2294688943423 -115.7650841397304 -55.43228947629396
    vertex 583.2286323050893 -113.75753959892116 -69.46978512609596
    vertex 583.2274373139248 -115.76257126722483 -69.46999741770908
  endloop
endfacet
facet normal 1.2046370652724521e-05 -1.3260454990105537e-05 0.9999999998395228
  outer loop
    vertex 589.80778800652 -91.62286718765122 -55.43247665022026
    vertex 583.2294014076778 -89.62320886491685 -55.432369160847614
    vertex 583.2306062505629 -91.62667300275663 -55.43246514319646
  endloop
endfacet
facet normal 1.2046370652724521e-05 -1.3260454990105537e-05 0.9999999998395228
  outer loop
    vertex 583.2294014076778 -89.62320886491685 -55.432369160847614
    vertex 589.80778800652 -91.62286718765122 -55.43247665022026
    vertex 589.8050956756576 -86.60854830759408 -55.432372703495076
  endloop
endfacet
facet normal 1.2046370652724521e-05 -1.3260454990105537e-05 0.9999999998395228
  outer loop
    vertex 583.2294014076778 -89.62320886491685 -55.432369160847614
    vertex 589.8050956756576 -86.60854830759408 -55.432372703495076
    vertex 581.7294014080273 -89.62321277041136 -55.43233701683007
  endloop
endfacet
facet normal 1.2046370652724521e-05 -1.3260454990105537e-05 0.9999999998395228
  outer loop
    vertex 581.7294014080273 -89.62321277041136 -55.43233701683007
    vertex 589.8050956756576 -86.60854830759408 -55.432372703495076
    vertex 578.7293818784245 -86.6102205818016 -55.432319251873274
  endloop
endfacet
facet normal 1.2046370652724521e-05 -1.3260454990105537e-05 0.9999999998395228
  outer loop
    vertex 581.7294053254287 -91.12761277025521 -55.43231597579517
    vertex 578.7293818784245 -86.6102205818016 -55.432319251873274
    vertex 578.7293936417082 -91.12762058125236 -55.43224948350575
  endloop
endfacet
facet normal 1.2046370652724521e-05 -1.3260454990105537e-05 0.9999999998395228
  outer loop
    vertex 578.7293818784245 -86.6102205818016 -55.432319251873274
    vertex 581.7294053254287 -91.12761277025521 -55.43231597579517
    vertex 581.7294014080273 -89.62321277041136 -55.43233701683007
  endloop
endfacet
facet normal 0.00026132872443226224 -0.9999999658163398 -8.63812604599288e-06
  outer loop
    vertex 594.0311379392833 -91.6233002111585 -69.46987103703039
    vertex 583.2306062505629 -91.62667300275663 -55.43246514319646
    vertex 583.2292706425068 -91.62494268738136 -69.46997673641441
  endloop
endfacet
facet normal 0.00026132872443226224 -0.9999999658163398 -8.63812604599288e-06
  outer loop
    vertex 583.2306062505629 -91.62667300275663 -55.43246514319646
    vertex 594.0311379392833 -91.6233002111585 -69.46987103703039
    vertex 589.80778800652 -91.62286718765122 -55.43247665022026
  endloop
endfacet
facet normal 0.00026132872443226224 -0.9999999658163398 -8.63812604599288e-06
  outer loop
    vertex 589.80778800652 -91.62286718765122 -55.43247665022026
    vertex 594.0311379392833 -91.6233002111585 -69.46987103703039
    vertex 594.0298407619998 -91.62288695877301 -57.418267998771
  endloop
endfacet
facet normal -0.9999999529406886 -0.0003022795913700953 5.239913722533453e-05
  outer loop
    vertex 583.2292654304945 -89.62339719447739 -69.47000764203014
    vertex 583.2306062505629 -91.62667300275663 -55.43246514319646
    vertex 583.2294014076778 -89.62320886491685 -55.432369160847614
  endloop
endfacet
facet normal -0.9999999529406886 -0.0003022795913700953 5.239913722533453e-05
  outer loop
    vertex 583.2306062505629 -91.62667300275663 -55.43246514319646
    vertex 583.2292654304945 -89.62339719447739 -69.47000764203014
    vertex 583.2292706425068 -91.62494268738136 -69.46997673641441
  endloop
endfacet
facet normal -1.0621922192979212e-05 -1.1628829005866461e-05 -0.9999999998759727
  outer loop
    vertex 578.7292336258422 -118.77738728433945 -69.46961495654021
    vertex 581.7292374637212 -115.76435847368813 -69.4697257684515
    vertex 606.7652435111039 -118.77573650420112 -69.47005346115535
  endloop
endfacet
facet normal -1.0621922192979212e-05 -1.1628829005866461e-05 -0.9999999998759727
  outer loop
    vertex 581.7292374637212 -115.76435847368813 -69.4697257684515
    vertex 578.7292336258422 -118.77738728433945 -69.46961495654021
    vertex 578.7292231643961 -114.75994037375071 -69.46967877975824
  endloop
endfacet
facet normal -1.0621922192979212e-05 -1.1628829005866461e-05 -0.9999999998759727
  outer loop
    vertex 581.7292374637212 -115.76435847368813 -69.4697257684515
    vertex 578.7292231643961 -114.75994037375071 -69.46967877975824
    vertex 581.7292348481633 -114.75993256273136 -69.46974306798596
  endloop
endfacet
facet normal -1.0621922192979212e-05 -1.1628829005866461e-05 -0.9999999998759727
  outer loop
    vertex 583.2286323050893 -113.75753959892116 -69.46978512609596
    vertex 594.0297165163738 -113.75792865922435 -69.46910463571638
    vertex 583.2274373139248 -115.76257126722483 -69.46999741770908
  endloop
endfacet
facet normal -1.0621922192979212e-05 -1.1628829005866461e-05 -0.9999999998759727
  outer loop
    vertex 583.2292654304945 -89.62339719447739 -69.47000764203014
    vertex 594.0311379392833 -91.6233002111585 -69.46987103703039
    vertex 583.2292706425068 -91.62494268738136 -69.46997673641441
  endloop
endfacet
facet normal -1.0621922192979212e-05 -1.1628829005866461e-05 -0.9999999998759727
  outer loop
    vertex 578.7290562673534 -91.12777590064923 -69.46988216201252
    vertex 581.7292654308437 -89.62340109997234 -69.46997549801273
    vertex 581.7290679511211 -91.12776808962928 -69.46994645032795
  endloop
endfacet
facet normal -1.0621922192979212e-05 -1.1628829005866461e-05 -0.9999999998759727
  outer loop
    vertex 581.7292654308437 -89.62340109997234 -69.46997549801273
    vertex 578.7290562673534 -91.12777590064923 -69.46988216201252
    vertex 578.7290445040699 -86.6103759011979 -69.46995193037996
  endloop
endfacet
facet normal -1.0621922192979212e-05 -1.1628829005866461e-05 -0.9999999998759727
  outer loop
    vertex 581.7292654308437 -89.62340109997234 -69.46997549801273
    vertex 578.7290445040699 -86.6103759011979 -69.46995193037996
    vertex 583.2292654304945 -89.62339719447739 -69.47000764203014
  endloop
endfacet
facet normal -1.0621922192979212e-05 -1.1628829005866461e-05 -0.9999999998759727
  outer loop
    vertex 606.7652435111039 -118.77573650420112 -69.47005346115535
    vertex 594.0297165163738 -113.75792865922435 -69.46910463571638
    vertex 606.7651597484265 -86.60873650814523 -69.47055014781522
  endloop
endfacet
facet normal -1.0621922192979212e-05 -1.1628829005866461e-05 -0.9999999998759727
  outer loop
    vertex 594.0297165163738 -113.75792865922435 -69.46910463571638
    vertex 606.7652435111039 -118.77573650420112 -69.47005346115535
    vertex 583.2274373139248 -115.76257126722483 -69.46999741770908
  endloop
endfacet
facet normal -1.0621922192979212e-05 -1.1628829005866461e-05 -0.9999999998759727
  outer loop
    vertex 583.2274373139248 -115.76257126722483 -69.46999741770908
    vertex 606.7652435111039 -118.77573650420112 -69.47005346115535
    vertex 581.7292374637212 -115.76435847368813 -69.4697257684515
  endloop
endfacet
facet normal -1.0621922192979212e-05 -1.1628829005866461e-05 -0.9999999998759727
  outer loop
    vertex 606.7651597484265 -86.60873650814523 -69.47055014781522
    vertex 594.0297165163738 -113.75792865922435 -69.46910463571638
    vertex 594.0311379392833 -91.6233002111585 -69.46987103703039
  endloop
endfacet
facet normal -1.0621922192979212e-05 -1.1628829005866461e-05 -0.9999999998759727
  outer loop
    vertex 606.7651597484265 -86.60873650814523 -69.47055014781522
    vertex 594.0311379392833 -91.6233002111585 -69.46987103703039
    vertex 583.2292654304945 -89.62339719447739 -69.47000764203014
  endloop
endfacet
facet normal -1.0621922192979212e-05 -1.1628829005866461e-05 -0.9999999998759727
  outer loop
    vertex 606.7651597484265 -86.60873650814523 -69.47055014781522
    vertex 583.2292654304945 -89.62339719447739 -69.47000764203014
    vertex 578.7290445040699 -86.6103759011979 -69.46995193037996
  endloop
endfacet
facet normal 0.9999999950897644 -9.765371989710118e-05 -1.685889006368789e-05
  outer loop
    vertex 581.7294053254287 -91.12761277025521 -55.43231597579517
    vertex 581.7292654308437 -89.62340109997234 -69.46997549801273
    vertex 581.7294014080273 -89.62321277041136 -55.43233701683007
  endloop
endfacet
facet normal 0.9999999950897644 -9.765371989710118e-05 -1.685889006368789e-05
  outer loop
    vertex 581.7292654308437 -89.62340109997234 -69.46997549801273
    vertex 581.7294053254287 -91.12761277025521 -55.43231597579517
    vertex 581.7290679511211 -91.12776808962928 -69.46994645032795
  endloop
endfacet
facet normal 2.603950672966478e-06 -0.999999999906615 1.341601773509078e-05
  outer loop
    vertex 581.7292654308437 -89.62340109997234 -69.46997549801273
    vertex 583.2294014076778 -89.62320886491685 -55.432369160847614
    vertex 581.7294014080273 -89.62321277041136 -55.43233701683007
  endloop
endfacet
facet normal 2.603950672966478e-06 -0.999999999906615 1.341601773509078e-05
  outer loop
    vertex 583.2294014076778 -89.62320886491685 -55.432369160847614
    vertex 581.7292654308437 -89.62340109997234 -69.46997549801273
    vertex 583.2292654304945 -89.62339719447739 -69.47000764203014
  endloop
endfacet
endsolid pedro
