<?xml version="1.0" encoding="UTF-8" standalone="no"?>

<svg
	xmlns="http://www.w3.org/2000/svg" version="1.1"
	xmlns:freecad="http://www.freecadweb.org/wiki/index.php?title=Svg_Namespace"
	width="210mm"
	height="297mm"
	viewBox="0 0 210 297">
	<!-- Working space 20 10 200 287 -->
	<!-- Title block 20 227 200 287 -->
	<g>
		<rect
			id="drawing-border"
			style="fill:none;stroke:#000000;stroke-width:0.35;stroke-linecap:miter;stroke-miterlimit:4"
			width="180"
			height="277"
			x="20"
			y="10" />
			<!-- width-30, height-20 -->
		<g
			transform="translate(0,0)">
			<!-- A4 Portrait based for other formats width-210, height-297 -->
			<!--        page       rect   translation
			               w    h    rw   rh   tx   ty
			        A4-P  210  297  180  277    0    0
			        A3-L  420  297  390  277  210    0
			        A2-L  594  420  564  400  384  123
			        A1-L  841  594  811  574  631  297
			        A0-L 1189  841 1159  821  979  544
			-->
			<g
				id="titleblock-structure"
				style="fill:none;stroke:#000000;stroke-width:0.35;stroke-linecap:miter;stroke-miterlimit:4">
				<rect width="180" height="60" x="20" y="227" />
				<path d="m 20,239 h 180" />
				<path d="m 80,227 v 12" />
				<path d="m 140,239 v 48" />
				<path d="m 160,239 v 12" />
				<path d="m 180,239 v 12" />
				<path d="m 140,251 h 60" />
				<path d="m 140,275 h 60" />
				<path d="m 180,275 v 12" />
			</g>
			<g
				id="titleblock-text-non-editable"
				style="font-size:3px;text-anchor:start;fill:#000000;font-family:osifont"
				xml:space="preserve">
				<text x="21" y="230">Created by:</text>
				<text x="81" y="230">Title:</text>
				<text x="21" y="242">Supplementary information:</text>
				<text x="141" y="242">Size:</text>
				<text x="161" y="242">Sheet:</text>
				<text x="181" y="242">Scale:</text>
				<text x="141" y="254">Part number:</text>
				<text x="141" y="266">Drawing number:</text>
				<text x="141" y="278">Date:</text>
				<text x="181" y="278">Revision:</text>
			</g>
			<g
				id="titleblock-text-editable"
				style="font-size:5px;text-anchor:middle;fill:#000000;font-family:osifont"
				xml:space="preserve">
				<text freecad:editable="Author" x="50" y="236"><tspan>Antonio Gómez</tspan></text>
				<text freecad:editable="Title" x="140" y="236"><tspan>Cimiento base (10x10x10 cm)</tspan></text>
				<text freecad:editable="SI-1:" x="80" y="248"><tspan></tspan></text>
				<text freecad:editable="SI-2:" x="80" y="260"><tspan>Puente Levadizo</tspan></text>
				<text freecad:editable="SI-3:" x="80" y="272"><tspan></tspan></text>
				<text freecad:editable="SI-4:" x="80" y="284"><tspan></tspan></text>
				<text freecad:editable="Size" x="150" y="248"><tspan>A4</tspan></text>
				<text freecad:editable="Sheet" x="170" y="248"><tspan>2/5</tspan></text>
				<text freecad:editable="Scale" x="190" y="248"><tspan>1:2	</tspan></text>
				<text freecad:editable="PN" x="170" y="260"><tspan>1</tspan></text>
				<text freecad:editable="DN" x="170" y="272"><tspan>2</tspan></text>
				<text freecad:editable="Date" x="160" y="284"><tspan>09/12/17</tspan></text>
				<text freecad:editable="Revision" x="190" y="284"><tspan>A</tspan></text>
			</g>
		</g>
	</g>
<g id="Ortho_0_0"
   transform="rotate(-90,46.1667,98.5) translate(46.1667,98.5) scale(0.5,0.5)"
  >
<g   stroke="rgb(0, 0, 0)"
   stroke-width="0.7"
   stroke-linecap="butt"
   stroke-linejoin="miter"
   fill="none"
   transform="scale(1,-1)"
  >
<path id= "1" d=" M 3 -3 L 92.7574 -3 " />
<path id= "2" d=" M 0 3 L 100 3 " />
<path id= "3" d=" M 3 -92.7574 L 3 -3 " />
<path id= "4" d=" M -3 -100 L -3 -7.10543e-14 " />
<path id= "5" d=" M 103 -100 L 103 -1.02533e-08 " />
<path id= "6" d=" M 97 -97 L 97 -7.24264 " />
<path id= "7" d=" M 7.24264 -97 L 97 -7.24264 " />
<path id= "8" d=" M 3 -92.7574 L 92.7574 -3 " />
<path id= "9" d=" M 3 -7.24264 L 45.7574 -50 " />
<path id= "10" d=" M 50 -54.2426 L 92.7574 -97 " />
<path id= "11" d=" M 7.24264 -3 L 50 -45.7574 " />
<path id= "12" d=" M 54.2426 -50 L 97 -92.7574 " />
<path id= "13" d=" M -4.16211e-07 -103 L 0 -103 " />
<path id= "14" d=" M 0 -103 L 100 -103 " />
<path id= "15" d=" M 7.24264 -97 L 97 -97 " />
</g>
<g   stroke="rgb(0, 0, 0)"
   stroke-width="0.7"
   stroke-linecap="butt"
   stroke-linejoin="miter"
   fill="none"
   transform="scale(1,-1)"
  >
<path d="M-9.21887e-15 3 A3 3 0 0 1 -3 -9.92335e-15" /><path d="M0,3 L0,2.98114  L0,2.92478  L0,2.83165  L0,2.70291  L0,2.54017  L0,2.34549  L0,2.12132  L0,1.87047  L0,1.5961  L0,1.30165  L0,0.990837  L0,0.667563  L0,0.335893  L0,-9.92335e-15 " /><path d="M-3,0 L-2.98114,0  L-2.92478,0  L-2.83165,0  L-2.70291,0  L-2.54017,0  L-2.34549,0  L-2.12132,0  L-1.87047,0  L-1.5961,0  L-1.30165,0  L-0.990837,0  L-0.667563,0  L-0.335893,0  L3.21278e-14,0 " /><path d="M-2.16573e-08,2.16573e-08 L0.335893,-0.335893  L0.667563,-0.667563  L0.990837,-0.990837  L1.30165,-1.30165  L1.5961,-1.5961  L1.87047,-1.87047  L2.12132,-2.12132  L2.34549,-2.34549  L2.54017,-2.54017  L2.70291,-2.70291  L2.83165,-2.83165  L2.92478,-2.92478  L2.98114,-2.98114  L3,-3 " /><path d="M100,2.13712e-08 L99.9268,-0.0731977  L99.8536,-0.146352  L99.7806,-0.219419  L99.7076,-0.292355  L99.6349,-0.365117  L99.5623,-0.437662  L99.4901,-0.509946  L99.4181,-0.581927  L99.3464,-0.653561  L99.2752,-0.724806  L99.2044,-0.79562  L99.134,-0.86596  L99.0642,-0.935784  L98.9949,-1.00505 " /><path d="M92.7574,-3 L92.7922,-2.98558  L92.8963,-2.94245  L93.0687,-2.87104  L93.3077,-2.77203  L93.6111,-2.64636  L93.9759,-2.49525  L94.3987,-2.32015  L94.8752,-2.12275  L95.4011,-1.90494  L95.9711,-1.66881  L96.5799,-1.41664  L97.2216,-1.15086  L97.89,-0.874001  L98.5786,-0.588745 " /><path d="M100,3 L100,2.98114  L100,2.92478  L100,2.83165  L100,2.70291  L100,2.54017  L100,2.34549  L100,2.12132  L100,1.87047  L100,1.5961  L100,1.30165  L100,0.990837  L100,0.667563  L100,0.335893  L100,-9.92335e-15 " /><path d="M3,-92.7574 L2.98114,-92.8029  L2.92478,-92.9389  L2.83165,-93.1638  L2.70291,-93.4746  L2.54017,-93.8675  L2.34549,-94.3375  L2.12132,-94.8787  L1.87047,-95.4843  L1.5961,-96.1467  L1.30165,-96.8575  L0.990837,-97.6079  L0.667563,-98.3884  L0.335893,-99.1891  L-1.04744e-14,-100 " /><path d="M-3,-100 L-2.98114,-100  L-2.92478,-100  L-2.83165,-100  L-2.70291,-100  L-2.54017,-100  L-2.34549,-100  L-2.12132,-100  L-1.87047,-100  L-1.5961,-100  L-1.30165,-100  L-0.990837,-100  L-0.667563,-100  L-0.335893,-100  L9.92335e-15,-100 " /><path d="M97,-97 L97.0189,-97.0189  L97.0752,-97.0752  L97.1684,-97.1684  L97.2971,-97.2971  L97.4598,-97.4598  L97.6545,-97.6545  L97.8787,-97.8787  L98.1295,-98.1295  L98.4039,-98.4039  L98.6983,-98.6983  L99.0092,-99.0092  L99.3324,-99.3324  L99.6641,-99.6641  L100,-100 " /><path d="M100,-100 L100.336,-100  L100.668,-100  L100.991,-100  L101.302,-100  L101.596,-100  L101.87,-100  L102.121,-100  L102.345,-100  L102.54,-100  L102.703,-100  L102.832,-100  L102.925,-100  L102.981,-100  L103,-100 " /><path d="M100,0 L100.336,0  L100.668,0  L100.991,0  L101.302,0  L101.596,0  L101.87,0  L102.121,0  L102.345,0  L102.54,0  L102.703,0  L102.832,0  L102.925,0  L102.981,0  L103,0 " /><path d="M99.4113,-1.42136 L99.126,-2.11003  L98.8491,-2.77841  L98.5834,-3.42008  L98.3312,-4.02887  L98.0951,-4.59893  L97.8772,-5.12477  L97.6798,-5.60135  L97.5047,-6.02407  L97.3536,-6.38888  L97.228,-6.69226  L97.129,-6.93131  L97.0575,-7.10371  L97.0144,-7.20783  L97,-7.24264 " /><path d="M98.5786,-0.588745 L98.608,-0.618134  L98.6375,-0.6476  L98.667,-0.677137  L98.6966,-0.706739  L98.7263,-0.736401  L98.756,-0.766116  L98.7858,-0.795878  L98.8156,-0.825683  L98.8454,-0.855523  L98.8753,-0.885393  L98.9052,-0.915286  L98.9351,-0.945198  L98.965,-0.975121  L98.9949,-1.00505 " /><path d="M98.9949,-1.00505 L99.0249,-1.03498  L99.0548,-1.0649  L99.0847,-1.09481  L99.1146,-1.12471  L99.1445,-1.15458  L99.1743,-1.18442  L99.2041,-1.21422  L99.2339,-1.24399  L99.2636,-1.2737  L99.2933,-1.30336  L99.3229,-1.33296  L99.3524,-1.3625  L99.3819,-1.39197  L99.4113,-1.42136 " /><path d="M-1.33045e-15,-100 L0.810918,-99.6641  L1.61164,-99.3324  L2.39209,-99.0092  L3.14246,-98.6983  L3.85332,-98.4039  L4.51571,-98.1295  L5.12132,-97.8787  L5.66252,-97.6545  L6.13252,-97.4598  L6.52539,-97.2971  L6.83621,-97.1684  L7.06105,-97.0752  L7.1971,-97.0189  L7.24264,-97 " /><path d="M103 -9.69327e-15 A3 3 0 0 1 100 3" /><path d="M-3 -100 A3 3 0 0 1 2.03675e-15 -103" /><path d="M7.24264,-3 L7.24253,-2.99995  L7.24218,-2.99981  L7.24161,-2.99958  L7.24082,-2.99924  L7.23979,-2.99882  L7.23854,-2.9983  L7.23706,-2.99769  L7.23535,-2.99698  L7.23341,-2.99618  L7.23125,-2.99528  L7.22885,-2.99429  L7.22624,-2.9932  L7.22339,-2.99203  L7.22031,-2.99075 " /><path d="M97,-92.7574 L97.0001,-92.7576  L97.0004,-92.7584  L97.001,-92.7597  L97.0017,-92.7615  L97.0027,-92.7638  L97.0038,-92.7666  L97.0052,-92.7699  L97.0068,-92.7738  L97.0086,-92.7781  L97.0106,-92.783  L97.0128,-92.7884  L97.0153,-92.7943  L97.0179,-92.8007  L97.0208,-92.8076 " /><path d="M0,-100 L0,-100.336  L0,-100.668  L0,-100.991  L0,-101.302  L0,-101.596  L0,-101.87  L0,-102.121  L0,-102.345  L0,-102.54  L0,-102.703  L0,-102.832  L0,-102.925  L0,-102.981  L0,-103 " /><path d="M100,-100 L100,-100.336  L100,-100.668  L100,-100.991  L100,-101.302  L100,-101.596  L100,-101.87  L100,-102.121  L100,-102.345  L100,-102.54  L100,-102.703  L100,-102.832  L100,-102.925  L100,-102.981  L100,-103 " /><path d="M100 -103 A3 3 0 0 1 103 -100" /><path d="M98.0049,-102.24 L98.0912,-102.314  L98.1801,-102.385  L98.2717,-102.452  L98.3657,-102.516  L98.4621,-102.576  L98.5607,-102.632  L98.6614,-102.685  L98.7639,-102.734  L98.8683,-102.778  L98.9742,-102.819  L99.0817,-102.856  L99.1904,-102.889  L99.3003,-102.917  L99.4113,-102.942 " /></g>
</g>



<g id="Ortho_1_0"
   transform="rotate(-90,173.833,98.5) translate(173.833,98.5) scale(0.5,0.5)"
  >
<g   stroke="rgb(0, 0, 0)"
   stroke-width="0.7"
   stroke-linecap="butt"
   stroke-linejoin="miter"
   fill="none"
   transform="scale(1,-1)"
  >
<path id= "1" d=" M 7.24264 3 L 97 92.7574 " />
<path id= "2" d=" M 3 3 L 3 92.7574 " />
<path id= "3" d=" M 0 -3 L 100 -3 " />
<path id= "4" d=" M 7.24264 97 L 97 97 " />
<path id= "5" d=" M 103 -6.66134e-16 L 103 100 " />
<path id= "6" d=" M 3 92.7574 L 92.7574 3 " />
</g>
<g   stroke="rgb(0, 0, 0)"
   stroke-width="0.7"
   stroke-linecap="butt"
   stroke-linejoin="miter"
   fill="none"
   transform="scale(1,-1)"
  >
<path d="M92.7574,97 L92.7575,97  L92.7578,97.0002  L92.7584,97.0004  L92.7592,97.0008  L92.7602,97.0012  L92.7615,97.0017  L92.7629,97.0023  L92.7647,97.003  L92.7666,97.0038  L92.7688,97.0047  L92.7711,97.0057  L92.7738,97.0068  L92.7766,97.008  L92.7797,97.0092 " /><path d="M-3 100 A3 3 0 0 0 9.92335e-15 103" /><path id= "3" d=" M 3 7.24264 L 92.7574 97 " />
<path d="M9.69327e-15 -3 A3 3 0 0 0 -3 -5.51091e-16" /><path d="M100 103 A3 3 0 0 0 103 100" /><path id= "6" d=" M -3 6.66134e-16 L -3 100 " />
<path d="M-2.13726e-08,-2.13726e-08 L0.335893,0.335893  L0.667563,0.667563  L0.990837,0.990837  L1.30165,1.30165  L1.5961,1.5961  L1.87047,1.87047  L2.12132,2.12132  L2.34549,2.34549  L2.54017,2.54017  L2.70291,2.70291  L2.83165,2.83165  L2.92478,2.92478  L2.98114,2.98114  L3,3 " /><path d="M-3,6.66134e-16 L-2.98114,6.61945e-16  L-2.92478,6.49432e-16  L-2.83165,6.28753e-16  L-2.70291,6.00166e-16  L-2.54017,5.64032e-16  L-2.34549,5.20804e-16  L-2.12132,4.71028e-16  L-1.87047,4.15328e-16  L-1.5961,3.54405e-16  L-1.30165,2.89025e-16  L-0.990837,2.2001e-16  L-0.667563,1.48229e-16  L-0.335893,7.45833e-17  L-2.01677e-14,4.47813e-30 " /><path d="M-3,100 L-2.98114,100  L-2.92478,100  L-2.83165,100  L-2.70291,100  L-2.54017,100  L-2.34549,100  L-2.12132,100  L-1.87047,100  L-1.5961,100  L-1.30165,100  L-0.990837,100  L-0.667563,100  L-0.335893,100  L2.03675e-15,100 " /><path d="M-1.724e-07,100 L0.335893,99.1891  L0.667563,98.3884  L0.990837,97.6079  L1.30165,96.8575  L1.5961,96.1467  L1.87047,95.4843  L2.12132,94.8787  L2.34549,94.3375  L2.54017,93.8675  L2.70291,93.4746  L2.83165,93.1638  L2.92478,92.9389  L2.98114,92.8029  L3,92.7574 " /><path d="M100,-1.04744e-14 L100,-0.335893  L100,-0.667563  L100,-0.990837  L100,-1.30165  L100,-1.5961  L100,-1.87047  L100,-2.12132  L100,-2.34549  L100,-2.54017  L100,-2.70291  L100,-2.83165  L100,-2.92478  L100,-2.98114  L100,-3 " /><path id= "12" d=" M 3 3 L 92.7574 3 " />
<path d="M0,-1.04744e-14 L0,-0.335893  L0,-0.667563  L0,-0.990837  L0,-1.30165  L0,-1.5961  L0,-1.87047  L0,-2.12132  L0,-2.34549  L0,-2.54017  L0,-2.70291  L0,-2.83165  L0,-2.92478  L0,-2.98114  L0,-3 " /><path d="M98.5786,0.588745 L97.89,0.874001  L97.2216,1.15086  L96.5799,1.41664  L95.9711,1.66881  L95.4011,1.90494  L94.8752,2.12275  L94.3987,2.32015  L93.9759,2.49525  L93.6111,2.64636  L93.3077,2.77203  L93.0687,2.87104  L92.8963,2.94245  L92.7922,2.98558  L92.7574,3 " /><path d="M98.9949,1.00505 L99.0642,0.935784  L99.134,0.86596  L99.2044,0.79562  L99.2752,0.724806  L99.3464,0.653561  L99.4181,0.581927  L99.4901,0.509946  L99.5623,0.437662  L99.6349,0.365117  L99.7076,0.292355  L99.7806,0.219419  L99.8536,0.146352  L99.9268,0.0731977  L100,-2.13726e-08 " /><path d="M5.12132,97.8787 L5.40042,97.7631  L5.66252,97.6545  L5.90681,97.5533  L6.13252,97.4598  L6.33893,97.3743  L6.52539,97.2971  L6.69133,97.2284  L6.83621,97.1684  L6.95958,97.1172  L7.06105,97.0752  L7.14031,97.0424  L7.1971,97.0189  L7.23125,97.0047  L7.24264,97 " /><path d="M7.24264,97 L7.1971,97.0189  L7.06105,97.0752  L6.83621,97.1684  L6.52539,97.2971  L6.13252,97.4598  L5.66252,97.6545  L5.12132,97.8787  L4.51571,98.1295  L3.85332,98.4039  L3.14246,98.6983  L2.39209,99.0092  L1.61164,99.3324  L0.810918,99.6641  L-4.16211e-07,100 " /><path d="M0,103 L0,102.981  L0,102.925  L0,102.832  L0,102.703  L0,102.54  L0,102.345  L0,102.121  L0,101.87  L0,101.596  L0,101.302  L0,100.991  L0,100.668  L0,100.336  L0,100 " /><path id= "19" d=" M 0 103 L 100 103 " />
<path d="M100,103 L100,102.981  L100,102.925  L100,102.832  L100,102.703  L100,102.54  L100,102.345  L100,102.121  L100,101.87  L100,101.596  L100,101.302  L100,100.991  L100,100.668  L100,100.336  L100,100 " /><path d="M97,97 L97.0189,97.0189  L97.0752,97.0752  L97.1684,97.1684  L97.2971,97.2971  L97.4598,97.4598  L97.6545,97.6545  L97.8787,97.8787  L98.1295,98.1295  L98.4039,98.4039  L98.6983,98.6983  L99.0092,99.0092  L99.3324,99.3324  L99.6641,99.6641  L100,100 " /><path d="M97.8787,97.8787 L97.7631,97.7631  L97.6545,97.6545  L97.5533,97.5533  L97.4598,97.4598  L97.3743,97.3743  L97.2971,97.2971  L97.2284,97.2284  L97.1684,97.1684  L97.1172,97.1172  L97.0752,97.0752  L97.0424,97.0424  L97.0189,97.0189  L97.0047,97.0047  L97,97 " /><path d="M100,100 L100.336,100  L100.668,100  L100.991,100  L101.302,100  L101.596,100  L101.87,100  L102.121,100  L102.345,100  L102.54,100  L102.703,100  L102.832,100  L102.925,100  L102.981,100  L103,100 " /><path id= "24" d=" M 97 7.24264 L 97 97 " />
<path d="M100,4.47813e-30 L100.336,-7.45833e-17  L100.668,-1.48229e-16  L100.991,-2.2001e-16  L101.302,-2.89025e-16  L101.596,-3.54405e-16  L101.87,-4.15328e-16  L102.121,-4.71028e-16  L102.345,-5.20804e-16  L102.54,-5.64032e-16  L102.703,-6.00166e-16  L102.832,-6.28753e-16  L102.925,-6.49432e-16  L102.981,-6.61945e-16  L103,-6.66134e-16 " /><path d="M97,7.24264 L97.0144,7.20783  L97.0575,7.10371  L97.129,6.93131  L97.228,6.69226  L97.3536,6.38888  L97.5047,6.02407  L97.6798,5.60135  L97.8772,5.12477  L98.0951,4.59893  L98.3312,4.02887  L98.5834,3.42008  L98.8491,2.77841  L99.126,2.11003  L99.4113,1.42136 " /><path d="M99.4113,1.42136 L99.3524,1.3625  L99.2933,1.30336  L99.2339,1.24399  L99.1743,1.18442  L99.1146,1.12471  L99.0548,1.0649  L98.9949,1.00505  L98.9351,0.945198  L98.8753,0.885393  L98.8156,0.825683  L98.756,0.766116  L98.6966,0.706739  L98.6375,0.6476  L98.5786,0.588745 " /><path id= "28" d=" M 7.24264 97 L 97 7.24264 " />
<path d="M103 2.01677e-14 A3 3 0 0 0 100 -3" /></g>
</g>



<g id="Ortho_0_-1"
   transform="rotate(90,46.1667,188.5) translate(46.1667,188.5) scale(0.5,0.5)"
  >
<g   stroke="rgb(0, 0, 0)"
   stroke-width="0.7"
   stroke-linecap="butt"
   stroke-linejoin="miter"
   fill="none"
   transform="scale(1,-1)"
  >
<path id= "1" d=" M -3 3 L -97 3 " />
<path id= "2" d=" M 0 -3 L -100 -3 " />
<path id= "3" d=" M -97 97 L -97 3 " />
<path id= "4" d=" M 3 100 L 3 3.9887e-10 " />
<path id= "5" d=" M 0 103 L -100 103 " />
<path id= "6" d=" M -100 103 L -100 103 " />
<path id= "7" d=" M -3 97 L -97 97 " />
</g>
<g   stroke="rgb(0, 0, 0)"
   stroke-width="0.7"
   stroke-linecap="butt"
   stroke-linejoin="miter"
   fill="none"
   transform="scale(1,-1)"
  >
<path d="M-100,-3 L-100,-2.98114  L-100,-2.92478  L-100,-2.83165  L-100,-2.70291  L-100,-2.54017  L-100,-2.34549  L-100,-2.12132  L-100,-1.87047  L-100,-1.5961  L-100,-1.30165  L-100,-0.990837  L-100,-0.667563  L-100,-0.335893  L-100,9.92335e-15 " /><path d="M-100 -3 A3 3 0 0 0 -103 9.92335e-15" /><path d="M-100,0 L-100.336,0  L-100.668,0  L-100.991,0  L-101.302,0  L-101.596,0  L-101.87,0  L-102.121,0  L-102.345,0  L-102.54,0  L-102.703,0  L-102.832,0  L-102.925,0  L-102.981,0  L-103,0 " /><path d="M1.22367e-31,-3 L-7.45833e-17,-2.98114  L-1.48229e-16,-2.92478  L-2.2001e-16,-2.83165  L-2.89025e-16,-2.70291  L-3.54405e-16,-2.54017  L-4.15328e-16,-2.34549  L-4.71028e-16,-2.12132  L-5.20804e-16,-1.87047  L-5.64032e-16,-1.5961  L-6.00166e-16,-1.30165  L-6.28753e-16,-0.990837  L-6.49432e-16,-0.667563  L-6.61945e-16,-0.335893  L-6.66134e-16,9.92335e-15 " /><path d="M-3,3 L-2.99882,2.99882  L-2.99528,2.99528  L-2.98938,2.98938  L-2.98114,2.98114  L-2.97054,2.97054  L-2.95761,2.95761  L-2.94236,2.94236  L-2.92478,2.92478  L-2.90491,2.90491  L-2.88275,2.88275  L-2.85833,2.85833  L-2.83165,2.83165  L-2.80275,2.80275  L-2.77164,2.77164 " /><path d="M-7.01741e-08,7.01741e-08 L-0.335893,0.335893  L-0.667563,0.667563  L-0.990837,0.990837  L-1.30165,1.30165  L-1.5961,1.5961  L-1.87047,1.87047  L-2.12132,2.12132  L-2.34549,2.34549  L-2.54017,2.54017  L-2.70291,2.70291  L-2.83165,2.83165  L-2.92478,2.92478  L-2.98114,2.98114  L-3,3 " /><path d="M-100,9.80831e-15 L-99.6641,0.335893  L-99.3324,0.667563  L-99.0092,0.990837  L-98.6983,1.30165  L-98.4039,1.5961  L-98.1295,1.87047  L-97.8787,2.12132  L-97.6545,2.34549  L-97.4598,2.54017  L-97.2971,2.70291  L-97.1684,2.83165  L-97.0752,2.92478  L-97.0189,2.98114  L-97,3 " /><path d="M-97,3 L-97.0047,2.99528  L-97.0189,2.98114  L-97.0424,2.95761  L-97.0752,2.92478  L-97.1172,2.88275  L-97.1684,2.83165  L-97.2284,2.77164  L-97.2971,2.70291  L-97.3743,2.62567  L-97.4598,2.54017  L-97.5533,2.44668  L-97.6545,2.34549  L-97.7631,2.23693  L-97.8787,2.12132 " /><path d="M-97,97 L-97.0189,97.0189  L-97.0752,97.0752  L-97.1684,97.1684  L-97.2971,97.2971  L-97.4598,97.4598  L-97.6545,97.6545  L-97.8787,97.8787  L-98.1295,98.1295  L-98.4039,98.4039  L-98.6983,98.6983  L-99.0092,99.0092  L-99.3324,99.3324  L-99.6641,99.6641  L-100,100 " /><path id= "10" d=" M -103 100 L -103 0 " />
<path d="M-100,100 L-100.336,100  L-100.668,100  L-100.991,100  L-101.302,100  L-101.596,100  L-101.87,100  L-102.121,100  L-102.345,100  L-102.54,100  L-102.703,100  L-102.832,100  L-102.925,100  L-102.981,100  L-103,100 " /><path d="M-97.2284,2.77164 L-97.1973,2.80275  L-97.1684,2.83165  L-97.1417,2.85833  L-97.1172,2.88275  L-97.0951,2.90491  L-97.0752,2.92478  L-97.0576,2.94236  L-97.0424,2.95761  L-97.0295,2.97054  L-97.0189,2.98114  L-97.0106,2.98938  L-97.0047,2.99528  L-97.0012,2.99882  L-97,3 " /><path d="M-97,3 L-97.0047,2.99528  L-97.0189,2.98114  L-97.0424,2.95761  L-97.0752,2.92478  L-97.1172,2.88275  L-97.1684,2.83165  L-97.2284,2.77164  L-97.2971,2.70291  L-97.3743,2.62567  L-97.4598,2.54017  L-97.5533,2.44668  L-97.6545,2.34549  L-97.7631,2.23693  L-97.8787,2.12132 " /><path id= "14" d=" M -3 97 L -3 3 " />
<path d="M-3,97 L-2.98114,97.0189  L-2.92478,97.0752  L-2.83165,97.1684  L-2.70291,97.2971  L-2.54017,97.4598  L-2.34549,97.6545  L-2.12132,97.8787  L-1.87047,98.1295  L-1.5961,98.4039  L-1.30165,98.6983  L-0.990837,99.0092  L-0.667563,99.3324  L-0.335893,99.6641  L9.80831e-15,100 " /><path d="M3,100 L2.98114,100  L2.92478,100  L2.83165,100  L2.70291,100  L2.54017,100  L2.34549,100  L2.12132,100  L1.87047,100  L1.5961,100  L1.30165,100  L0.990837,100  L0.667563,100  L0.335893,100  L5.51091e-16,100 " /><path d="M-2.12132,97.8787 L-2.23693,97.7631  L-2.34549,97.6545  L-2.44668,97.5533  L-2.54017,97.4598  L-2.62567,97.3743  L-2.70291,97.2971  L-2.77164,97.2284  L-2.83165,97.1684  L-2.88275,97.1172  L-2.92478,97.0752  L-2.95761,97.0424  L-2.98114,97.0189  L-2.99528,97.0047  L-3,97 " /><path d="M3,0 L2.98114,0  L2.92478,0  L2.83165,0  L2.70291,0  L2.54017,0  L2.34549,0  L2.12132,0  L1.87047,0  L1.5961,0  L1.30165,0  L0.990837,0  L0.667563,0  L0.335893,0  L5.51091e-16,0 " /><path d="M-6.66134e-16,100 L-6.61945e-16,100.336  L-6.49432e-16,100.668  L-6.28753e-16,100.991  L-6.00166e-16,101.302  L-5.64032e-16,101.596  L-5.20804e-16,101.87  L-4.71028e-16,102.121  L-4.15328e-16,102.345  L-3.54405e-16,102.54  L-2.89025e-16,102.703  L-2.2001e-16,102.832  L-1.48229e-16,102.925  L-7.45833e-17,102.981  L-4.47813e-30,103 " /><path d="M-100,100 L-100,100.336  L-100,100.668  L-100,100.991  L-100,101.302  L-100,101.596  L-100,101.87  L-100,102.121  L-100,102.345  L-100,102.54  L-100,102.703  L-100,102.832  L-100,102.925  L-100,102.981  L-100,103 " /><path d="M3 9.69327e-15 A3 3 0 0 0 5.51091e-16 -3" /><path d="M-3,97 L-2.99528,97.0047  L-2.98114,97.0189  L-2.95761,97.0424  L-2.92478,97.0752  L-2.88275,97.1172  L-2.83165,97.1684  L-2.77164,97.2284  L-2.70291,97.2971  L-2.62567,97.3743  L-2.54017,97.4598  L-2.44668,97.5533  L-2.34549,97.6545  L-2.23693,97.7631  L-2.12132,97.8787 " /><path d="M1.04744e-14 103 A3 3 0 0 0 3 100" /><path d="M-2.85317,100.927 L-2.87325,100.863  L-2.89189,100.798  L-2.90907,100.733  L-2.92478,100.668  L-2.93903,100.602  L-2.95179,100.536  L-2.96307,100.469  L-2.97285,100.403  L-2.98114,100.336  L-2.98792,100.269  L-2.9932,100.202  L-2.99698,100.135  L-2.99924,100.067  L-3,100 " /><path d="M-103 100 A3 3 0 0 0 -100 103" /></g>
</g>



</svg>

