<?xml version="1.0" encoding="UTF-8" standalone="no"?>

<svg
	xmlns="http://www.w3.org/2000/svg" version="1.1"
	xmlns:freecad="http://www.freecadweb.org/wiki/index.php?title=Svg_Namespace"
	width="210mm"
	height="297mm"
	viewBox="0 0 210 297">
	<!-- Working space 20 10 200 287 -->
	<!-- Title block 20 227 200 287 -->
	<g>
		<rect
			id="drawing-border"
			style="fill:none;stroke:#000000;stroke-width:0.35;stroke-linecap:miter;stroke-miterlimit:4"
			width="180"
			height="277"
			x="20"
			y="10" />
			<!-- width-30, height-20 -->
		<g
			transform="translate(0,0)">
			<!-- A4 Portrait based for other formats width-210, height-297 -->
			<!--        page       rect   translation
			               w    h    rw   rh   tx   ty
			        A4-P  210  297  180  277    0    0
			        A3-L  420  297  390  277  210    0
			        A2-L  594  420  564  400  384  123
			        A1-L  841  594  811  574  631  297
			        A0-L 1189  841 1159  821  979  544
			-->
			<g
				id="titleblock-structure"
				style="fill:none;stroke:#000000;stroke-width:0.35;stroke-linecap:miter;stroke-miterlimit:4">
				<rect width="180" height="60" x="20" y="227" />
				<path d="m 20,239 h 180" />
				<path d="m 80,227 v 12" />
				<path d="m 140,239 v 48" />
				<path d="m 160,239 v 12" />
				<path d="m 180,239 v 12" />
				<path d="m 140,251 h 60" />
				<path d="m 140,275 h 60" />
				<path d="m 180,275 v 12" />
			</g>
			<g
				id="titleblock-text-non-editable"
				style="font-size:3px;text-anchor:start;fill:#000000;font-family:osifont"
				xml:space="preserve">
				<text x="21" y="230">Created by:</text>
				<text x="81" y="230">Title:</text>
				<text x="21" y="242">Supplementary information:</text>
				<text x="141" y="242">Size:</text>
				<text x="161" y="242">Sheet:</text>
				<text x="181" y="242">Scale:</text>
				<text x="141" y="254">Part number:</text>
				<text x="141" y="266">Drawing number:</text>
				<text x="141" y="278">Date:</text>
				<text x="181" y="278">Revision:</text>
			</g>
			<g
				id="titleblock-text-editable"
				style="font-size:5px;text-anchor:middle;fill:#000000;font-family:osifont"
				xml:space="preserve">
				<text freecad:editable="Author" x="50" y="236"><tspan>Antonio Gómez</tspan></text>
				<text freecad:editable="Title" x="140" y="236"><tspan>Pasarela (15 canutillos)</tspan></text>
				<text freecad:editable="SI-1:" x="80" y="248"><tspan></tspan></text>
				<text freecad:editable="SI-2:" x="80" y="260"><tspan>Puente Levadizo</tspan></text>
				<text freecad:editable="SI-3:" x="80" y="272"><tspan></tspan></text>
				<text freecad:editable="SI-4:" x="80" y="284"><tspan></tspan></text>
				<text freecad:editable="Size" x="150" y="248"><tspan>A4</tspan></text>
				<text freecad:editable="Sheet" x="170" y="248"><tspan>3/5</tspan></text>
				<text freecad:editable="Scale" x="190" y="248"><tspan>1:2	</tspan></text>
				<text freecad:editable="PN" x="170" y="260"><tspan>2</tspan></text>
				<text freecad:editable="DN" x="170" y="272"><tspan>3</tspan></text>
				<text freecad:editable="Date" x="160" y="284"><tspan>09/12/17</tspan></text>
				<text freecad:editable="Revision" x="190" y="284"><tspan>A</tspan></text>
			</g>
		</g>
	</g>
<g id="Ortho_0_001"
   transform="rotate(-90,25,150) translate(25,150) scale(0.5,0.5)"
  >
<g   stroke="rgb(0, 0, 0)"
   stroke-width="0.7"
   stroke-linecap="butt"
   stroke-linejoin="miter"
   fill="none"
   transform="scale(1,-1)"
  >
<circle cx ="200" cy ="-54" r ="3" /><circle cx ="200" cy ="-24" r ="3" /><path id= "3" d=" M 190 0 L 193 0 " />
<path id= "4" d=" M 193 0 L 193 -100 " />
<path id= "5" d=" M 190 -100 L 193 -100 " />
<path id= "6" d=" M 190 0 L 190 -100 " />
<circle cx ="200" cy ="-6" r ="3" /><circle cx ="200" cy ="-18" r ="3" /><circle cx ="200" cy ="-36" r ="3" /><circle cx ="200" cy ="-72" r ="3" /><circle cx ="200" cy ="-48" r ="3" /><circle cx ="200" cy ="-12" r ="3" /><circle cx ="200" cy ="-90" r ="3" /><circle cx ="200" cy ="-42" r ="3" /><circle cx ="200" cy ="-84" r ="3" /><circle cx ="200" cy ="-30" r ="3" /><circle cx ="200" cy ="-78" r ="3" /><circle cx ="200" cy ="-66" r ="3" /><circle cx ="200" cy ="-60" r ="3" /><path id= "20" d=" M 204 0 L 207 0 " />
<path id= "21" d=" M 207 0 L 207 -100 " />
<path id= "22" d=" M 204 -100 L 207 -100 " />
<path id= "23" d=" M 204 0 L 204 -100 " />
</g>
</g>



<g id="Ortho_0_1"
   transform="rotate(90,25,30.3458) translate(25,30.3458) scale(0.5,0.5)"
  >
<g   stroke="rgb(0, 0, 0)"
   stroke-width="0.7"
   stroke-linecap="butt"
   stroke-linejoin="miter"
   fill="none"
   transform="scale(1,-1)"
  >
<path id= "1" d=" M 75 0 L 75 100 " />
<path id= "2" d=" M 75 0 L 90 0 " />
<path id= "3" d=" M 75 100 L 90 100 " />
<path id= "4" d=" M 90 0 L 90 100 " />
<path id= "5" d=" M 320 0 L 320 100 " />
<path id= "6" d=" M 90 0 L 320 0 " />
<path id= "7" d=" M 90 100 L 320 100 " />
</g>
</g>



<g id="Ortho_1_001"
   transform="rotate(-90,236,150) translate(236,150) scale(0.5,0.5)"
  >
<g   stroke="rgb(0, 0, 0)"
   stroke-width="0.7"
   stroke-linecap="butt"
   stroke-linejoin="miter"
   fill="none"
   transform="scale(1,-1)"
  >
<path id= "1" d=" M 203 100 L 203 200 " />
<path id= "2" d=" M 203 200 L 203 300 " />
</g>
<g   stroke="rgb(0, 0, 0)"
   stroke-width="0.7"
   stroke-linecap="butt"
   stroke-linejoin="miter"
   fill="none"
   transform="scale(1,-1)"
  >
<path id= "1" d=" M 190 75 L 193 75 " />
<path id= "2" d=" M 190 305 L 193 305 " />
<path id= "3" d=" M 190 75 L 190 305 " />
<path id= "4" d=" M 193 75 L 193 305 " />
<path d="M197,100 L197.075,100  L197.297,100  L197.655,100  L198.13,100  L198.698,100  L199.332,100  L200,100  L200.668,100  L201.302,100  L201.87,100  L202.345,100  L202.703,100  L202.925,100  L203,100 " /><path id= "6" d=" M 197 100 L 197 200 " />
<path d="M197,200 L197.075,200  L197.297,200  L197.655,200  L198.13,200  L198.698,200  L199.332,200  L200,200  L200.668,200  L201.302,200  L201.87,200  L202.345,200  L202.703,200  L202.925,200  L203,200 " /><path id= "8" d=" M 197 200 L 197 300 " />
<path d="M197,300 L197.075,300  L197.297,300  L197.655,300  L198.13,300  L198.698,300  L199.332,300  L200,300  L200.668,300  L201.302,300  L201.87,300  L202.345,300  L202.703,300  L202.925,300  L203,300 " /><path id= "10" d=" M 204 90 L 207 90 " />
<path id= "11" d=" M 204 320 L 207 320 " />
<path id= "12" d=" M 204 90 L 204 320 " />
<path id= "13" d=" M 207 90 L 207 320 " />
</g>
</g>



</svg>

