<?xml version="1.0" encoding="UTF-8" standalone="no"?>

<svg
	xmlns="http://www.w3.org/2000/svg" version="1.1"
	xmlns:freecad="http://www.freecadweb.org/wiki/index.php?title=Svg_Namespace"
	width="210mm"
	height="297mm"
	viewBox="0 0 210 297">
	<!-- Working space 20 10 200 287 -->
	<!-- Title block 20 227 200 287 -->
	<g>
		<rect
			id="drawing-border"
			style="fill:none;stroke:#000000;stroke-width:0.35;stroke-linecap:miter;stroke-miterlimit:4"
			width="180"
			height="277"
			x="20"
			y="10" />
			<!-- width-30, height-20 -->
		<g
			transform="translate(0,0)">
			<!-- A4 Portrait based for other formats width-210, height-297 -->
			<!--        page       rect   translation
			               w    h    rw   rh   tx   ty
			        A4-P  210  297  180  277    0    0
			        A3-L  420  297  390  277  210    0
			        A2-L  594  420  564  400  384  123
			        A1-L  841  594  811  574  631  297
			        A0-L 1189  841 1159  821  979  544
			-->
			<g
				id="titleblock-structure"
				style="fill:none;stroke:#000000;stroke-width:0.35;stroke-linecap:miter;stroke-miterlimit:4">
				<rect width="180" height="60" x="20" y="227" />
				<path d="m 20,239 h 180" />
				<path d="m 80,227 v 12" />
				<path d="m 140,239 v 48" />
				<path d="m 160,239 v 12" />
				<path d="m 180,239 v 12" />
				<path d="m 140,251 h 60" />
				<path d="m 140,275 h 60" />
				<path d="m 180,275 v 12" />
			</g>
			<g
				id="titleblock-text-non-editable"
				style="font-size:3px;text-anchor:start;fill:#000000;font-family:osifont"
				xml:space="preserve">
				<text x="21" y="230">Created by:</text>
				<text x="81" y="230">Title:</text>
				<text x="21" y="242">Supplementary information:</text>
				<text x="141" y="242">Size:</text>
				<text x="161" y="242">Sheet:</text>
				<text x="181" y="242">Scale:</text>
				<text x="141" y="254">Part number:</text>
				<text x="141" y="266">Drawing number:</text>
				<text x="141" y="278">Date:</text>
				<text x="181" y="278">Revision:</text>
			</g>
			<g
				id="titleblock-text-editable"
				style="font-size:5px;text-anchor:middle;fill:#000000;font-family:osifont"
				xml:space="preserve">
				<text freecad:editable="Author" x="50" y="236"><tspan>Antonio Gómez</tspan></text>
				<text freecad:editable="Title" x="140" y="236"><tspan>Torreta (4 canutillos de 14 cm y uno de 10)</tspan></text>
				<text freecad:editable="SI-1:" x="80" y="248"><tspan></tspan></text>
				<text freecad:editable="SI-2:" x="80" y="260"><tspan>Puente Levadizo</tspan></text>
				<text freecad:editable="SI-3:" x="80" y="272"><tspan></tspan></text>
				<text freecad:editable="SI-4:" x="80" y="284"><tspan></tspan></text>
				<text freecad:editable="Size" x="150" y="248"><tspan>A4</tspan></text>
				<text freecad:editable="Sheet" x="170" y="248"><tspan>4/5</tspan></text>
				<text freecad:editable="Scale" x="190" y="248"><tspan>1:2	</tspan></text>
				<text freecad:editable="PN" x="170" y="260"><tspan>3</tspan></text>
				<text freecad:editable="DN" x="170" y="272"><tspan>4</tspan></text>
				<text freecad:editable="Date" x="160" y="284"><tspan>09/12/17</tspan></text>
				<text freecad:editable="Revision" x="190" y="284"><tspan>A</tspan></text>
			</g>
		</g>
	</g>
<g id="Ortho_0_0"
   transform="rotate(-90,46.2639,207.27) translate(46.2639,207.27) scale(0.5,0.5)"
  >
<g   stroke="rgb(0, 0, 0)"
   stroke-width="0.7"
   stroke-linecap="butt"
   stroke-linejoin="miter"
   fill="none"
   transform="scale(1,-1)"
  >
<path id= "1" d=" M 307.225 -103 L 326.883 -103 " />
<path id= "2" d=" M 307.225 -97 L 326.883 -97 " />
<path id= "3" d=" M 200 -103 L 307.225 -103 " />
<path id= "4" d=" M 200 -97 L 307.225 -97 " />
<path id= "5" d=" M 307.225 -103 L 326.883 -103 " />
<path id= "6" d=" M 307.225 -97 L 317 -97 " />
<path id= "7" d=" M 323 -97 L 326.883 -97 " />
<path id= "8" d=" M 323 -97 L 323 -3 " />
<path id= "9" d=" M 317 -97 L 317 -3 " />
<path id= "10" d=" M 307.225 -3 L 317 -3 " />
<path id= "11" d=" M 323 -3 L 326.883 -3 " />
<path id= "12" d=" M 307.225 3 L 326.883 3 " />
<path id= "13" d=" M 307.225 -3 L 326.883 -3 " />
<path id= "14" d=" M 307.225 3 L 326.883 3 " />
<path id= "15" d=" M 200 -3 L 307.225 -3 " />
<path id= "16" d=" M 200 3 L 307.225 3 " />
</g>
<g   stroke="rgb(0, 0, 0)"
   stroke-width="0.7"
   stroke-linecap="butt"
   stroke-linejoin="miter"
   fill="none"
   transform="scale(1,-1)"
  >
<path d="M325.615 -100 A3 1.26785 -90 0 1 326.883 -103" />
<path d="M326.883 -103 A3 1.26785 -90 0 1 326.883 -97" />
<path d="M326.883 -97 A3 1.26785 -90 0 1 325.615 -100" />
<path d="M307.225,-97 L307.225,-97.0189  L307.225,-97.0752  L307.225,-97.1684  L307.225,-97.2971  L307.225,-97.4598  L307.225,-97.6545  L307.225,-97.8787  L307.225,-98.1295  L307.225,-98.4039  L307.225,-98.6983  L307.225,-99.0092  L307.225,-99.3324  L307.225,-99.6641  L307.225,-100 " /><path d="M307.225,-100 L307.225,-100.336  L307.225,-100.668  L307.225,-100.991  L307.225,-101.302  L307.225,-101.596  L307.225,-101.87  L307.225,-102.121  L307.225,-102.345  L307.225,-102.54  L307.225,-102.703  L307.225,-102.832  L307.225,-102.925  L307.225,-102.981  L307.225,-103 " /><path d="M201.268 -100 A3 1.26785 -90 0 0 200 -103" />
<path d="M200 -103 A3 1.26785 -90 0 0 200 -97" />
<path d="M200 -97 A3 1.26785 -90 0 0 201.268 -100" />
<path d="M307.225,-100 L307.225,-99.6641  L307.225,-99.3324  L307.225,-99.0092  L307.225,-98.6983  L307.225,-98.4039  L307.225,-98.1295  L307.225,-97.8787  L307.225,-97.6545  L307.225,-97.4598  L307.225,-97.2971  L307.225,-97.1684  L307.225,-97.0752  L307.225,-97.0189  L307.225,-97 " /><path d="M318.931,-98.2088 L318.931,-98.2088 " /><path d="M319.086,-98.231 L319.086,-98.231 " /><path d="M319.393,-98.3114 L319.411,-98.3178 " /><path d="M319.61,-98.4005 L319.61,-98.4005 " /><path d="M319.615,-98.4028 Q319.688,-98.4384 319.763,-98.4832 " /><path d="M320.004,-98.655 L320.03,-98.6778 " /><path d="M320.046,-98.6914 L320.046,-98.6919 " /><path d="M320.275,-98.9428 L320.275,-98.9428 " /><path d="M320.539,-99.4642 L320.545,-99.4849 " /><path d="M320.561,-99.5439 L320.562,-99.5452 " /><path d="M320.592,-99.6866 L320.596,-99.7074 " /><path d="M320.597,-99.7133 L320.605,-99.771 " /><path d="M320.618,-99.9316 L320.618,-99.9468 " /><path d="M318.317,-98.2501 L318.312,-98.2515 " /><path d="M318.212,-98.2829 L318.212,-98.2829 " /><path d="M317.439,-99.2329 L317.436,-99.2457 " /><path d="M320.619,3.67382e-16 L320.619,-0.000304483 " /><path d="M320.618,-0.0628173 L320.613,-0.148506 " /><path d="M320.359,-0.933491 L320.328,-0.981803 " /><path d="M319.97,-1.37346 L319.936,-1.39954 " /><path d="M319.885,-1.43723 L319.885,-1.43724 " /><path d="M319.812,-1.48649 L319.748,-1.52586 " /><path d="M319.601,-1.60388 L319.6,-1.60418 " /><path d="M319.561,-1.62214 L319.512,-1.64354 " /><path d="M319.511,-1.6437 L319.511,-1.6437 " /><path d="M319.362,-1.69907 L319.286,-1.72258 " /><path d="M319.092,-1.76801 Q319.02,-1.78125 318.953,-1.78881 " /><path d="M318.818,-1.79963 L318.732,-1.8016 " /><path d="M317.354,-0.0890406 L317.359,-0.20661 " /><path d="M317.574,-1.14283 L317.601,-1.19313 " /><path d="M317.374,-0.39241 C317.409,-0.719485 317.488,-0.990375 317.601,-1.19313 " /><path d="M317.374,-0.39241 C317.41,-0.728658 317.493,-1.00514 317.61,-1.20994 " /><path d="M317.688,-1.3303 L317.692,-1.33583 " /><path d="M317.388,-0.505026 Q317.471,-1.05322 317.702,-1.34824 " /><path d="M317.702,-1.34843 L317.753,-1.41032 " /><path d="M317.753,-1.41063 L317.768,-1.42665 " /><path d="M317.827,-1.48621 L317.859,-1.5146 " /><path d="M318.009,-1.62248 L318.087,-1.66442 " /><path d="M318.103,-1.67221 L318.127,-1.68323 " /><path d="M318.212,-1.71738 L318.286,-1.74129 " /><path d="M318.475,-1.78273 L318.581,-1.79523 " /><path d="M307.225,-3 L307.225,-2.92478  L307.225,-2.70291  L307.225,-2.34549  L307.225,-1.87047  L307.225,-1.30165  L307.225,-0.667563  L307.225,-3.67394e-16  L307.225,0.667563  L307.225,1.30165  L307.225,1.87047  L307.225,2.34549  L307.225,2.70291  L307.225,2.92478  L307.225,3 " /><path d="M307.225,3 L307.225,2.98114  L307.225,2.92478  L307.225,2.83165  L307.225,2.70291  L307.225,2.54017  L307.225,2.34549  L307.225,2.12132  L307.225,1.87047  L307.225,1.5961  L307.225,1.30165  L307.225,0.990837  L307.225,0.667563  L307.225,0.335893  L307.225,7.34788e-16 " /><path d="M307.225,0 L307.225,-0.335893  L307.225,-0.667563  L307.225,-0.990837  L307.225,-1.30165  L307.225,-1.5961  L307.225,-1.87047  L307.225,-2.12132  L307.225,-2.34549  L307.225,-2.54017  L307.225,-2.70291  L307.225,-2.83165  L307.225,-2.92478  L307.225,-2.98114  L307.225,-3 " /><path d="M325.615 5.51091e-16 A3 1.26785 -90 0 1 326.883 -3" />
<path d="M326.883 -3 A3 1.26785 -90 0 1 326.883 3" />
<path d="M326.883 3 A3 1.26785 -90 0 1 325.615 -1.0107e-14" />
<path d="M201.268 5.51091e-16 A3 1.26785 -90 0 0 200 -3" />
<path d="M200 -3 A3 1.26785 -90 0 0 200 3" />
<path d="M200 3 A3 1.26785 -90 0 0 201.268 -1.0107e-14" />
</g>
</g>



<g id="Ortho_1_0"
   transform="rotate(-90,173.887,207.27) translate(173.887,207.27) scale(0.5,0.5)"
  >
<g   stroke="rgb(0, 0, 0)"
   stroke-width="0.7"
   stroke-linecap="butt"
   stroke-linejoin="miter"
   fill="none"
   transform="scale(1,-1)"
  >
<path id= "1" d=" M 314.324 50 L 317.353 51.4127 " />
<path id= "2" d=" M 320.619 52.9354 L 328.151 56.4476 " />
<path id= "3" d=" M 198.732 97.2811 L 300.127 50 " />
<path id= "4" d=" M 307.225 46.6899 L 325.615 38.1145 " />
<path id= "5" d=" M 201.268 -2.71892 L 307.225 46.6899 " />
</g>
<g   stroke="rgb(0, 0, 0)"
   stroke-width="0.7"
   stroke-linecap="butt"
   stroke-linejoin="miter"
   fill="none"
   transform="scale(1,-1)"
  >
<path d="M325.615,61.8855 L325.647,61.8173  L325.741,61.6162  L325.892,61.2923  L326.093,60.8618  L326.333,60.3463  L326.601,59.7716  L326.883,59.1666  L327.165,58.5615  L327.433,57.9869  L327.674,57.4713  L327.874,57.0408  L328.025,56.7169  L328.119,56.5158  L328.151,56.4476 " /><path d="M314.324,50 L314.279,50  L314.146,50  L313.926,50  L313.621,50  L313.236,50  L312.775,50  L312.245,50  L311.651,50  L311.002,50  L310.305,50  L309.57,50  L308.805,50  L308.02,50  L307.225,50 " /><path d="M307.225,53.3101 L307.225,53.2893  L307.225,53.2271  L307.225,53.1244  L307.225,52.9823  L307.225,52.8028  L307.225,52.588  L307.225,52.3406  L307.225,52.0638  L307.225,51.7611  L307.225,51.4362  L307.225,51.0933  L307.225,50.7366  L307.225,50.3706  L307.225,50 " /><path id= "4" d=" M 307.225 53.3101 L 325.615 61.8855 " />
<path id= "5" d=" M 317.353 51.4127 L 320.619 52.9354 " />
<path d="M307.225,50 L306.431,50  L305.646,50  L304.881,50  L304.145,50  L303.449,50  L302.799,50  L302.206,50  L301.675,50  L301.215,50  L300.83,50  L300.525,50  L300.305,50  L300.171,50  L300.127,50 " /><path id= "7" d=" M 201.268 102.719 L 307.225 53.3101 " />
<path d="M201.268,102.719 L201.236,102.651  L201.142,102.45  L200.991,102.126  L200.79,101.695  L200.55,101.18  L200.282,100.605  L200,100  L199.718,99.395  L199.45,98.8203  L199.21,98.3048  L199.009,97.8743  L198.858,97.5503  L198.764,97.3492  L198.732,97.2811 " /><path d="M307.225,50 L307.225,49.6294  L307.225,49.2634  L307.225,48.9067  L307.225,48.5638  L307.225,48.2389  L307.225,47.9362  L307.225,47.6594  L307.225,47.412  L307.225,47.1972  L307.225,47.0177  L307.225,46.8756  L307.225,46.7729  L307.225,46.7107  L307.225,46.6899 " /><path id= "10" d=" M 314.324 50 L 317.353 48.5873 " />
<path id= "11" d=" M 317.353 48.5873 L 320.619 47.0646 " />
<path id= "12" d=" M 320.619 47.0646 L 328.151 43.5524 " />
<path d="M328.151,43.5524 L328.119,43.4842  L328.025,43.2831  L327.874,42.9592  L327.674,42.5287  L327.433,42.0131  L327.165,41.4385  L326.883,40.8334  L326.601,40.2284  L326.333,39.6537  L326.093,39.1382  L325.892,38.7077  L325.741,38.3838  L325.647,38.1827  L325.615,38.1145 " /><path d="M320.619 52.9354 A3 3 0 0 0 320.619 47.0646" /><path d="M317.353 48.5873 A3 3 0 0 0 317.353 51.4127" /><path d="M320.574,47.0554 L320.574,47.0554 " /><path d="M320.572,47.055 L320.556,47.0519 " /><path d="M320.551,47.0511 L320.551,47.0511 " /><path d="M320.536,47.0482 Q320.513,47.0441 320.485,47.0395 " /><path d="M320.379,47.024 L320.375,47.0235 " /><path d="M320.264,47.0116 Q320.209,47.0067 320.146,47.0036 " /><path d="M320.141,47.0033 L320.141,47.0033 " /><path d="M320.047,47.0004 L320.043,47.0003 " /><path d="M320.039,47.0003 L320.027,47.0001 " /><path d="M319.83,47.0048 Q319.722,47.011 319.616,47.0246 " /><path d="M319.402,47.0602 L319.369,47.0672 " /><path d="M319.217,47.1039 Q319.146,47.1232 319.08,47.1447 " /><path d="M318.937,47.1945 L318.843,47.2322 " /><path d="M317.522,48.3088 L317.558,48.2581 " /><path d="M317.596,48.2059 L317.621,48.1725 " /><path d="M317.747,48.0188 L317.795,47.966 " /><path d="M317.844,47.9144 L317.9,47.858 " /><path d="M318.044,47.7257 L318.048,47.7216 " /><path d="M318.662,47.3147 L318.689,47.3016 " /><path d="M317.702,51.9284 L317.67,51.8901 " /><path d="M317.617,51.823 L317.598,51.7968 " /><path d="M317.362,51.4291 Q317.354,51.4131 317.353,51.4127 " /><path d="M318.888,52.7863 L318.909,52.7945 " /><path d="M319.283,52.9131 L319.283,52.9131 " /><path d="M319.321,52.9221 L319.352,52.9292 " /><path d="M319.382,52.9357 L319.382,52.9357 " /><path d="M319.407,52.9408 L319.448,52.9489 " /><path d="M319.452,52.9494 L319.452,52.9495 " /><path d="M319.741,52.9888 L319.745,52.9891 " /><path d="M319.749,52.9895 L319.761,52.9905 " /><path d="M319.761,52.9905 L319.787,52.9925 " /><path d="M320.177,52.9948 L320.179,52.9947 " /><path d="M320.179,52.9946 Q320.315,52.986 320.423,52.97 " /><path d="M320.177,52.9948 Q320.326,52.9852 320.443,52.9672 " /><path id= "50" d=" M 198.732 2.71892 L 300.127 50 " />
<path d="M198.732,2.71892 L198.764,2.65075  L198.858,2.44967  L199.009,2.12574  L199.21,1.69522  L199.45,1.1797  L199.718,0.605017  L200,1.66486e-16  L200.282,-0.605017  L200.55,-1.1797  L200.79,-1.69522  L200.991,-2.12574  L201.142,-2.44967  L201.236,-2.65075  L201.268,-2.71892 " /></g>
</g>



<g id="Ortho_0_-1"
   transform="rotate(90,46.2639,192.457) translate(46.2639,192.457) scale(0.5,0.5)"
  >
<g   stroke="rgb(0, 0, 0)"
   stroke-width="0.7"
   stroke-linecap="butt"
   stroke-linejoin="miter"
   fill="none"
   transform="scale(1,-1)"
  >
<path id= "1" d=" M -100 97 L -50 97 " />
<path id= "2" d=" M -100 103 L -50 103 " />
<path id= "3" d=" M -47 97 L -47 3 " />
<path id= "4" d=" M -2.97354e-17 103 L -50 103 " />
<path id= "5" d=" M 8.92063e-17 97 L -50 97 " />
<path id= "6" d=" M -2.97354e-17 3 L -50 3 " />
<path id= "7" d=" M 8.92063e-17 -3 L -50 -3 " />
<path id= "8" d=" M -100 -3 L -50 -3 " />
<path id= "9" d=" M -100 3 L -50 3 " />
</g>
<g   stroke="rgb(0, 0, 0)"
   stroke-width="0.7"
   stroke-linecap="butt"
   stroke-linejoin="miter"
   fill="none"
   transform="scale(1,-1)"
  >
<path d="M-50,100 L-50,100.336  L-50,100.668  L-50,100.991  L-50,101.302  L-50,101.596  L-50,101.87  L-50,102.121  L-50,102.345  L-50,102.54  L-50,102.703  L-50,102.832  L-50,102.925  L-50,102.981  L-50,103 " /><path d="M-50,103 L-50,102.981  L-50,102.925  L-50,102.832  L-50,102.703  L-50,102.54  L-50,102.345  L-50,102.121  L-50,101.87  L-50,101.596  L-50,101.302  L-50,100.991  L-50,100.668  L-50,100.336  L-50,100 " /><path d="M-50,100 L-50,99.6641  L-50,99.3324  L-50,99.0092  L-50,98.6983  L-50,98.4039  L-50,98.1295  L-50,97.8787  L-50,97.6545  L-50,97.4598  L-50,97.2971  L-50,97.1684  L-50,97.0752  L-50,97.0189  L-50,97 " /><path d="M-102.719 100 A3 2.71892 -90 0 0 -100 103" />
<path d="M-100 103 A3 2.71892 -90 0 0 -100 97" />
<path d="M-100 97 A3 2.71892 -90 0 0 -102.719 100" />
<path id= "7" d=" M -53 97 L -53 3 " />
<path d="M-2.71892 100 A3 2.71892 90 0 0 -6.65944e-16 103" />
<path d="M0 103 A3 2.71892 90 0 0 3.32972e-16 97" />
<path d="M3.32972e-16 97 A3 2.71892 90 0 0 -2.71892 100" />
<path d="M-50,0 L-50,-0.335893  L-50,-0.667563  L-50,-0.990837  L-50,-1.30165  L-50,-1.5961  L-50,-1.87047  L-50,-2.12132  L-50,-2.34549  L-50,-2.54017  L-50,-2.70291  L-50,-2.83165  L-50,-2.92478  L-50,-2.98114  L-50,-3 " /><path d="M-50,-1.69966e-15 L-50,0.335893  L-50,0.667563  L-50,0.990837  L-50,1.30165  L-50,1.5961  L-50,1.87047  L-50,2.12132  L-50,2.34549  L-50,2.54017  L-50,2.70291  L-50,2.83165  L-50,2.92478  L-50,2.98114  L-50,3 " /><path d="M-50,-3 L-50,-2.98114  L-50,-2.92478  L-50,-2.83165  L-50,-2.70291  L-50,-2.54017  L-50,-2.34549  L-50,-2.12132  L-50,-1.87047  L-50,-1.5961  L-50,-1.30165  L-50,-0.990837  L-50,-0.667563  L-50,-0.335893  L-50,-1.69966e-15 " /><path d="M-2.71892 -5.51091e-16 A3 2.71892 90 0 0 -6.65944e-16 3" />
<path d="M0 3 A3 2.71892 90 0 0 3.32972e-16 -3" />
<path d="M3.32972e-16 -3 A3 2.71892 90 0 0 -2.71892 1.0107e-14" />
<path d="M-102.719 -1.83697e-16 A3 2.71892 -90 0 0 -100 3" />
<path d="M-100 3 A3 2.71892 -90 0 0 -100 -3" />
<path d="M-100 -3 A3 2.71892 -90 0 0 -102.719 1.04744e-14" />
</g>
</g>



</svg>

