<?xml version="1.0" encoding="UTF-8" standalone="no"?>
<svg
   xmlns:dc="http://purl.org/dc/elements/1.1/"
   xmlns:cc="http://creativecommons.org/ns#"
   xmlns:rdf="http://www.w3.org/1999/02/22-rdf-syntax-ns#"
   xmlns:svg="http://www.w3.org/2000/svg"
   xmlns="http://www.w3.org/2000/svg"
   version="1.1"
   id="svg2"
   viewBox="0 0 744.09448819 1052.3622047"
   height="297mm"
   width="210mm">
  <defs
     id="defs4" />
  <metadata
     id="metadata7">
    <rdf:RDF>
      <cc:Work
         rdf:about="">
        <dc:format>image/svg+xml</dc:format>
        <dc:type
           rdf:resource="http://purl.org/dc/dcmitype/StillImage" />
        <dc:title></dc:title>
      </cc:Work>
    </rdf:RDF>
  </metadata>
  <g
     id="layer1">
    <g
       id="text3365"
       style="font-style:normal;font-weight:normal;font-size:60.82455063px;line-height:125%;font-family:Sans;text-align:center;letter-spacing:0px;word-spacing:0px;writing-mode:lr-tb;text-anchor:middle;fill:#000000;fill-opacity:1;stroke:none;stroke-width:1px;stroke-linecap:butt;stroke-linejoin:miter;stroke-opacity:1"
       transform="scale(0.51933975,1.9255218)">
      <path
         id="path3370"
         style="font-style:normal;font-variant:normal;font-weight:bold;font-stretch:normal;font-family:Sans;-inkscape-font-specification:'Sans Bold'"
         d="m 305.89182,150.39019 q -3.14815,1.63347 -6.56359,2.46506 -3.41544,0.83158 -7.12788,0.83158 -11.0779,0 -17.55239,-6.17749 -6.47449,-6.20719 -6.47449,-16.80991 0,-10.63242 6.47449,-16.80991 6.47449,-6.20719 17.55239,-6.20719 3.71244,0 7.12788,0.83158 3.41544,0.83159 6.56359,2.46506 l 0,9.17714 q -3.17785,-2.16806 -6.26659,-3.17785 -3.08875,-1.00978 -6.50419,-1.00978 -6.1181,0 -9.62263,3.92033 -3.50454,3.92034 -3.50454,10.81062 0,6.86058 3.50454,10.78091 3.50453,3.92033 9.62263,3.92033 3.41544,0 6.50419,-1.00978 3.08874,-1.00978 6.26659,-3.17784 l 0,9.17714 z" />
      <path
         id="path3372"
         style="font-style:normal;font-variant:normal;font-weight:bold;font-stretch:normal;font-family:Sans;-inkscape-font-specification:'Sans Bold'"
         d="m 315.39566,108.48421 11.4343,0 0,35.69879 20.07685,0 0,8.64255 -31.51115,0 0,-44.34134 z" />
      <path
         id="path3374"
         style="font-style:normal;font-variant:normal;font-weight:bold;font-stretch:normal;font-family:Sans;-inkscape-font-specification:'Sans Bold'"
         d="m 381.03153,144.74729 -17.8791,0 -2.82145,8.07826 -11.4937,0 16.42382,-44.34134 13.63206,0 16.42382,44.34134 -11.4937,0 -2.79175,-8.07826 z m -15.02795,-8.22676 12.14709,0 -6.05869,-17.6415 -6.0884,17.6415 z" />
      <path
         id="path3376"
         style="font-style:normal;font-variant:normal;font-weight:bold;font-stretch:normal;font-family:Sans;-inkscape-font-specification:'Sans Bold'"
         d="m 432.02555,109.88009 0,9.38504 q -3.65304,-1.63348 -7.12788,-2.46506 -3.47484,-0.83159 -6.56359,-0.83159 -4.09853,0 -6.05869,1.12858 -1.96017,1.12858 -1.96017,3.50454 0,1.78197 1.30678,2.79175 1.33648,0.98009 4.81132,1.69287 l 4.87071,0.98009 q 7.39518,1.48497 10.51362,4.51432 3.11845,3.02935 3.11845,8.61285 0,7.33577 -4.36583,10.92941 -4.33612,3.56394 -13.27567,3.56394 -4.21733,0 -8.46435,-0.80188 -4.24703,-0.80189 -8.49406,-2.37596 l 0,-9.65234 q 4.24703,2.25716 8.19706,3.41544 3.97973,1.12858 7.66247,1.12858 3.74214,0 5.732,-1.24737 1.98987,-1.24738 1.98987,-3.56394 0,-2.07897 -1.36618,-3.20755 -1.33648,-1.12858 -5.37561,-2.01956 l -4.42522,-0.98009 q -6.65268,-1.42557 -9.74143,-4.54402 -3.05905,-3.11844 -3.05905,-8.40495 0,-6.62299 4.27673,-10.18693 4.27672,-3.56393 12.29559,-3.56393 3.65303,0 7.51397,0.56429 3.86093,0.53459 7.98916,1.63347 z" />
      <path
         id="path3378"
         style="font-style:normal;font-variant:normal;font-weight:bold;font-stretch:normal;font-family:Sans;-inkscape-font-specification:'Sans Bold'"
         d="m 445.00422,108.48421 30.85777,0 0,8.64255 -19.42347,0 0,8.25646 18.26519,0 0,8.64255 -18.26519,0 0,10.15723 20.07686,0 0,8.64255 -31.51116,0 0,-44.34134 z" />
      <path
         id="path3380"
         style="font-style:normal;font-variant:normal;font-weight:bold;font-stretch:normal;font-family:Sans;-inkscape-font-specification:'Sans Bold'"
         d="m 519.16384,117.12676 0,27.05624 4.09852,0 q 7.00908,0 10.69182,-3.47484 3.71244,-3.47484 3.71244,-10.09783 0,-6.59329 -3.68274,-10.03843 -3.68274,-3.44514 -10.72152,-3.44514 l -4.09852,0 z m -11.43431,-8.64255 12.05799,0 q 10.09783,0 15.02795,1.45528 4.95981,1.42557 8.49405,4.87071 3.11845,2.99965 4.63312,6.91998 1.51467,3.92034 1.51467,8.88015 0,5.01921 -1.51467,8.96924 -1.51467,3.92034 -4.63312,6.91999 -3.56394,3.44514 -8.55345,4.90041 -4.98952,1.42558 -14.96855,1.42558 l -12.05799,0 0,-44.34134 z" />
      <path
         id="path3382"
         style="font-style:normal;font-variant:normal;font-weight:bold;font-stretch:normal;font-family:Sans;-inkscape-font-specification:'Sans Bold'"
         d="m 558.21865,108.48421 30.85777,0 0,8.64255 -19.42346,0 0,8.25646 18.26518,0 0,8.64255 -18.26518,0 0,10.15723 20.07685,0 0,8.64255 -31.51116,0 0,-44.34134 z" />
      <path
         id="path3384"
         style="font-style:normal;font-variant:normal;font-weight:bold;font-stretch:normal;font-family:Sans;-inkscape-font-specification:'Sans Bold'"
         d="m 620.94396,108.48421 18.97798,0 q 8.46435,0 12.97867,3.77184 4.54402,3.74213 4.54402,10.69181 0,6.97938 -4.54402,10.75122 -4.51432,3.74213 -12.97867,3.74213 l -7.54367,0 0,15.38434 -11.43431,0 0,-44.34134 z m 11.43431,8.28616 0,12.38468 6.32599,0 q 3.32634,0 5.13801,-1.60377 1.81167,-1.63347 1.81167,-4.60342 0,-2.96995 -1.81167,-4.57372 -1.81167,-1.60377 -5.13801,-1.60377 l -6.32599,0 z" />
      <path
         id="path3386"
         style="font-style:normal;font-variant:normal;font-weight:bold;font-stretch:normal;font-family:Sans;-inkscape-font-specification:'Sans Bold'"
         d="m 665.49322,108.48421 11.4343,0 0,44.34134 -11.4343,0 0,-44.34134 z" />
      <path
         id="path3388"
         style="font-style:normal;font-variant:normal;font-weight:bold;font-stretch:normal;font-family:Sans;-inkscape-font-specification:'Sans Bold'"
         d="m 688.18362,108.48421 11.4343,0 0,35.69879 20.07686,0 0,8.64255 -31.51116,0 0,-44.34134 z" />
      <path
         id="path3390"
         style="font-style:normal;font-variant:normal;font-weight:bold;font-stretch:normal;font-family:Sans;-inkscape-font-specification:'Sans Bold'"
         d="m 753.81947,144.74729 -17.87909,0 -2.82145,8.07826 -11.4937,0 16.42382,-44.34134 13.63206,0 16.42382,44.34134 -11.4937,0 -2.79176,-8.07826 z m -15.02794,-8.22676 12.14709,0 -6.05869,-17.6415 -6.0884,17.6415 z" />
      <path
         id="path3392"
         style="font-style:normal;font-variant:normal;font-weight:bold;font-stretch:normal;font-family:Sans;-inkscape-font-specification:'Sans Bold'"
         d="m 790.20136,128.14527 q 3.59364,0 5.13802,-1.33647 1.57407,-1.33648 1.57407,-4.39553 0,-3.02935 -1.57407,-4.33612 -1.54438,-1.30678 -5.13802,-1.30678 l -4.81131,0 0,11.3749 4.81131,0 z m -4.81131,7.90007 0,16.78021 -11.43431,0 0,-44.34134 17.4633,0 q 8.76135,0 12.83018,2.94025 4.09853,2.94025 4.09853,9.29594 0,4.39552 -2.13836,7.21698 -2.10867,2.82145 -6.38539,4.15792 2.34626,0.53459 4.18763,2.43536 1.87106,1.87107 3.77183,5.7023 l 6.20719,12.59259 -12.17679,0 -5.4053,-11.01851 q -1.63347,-3.32635 -3.32635,-4.54403 -1.66317,-1.21767 -4.45492,-1.21767 l -3.23724,0 z" />
    </g>
  </g>
</svg>
