<?xml version="1.0" encoding="UTF-8" standalone="no"?>
<!-- Created with Inkscape (http://www.inkscape.org/) -->

<svg
   xmlns:dc="http://purl.org/dc/elements/1.1/"
   xmlns:cc="http://creativecommons.org/ns#"
   xmlns:rdf="http://www.w3.org/1999/02/22-rdf-syntax-ns#"
   xmlns:svg="http://www.w3.org/2000/svg"
   xmlns="http://www.w3.org/2000/svg"
   version="1.1"
   width="210mm"
   height="297mm"
   id="svg3135">
  <defs
     id="defs3137" />
  <metadata
     id="metadata3140">
    <rdf:RDF>
      <cc:Work
         rdf:about="">
        <dc:format>image/svg+xml</dc:format>
        <dc:type
           rdf:resource="http://purl.org/dc/dcmitype/StillImage" />
        <dc:title></dc:title>
      </cc:Work>
    </rdf:RDF>
  </metadata>
  <g
     id="layer1">
    <g
       transform="scale(0.77893343,1.2838068)"
       id="text3143"
       style="font-size:53.49350739px;font-style:normal;font-variant:normal;font-weight:normal;font-stretch:normal;line-height:125%;letter-spacing:0px;word-spacing:0px;fill:#000000;fill-opacity:1;stroke:none;font-family:DejaVu Sans;-inkscape-font-specification:DejaVu Sans">
      <path
         d="m 279.87887,379.49712 c -1.84583,0.95773 -3.77,1.68038 -5.77249,2.16795 -2.00255,0.48757 -4.09214,0.73135 -6.26877,0.73135 -6.49516,0 -11.64077,-1.81097 -15.43685,-5.43293 -3.79609,-3.63936 -5.69413,-8.56731 -5.69413,-14.78385 0,-6.23392 1.89804,-11.16186 5.69413,-14.78385 3.79608,-3.63933 8.94169,-5.45902 15.43685,-5.45906 2.17663,4e-5 4.26622,0.24383 6.26877,0.73136 2.00249,0.48761 3.92666,1.21026 5.77249,2.16795 l 0,8.07104 c -1.86325,-1.27114 -3.70034,-2.20274 -5.51129,-2.79482 -1.81101,-0.59202 -3.71775,-0.88805 -5.72025,-0.88808 -3.58715,3e-5 -6.4081,1.14931 -8.46284,3.44782 -2.05478,2.29858 -3.08216,5.46779 -3.08215,9.50764 -1e-5,4.02247 1.02737,7.18298 3.08215,9.48151 2.05474,2.29856 4.87569,3.44783 8.46284,3.44783 2.0025,0 3.90924,-0.29602 5.72025,-0.88808 1.81095,-0.59204 3.64804,-1.52365 5.51129,-2.79483 l 0,8.07105"
         id="path3148"
         style="font-weight:bold;-inkscape-font-specification:DejaVu Sans Bold" />
      <path
         d="m 287.81932,340.99642 9.35091,0 0,40.64253 -9.35091,0 0,-40.64253"
         id="path3150"
         style="font-weight:bold;-inkscape-font-specification:DejaVu Sans Bold" />
      <path
         d="m 319.31989,368.47453 c -1.9503,10e-6 -3.42172,0.33086 -4.41426,0.99255 -0.97515,0.66172 -1.46273,1.63686 -1.46271,2.92543 -2e-5,1.18411 0.39178,2.11572 1.17539,2.79483 0.801,0.66171 1.90674,0.99256 3.31723,0.99255 1.75872,10e-6 3.23884,-0.62687 4.44037,-1.88063 1.2015,-1.27116 1.80225,-2.85576 1.80228,-4.75382 l 0,-1.07091 -4.8583,0 m 14.28757,-3.52618 0,16.6906 -9.42927,0 0,-4.3359 c -1.25378,1.77615 -2.66425,3.07344 -4.23142,3.89186 -1.56721,0.80101 -3.47396,1.20151 -5.72026,1.20151 -3.02991,0 -5.49389,-0.87937 -7.39192,-2.6381 -1.88064,-1.77615 -2.82095,-4.0747 -2.82095,-6.89565 0,-3.4304 1.17539,-5.94661 3.52618,-7.54865 2.3682,-1.602 6.07722,-2.40301 11.12707,-2.40303 l 5.5113,0 0,-0.73135 c -3e-5,-1.48011 -0.58337,-2.55973 -1.75004,-3.23887 -1.1667,-0.6965 -2.98639,-1.04477 -5.45905,-1.04479 -2.00254,2e-5 -3.86575,0.20027 -5.58965,0.60076 -1.72392,0.40052 -3.32594,1.00128 -4.80606,1.80227 l 0,-7.13073 c 2.00252,-0.48754 4.01374,-0.85322 6.03369,-1.09703 2.01992,-0.26117 4.03986,-0.39177 6.05981,-0.3918 5.27619,3e-5 9.08099,1.04482 11.41439,3.13438 2.35076,2.0722 3.52615,5.45037 3.52618,10.13452"
         id="path3152"
         style="font-weight:bold;-inkscape-font-specification:DejaVu Sans Bold" />
      <path
         d="m 365.21252,353.29888 0,7.10461 c -2.00255,-0.83582 -3.93542,-1.46269 -5.79862,-1.88063 -1.86323,-0.4179 -3.62197,-0.62686 -5.27621,-0.62688 -1.77617,2e-5 -3.09957,0.22639 -3.97022,0.67912 -0.85326,0.43535 -1.27989,1.11447 -1.27988,2.03735 -10e-6,0.74879 0.32214,1.32342 0.96644,1.72391 0.66169,0.40052 1.83708,0.69655 3.52618,0.88807 l 1.64555,0.23508 c 4.78863,0.60948 8.01007,1.61074 9.66436,3.00379 1.65423,1.39307 2.48136,3.57843 2.48139,6.55609 -3e-5,3.11697 -1.14931,5.45905 -3.44783,7.02624 -2.29857,1.5672 -5.72898,2.35079 -10.29123,2.35079 -1.93288,0 -3.9354,-0.15672 -6.00757,-0.47015 -2.05477,-0.29603 -4.17048,-0.74877 -6.34713,-1.35824 l 0,-7.1046 c 1.86321,0.90549 3.76996,1.58461 5.72025,2.03735 1.96769,0.45275 3.96151,0.67912 5.98146,0.67911 1.82837,10e-6 3.20402,-0.25248 4.12694,-0.75747 0.92288,-0.50498 1.38433,-1.25375 1.38435,-2.24631 -2e-5,-0.83583 -0.32217,-1.454 -0.96644,-1.85451 -0.62689,-0.41791 -1.88935,-0.74006 -3.78738,-0.96644 l -1.64555,-0.20896 c -4.16178,-0.52238 -7.07849,-1.48882 -8.75016,-2.89931 -1.67168,-1.41045 -2.50751,-3.55228 -2.50751,-6.42549 0,-3.09953 1.06221,-5.39808 3.18663,-6.89564 2.12441,-1.49751 5.38068,-2.24628 9.76883,-2.24631 1.7239,3e-5 3.53487,0.13063 5.43294,0.3918 1.89802,0.26122 3.96149,0.67044 6.19041,1.22763"
         id="path3154"
         style="font-weight:bold;-inkscape-font-specification:DejaVu Sans Bold" />
      <path
         d="m 403.42589,366.93346 0,2.66422 -21.86234,0 c 0.22636,2.19408 1.01866,3.83963 2.37691,4.93666 1.35822,1.09704 3.25626,1.64556 5.69413,1.64555 1.96768,10e-6 3.97891,-0.28731 6.03369,-0.86195 2.07215,-0.59205 4.19657,-1.48012 6.37325,-2.66423 l 0,7.20908 c -2.21151,0.83584 -4.42299,1.46272 -6.63444,1.88064 -2.21151,0.43533 -4.42299,0.65299 -6.63445,0.65299 -5.29365,0 -9.41187,-1.34082 -12.3547,-4.02246 -2.92543,-2.69905 -4.38815,-6.47772 -4.38814,-11.33602 -1e-5,-4.77122 1.43659,-8.52377 4.30978,-11.25767 2.89059,-2.73385 6.8608,-4.10079 11.91066,-4.10082 4.59707,3e-5 8.27127,1.38438 11.02259,4.15306 2.76867,2.76873 4.15302,6.46904 4.15306,11.10095 m -9.61212,-3.10827 c -2e-5,-1.77613 -0.52242,-3.20402 -1.56719,-4.28366 -1.0274,-1.09701 -2.37693,-1.64553 -4.04858,-1.64555 -1.811,2e-5 -3.28241,0.51371 -4.41426,1.54107 -1.13187,1.00999 -1.83711,2.4727 -2.11571,4.38814 l 12.14574,0"
         id="path3156"
         style="font-weight:bold;-inkscape-font-specification:DejaVu Sans Bold" />
      <path
         d="m 448.97896,356.66834 0,-15.67192 9.40315,0 0,40.64253 -9.40315,0 0,-4.23142 c -1.28861,1.72391 -2.70778,2.98637 -4.25754,3.78738 -1.5498,0.80101 -3.34336,1.20151 -5.3807,1.20151 -3.60455,0 -6.5648,-1.42788 -8.88076,-4.28366 -2.31596,-2.87318 -3.47394,-6.56478 -3.47394,-11.07482 0,-4.51002 1.15798,-8.19292 3.47394,-11.04871 2.31596,-2.87316 5.27621,-4.30975 8.88076,-4.30978 2.01992,3e-5 3.80478,0.40924 5.35458,1.22763 1.56717,0.80104 2.99505,2.05479 4.28366,3.76126 m -6.16429,18.93692 c 2.0025,0 3.52616,-0.73135 4.57097,-2.19407 1.06219,-1.46271 1.59329,-3.58712 1.59332,-6.37325 -3e-5,-2.78611 -0.53113,-4.91052 -1.59332,-6.37325 -1.04481,-1.4627 -2.56847,-2.19405 -4.57097,-2.19407 -1.98513,2e-5 -3.50879,0.73137 -4.57098,2.19407 -1.04481,1.46273 -1.56721,3.58714 -1.56719,6.37325 -2e-5,2.78613 0.52238,4.91054 1.56719,6.37325 1.06219,1.46272 2.58585,2.19407 4.57098,2.19407"
         id="path3158"
         style="font-weight:bold;-inkscape-font-specification:DejaVu Sans Bold" />
      <path
         d="m 496.62161,366.93346 0,2.66422 -21.86233,0 c 0.22636,2.19408 1.01866,3.83963 2.3769,4.93666 1.35822,1.09704 3.25626,1.64556 5.69414,1.64555 1.96767,10e-6 3.9789,-0.28731 6.03369,-0.86195 2.07215,-0.59205 4.19656,-1.48012 6.37325,-2.66423 l 0,7.20908 c -2.21151,0.83584 -4.42299,1.46272 -6.63445,1.88064 -2.21151,0.43533 -4.42299,0.65299 -6.63445,0.65299 -5.29364,0 -9.41187,-1.34082 -12.3547,-4.02246 -2.92543,-2.69905 -4.38814,-6.47772 -4.38814,-11.33602 0,-4.77122 1.43659,-8.52377 4.30978,-11.25767 2.89059,-2.73385 6.86081,-4.10079 11.91066,-4.10082 4.59708,3e-5 8.27127,1.38438 11.02259,4.15306 2.76868,2.76873 4.15303,6.46904 4.15306,11.10095 m -9.61211,-3.10827 c -3e-5,-1.77613 -0.52242,-3.20402 -1.56719,-4.28366 -1.02741,-1.09701 -2.37693,-1.64553 -4.04859,-1.64555 -1.81099,2e-5 -3.28241,0.51371 -4.41425,1.54107 -1.13188,1.00999 -1.83712,2.4727 -2.11571,4.38814 l 12.14574,0"
         id="path3160"
         style="font-weight:bold;-inkscape-font-specification:DejaVu Sans Bold" />
      <path
         d="m 522.68924,342.64197 16.6906,0 c 4.96275,4e-5 8.76754,1.10578 11.41439,3.31723 2.66419,2.1941 3.9963,5.32848 3.99634,9.40315 -4e-5,4.09214 -1.33215,7.24393 -3.99634,9.4554 -2.64685,2.19408 -6.45164,3.29111 -11.41439,3.2911 l -6.63445,0 0,13.5301 -10.05615,0 0,-38.99698 m 10.05615,7.28745 0,10.89198 5.56353,0 c 1.95027,3e-5 3.45651,-0.47013 4.51874,-1.41047 1.06219,-0.9577 1.59329,-2.30723 1.59332,-4.04858 -3e-5,-1.7413 -0.53113,-3.08212 -1.59332,-4.02246 -1.06223,-0.94028 -2.56847,-1.41044 -4.51874,-1.41047 l -5.56353,0"
         id="path3162"
         style="font-weight:bold;-inkscape-font-specification:DejaVu Sans Bold" />
      <path
         d="m 561.45113,352.38468 9.35092,0 0,29.25427 -9.35092,0 0,-29.25427 m 0,-11.38826 9.35092,0 0,7.627 -9.35092,0 0,-7.627"
         id="path3164"
         style="font-weight:bold;-inkscape-font-specification:DejaVu Sans Bold" />
      <path
         d="m 579.83953,340.99642 9.35091,0 0,40.64253 -9.35091,0 0,-40.64253"
         id="path3166"
         style="font-weight:bold;-inkscape-font-specification:DejaVu Sans Bold" />
      <path
         d="m 611.3401,368.47453 c -1.9503,10e-6 -3.42172,0.33086 -4.41426,0.99255 -0.97515,0.66172 -1.46272,1.63686 -1.46271,2.92543 -10e-6,1.18411 0.39179,2.11572 1.17539,2.79483 0.801,0.66171 1.90674,0.99256 3.31723,0.99255 1.75872,10e-6 3.23884,-0.62687 4.44038,-1.88063 1.20149,-1.27116 1.80225,-2.85576 1.80227,-4.75382 l 0,-1.07091 -4.8583,0 m 14.28758,-3.52618 0,16.6906 -9.42928,0 0,-4.3359 c -1.25378,1.77615 -2.66425,3.07344 -4.23142,3.89186 -1.56721,0.80101 -3.47396,1.20151 -5.72025,1.20151 -3.02992,0 -5.49389,-0.87937 -7.39193,-2.6381 -1.88063,-1.77615 -2.82095,-4.0747 -2.82095,-6.89565 0,-3.4304 1.1754,-5.94661 3.52619,-7.54865 2.36819,-1.602 6.07721,-2.40301 11.12707,-2.40303 l 5.51129,0 0,-0.73135 c -2e-5,-1.48011 -0.58337,-2.55973 -1.75003,-3.23887 -1.16671,-0.6965 -2.98639,-1.04477 -5.45906,-1.04479 -2.00253,2e-5 -3.86575,0.20027 -5.58965,0.60076 -1.72392,0.40052 -3.32594,1.00128 -4.80606,1.80227 l 0,-7.13073 c 2.00252,-0.48754 4.01375,-0.85322 6.03369,-1.09703 2.01993,-0.26117 4.03986,-0.39177 6.05982,-0.3918 5.27619,3e-5 9.08098,1.04482 11.41438,3.13438 2.35076,2.0722 3.52615,5.45037 3.52619,10.13452"
         id="path3168"
         style="font-weight:bold;-inkscape-font-specification:DejaVu Sans Bold" />
      <path
         d="m 656.10956,360.35125 c -0.81844,-0.38307 -1.63687,-0.66168 -2.45526,-0.83584 -0.80104,-0.19152 -1.61075,-0.2873 -2.42915,-0.28732 -2.40305,2e-5 -4.25756,0.77491 -5.56354,2.32467 -1.28859,1.53239 -1.93288,3.73516 -1.93287,6.60833 l 0,13.47786 -9.35091,0 0,-29.25427 9.35091,0 0,4.80606 c 1.2015,-1.91543 2.57715,-3.30849 4.12694,-4.17918 1.56718,-0.88804 3.4391,-1.33208 5.61578,-1.33211 0.31341,3e-5 0.65297,0.0174 1.01867,0.0522 0.36566,0.0174 0.89676,0.0697 1.59331,0.15672 l 0.0261,8.46284"
         id="path3170"
         style="font-weight:bold;-inkscape-font-specification:DejaVu Sans Bold" />
    </g>
  </g>
</svg>
