<?xml version="1.0" encoding="UTF-8" standalone="no"?>
<!-- Created with Inkscape (http://www.inkscape.org/) -->

<svg
   xmlns:dc="http://purl.org/dc/elements/1.1/"
   xmlns:cc="http://creativecommons.org/ns#"
   xmlns:rdf="http://www.w3.org/1999/02/22-rdf-syntax-ns#"
   xmlns:svg="http://www.w3.org/2000/svg"
   xmlns="http://www.w3.org/2000/svg"
   version="1.1"
   width="210mm"
   height="297mm"
   id="svg2">
  <defs
     id="defs4" />
  <metadata
     id="metadata7">
    <rdf:RDF>
      <cc:Work
         rdf:about="">
        <dc:format>image/svg+xml</dc:format>
        <dc:type
           rdf:resource="http://purl.org/dc/dcmitype/StillImage" />
        <dc:title></dc:title>
      </cc:Work>
    </rdf:RDF>
  </metadata>
  <g
     id="layer1">
    <text
       x="471.42856"
       y="598.07648"
       id="text2985"
       xml:space="preserve"
       style="font-size:72px;font-style:normal;font-variant:normal;font-weight:bold;font-stretch:normal;line-height:125%;letter-spacing:0px;word-spacing:0px;fill:#000000;fill-opacity:1;stroke:none;font-family:Allura;-inkscape-font-specification:Sans Bold"><tspan
         x="471.42856"
         y="598.07648"
         id="tspan2987" /></text>
    <g
       transform="scale(0.54822764,1.8240598)"
       id="text2993"
       style="font-size:54.33675385px;font-style:normal;font-variant:normal;font-weight:bold;font-stretch:normal;line-height:125%;letter-spacing:0px;word-spacing:0px;fill:#000000;fill-opacity:1;stroke:none;font-family:Allura;-inkscape-font-specification:Sans Bold">
      <g
         transform="scale(1.0161007,0.98415438)"
         id="text3083"
         style="font-size:38.25590134px;font-weight:normal;line-height:125%;fill:#000000;font-family:DejaVu Sans;-inkscape-font-specification:DejaVu Sans">
        <path
           d="m 421.92296,126.41921 c -1.32005,0.68492 -2.69612,1.20173 -4.1282,1.55041 -1.43213,0.34869 -2.9265,0.52303 -4.48311,0.52303 -4.64502,0 -8.32491,-1.29512 -11.03967,-3.88536 -2.71478,-2.60269 -4.07216,-6.12691 -4.07216,-10.57268 0,-4.45819 1.35738,-7.98241 4.07216,-10.57267 2.71476,-2.60267 6.39465,-3.90402 11.03967,-3.904049 1.55661,2.9e-5 3.05098,0.174372 4.48311,0.523029 1.43208,0.34872 2.80815,0.86552 4.1282,1.55041 l 0,5.77201 c -1.33251,-0.90905 -2.64631,-1.57529 -3.9414,-1.99872 -1.29515,-0.42338 -2.65876,-0.63509 -4.09085,-0.63511 -2.56535,2e-5 -4.58275,0.82193 -6.0522,2.46571 -1.46947,1.64383 -2.20421,3.91029 -2.2042,6.79939 -1e-5,2.87668 0.73473,5.13691 2.2042,6.78071 1.46945,1.64381 3.48685,2.46572 6.0522,2.46571 1.43209,1e-5 2.7957,-0.21169 4.09085,-0.6351 1.29509,-0.4234 2.60889,-1.08964 3.9414,-1.99873 l 0,5.77201"
           id="path3088"
           style="font-weight:bold;-inkscape-font-specification:DejaVu Sans Bold" />
        <path
           d="m 427.60157,98.885424 6.68731,0 0,29.065516 -6.68731,0 0,-29.065516"
           id="path3090"
           style="font-weight:bold;-inkscape-font-specification:DejaVu Sans Bold" />
        <path
           d="m 450.12922,118.5364 c -1.39476,1e-5 -2.44705,0.23662 -3.15686,0.70983 -0.69739,0.47323 -1.04607,1.1706 -1.04606,2.09212 -1e-5,0.84682 0.28018,1.51306 0.84058,1.99872 0.57283,0.47322 1.3636,0.70983 2.37231,0.70983 1.25775,0 2.31627,-0.44831 3.17554,-1.34494 0.85925,-0.90907 1.28888,-2.0423 1.2889,-3.39969 l 0,-0.76587 -3.47441,0 m 10.21776,-2.52175 0,11.93629 -6.74335,0 0,-3.10082 c -0.89664,1.27022 -1.90534,2.19797 -3.0261,2.78327 -1.12079,0.57284 -2.48441,0.85926 -4.09084,0.85926 -2.16685,0 -3.92896,-0.62888 -5.28634,-1.88664 -1.34494,-1.27021 -2.0174,-2.91402 -2.0174,-4.93143 0,-2.45325 0.84058,-4.25272 2.52175,-5.39841 1.69361,-1.14567 4.34612,-1.71852 7.95752,-1.71853 l 3.94141,0 0,-0.52303 c -2e-5,-1.0585 -0.4172,-1.83059 -1.25154,-2.31627 -0.83437,-0.49811 -2.13572,-0.74717 -3.90404,-0.74719 -1.43212,2e-5 -2.7646,0.14323 -3.99744,0.42963 -1.23287,0.28644 -2.37855,0.71607 -3.43706,1.2889 l 0,-5.09954 c 1.4321,-0.34867 2.87043,-0.61018 4.315,-0.78455 1.44455,-0.18677 2.88911,-0.28017 4.33367,-0.28019 3.77328,2e-5 6.49427,0.7472 8.16301,2.24155 1.68114,1.48194 2.52173,3.89784 2.52175,7.2477"
           id="path3092"
           style="font-weight:bold;-inkscape-font-specification:DejaVu Sans Bold" />
        <path
           d="m 482.94934,107.68353 0,5.08087 c -1.43212,-0.59774 -2.81441,-1.04605 -4.14688,-1.34494 -1.33249,-0.29886 -2.59025,-0.44829 -3.77328,-0.44831 -1.27023,2e-5 -2.21666,0.16191 -2.83931,0.48567 -0.61021,0.31134 -0.91531,0.79702 -0.9153,1.45701 -10e-6,0.5355 0.23037,0.94645 0.69115,1.23286 0.4732,0.28643 1.31379,0.49814 2.52175,0.63511 l 1.17681,0.16811 c 3.42459,0.43587 5.72841,1.15193 6.91147,2.14816 1.18302,0.99626 1.77455,2.55912 1.77457,4.68859 -2e-5,2.22911 -0.82193,3.90405 -2.46572,5.02482 -1.64382,1.12078 -4.09708,1.68117 -7.35977,1.68117 -1.38231,0 -2.81441,-0.11208 -4.29632,-0.33623 -1.46947,-0.2117 -2.98252,-0.53548 -4.53915,-0.97134 l 0,-5.08086 c 1.33247,0.64756 2.69609,1.13323 4.09084,1.45701 1.40719,0.32378 2.83307,0.48567 4.27764,0.48567 1.30756,0 2.29135,-0.18057 2.95138,-0.54171 0.66,-0.36114 0.99001,-0.89662 0.99002,-1.60645 -10e-6,-0.59774 -0.2304,-1.03983 -0.69115,-1.32625 -0.44832,-0.29887 -1.35117,-0.52925 -2.70854,-0.69115 l -1.17682,-0.14944 c -2.9763,-0.37358 -5.06219,-1.06473 -6.25768,-2.07344 -1.1955,-1.00869 -1.79325,-2.54042 -1.79325,-4.59519 0,-2.21663 0.75964,-3.86044 2.27892,-4.93142 1.51927,-1.07095 3.848,-1.60643 6.98618,-1.60645 1.23285,2e-5 2.52797,0.0934 3.88537,0.28019 1.35737,0.18682 2.83306,0.47947 4.42707,0.87794"
           id="path3094"
           style="font-weight:bold;-inkscape-font-specification:DejaVu Sans Bold" />
        <path
           d="m 510.27765,117.43431 0,1.90532 -15.63486,0 c 0.16188,1.5691 0.7285,2.74591 1.69985,3.53045 0.97133,0.78455 2.32872,1.17682 4.07216,1.17682 1.40718,0 2.84552,-0.20547 4.315,-0.61643 1.4819,-0.4234 3.00117,-1.05851 4.55783,-1.90532 l 0,5.15558 c -1.58156,0.59775 -3.16311,1.04606 -4.74463,1.34493 -1.58156,0.31133 -3.1631,0.46699 -4.74463,0.46699 -3.78575,0 -6.7309,-0.95889 -8.83547,-2.87666 -2.09212,-1.93023 -3.13818,-4.63255 -3.13818,-8.10697 0,-3.41213 1.02738,-6.09577 3.08214,-8.05092 2.06721,-1.95512 4.90651,-2.93268 8.51792,-2.9327 3.2876,2e-5 5.9152,0.99004 7.88281,2.97006 1.98002,1.98006 2.97004,4.62634 2.97006,7.93885 m -6.87411,-2.22288 c -1e-5,-1.2702 -0.37361,-2.29136 -1.12078,-3.06346 -0.73474,-0.78453 -1.69986,-1.1768 -2.89534,-1.17682 -1.29513,2e-5 -2.34742,0.36738 -3.15686,1.1021 -0.80946,0.72229 -1.31381,1.76835 -1.51305,3.13818 l 8.68603,0"
           id="path3096"
           style="font-weight:bold;-inkscape-font-specification:DejaVu Sans Bold" />
        <path
           d="m 542.85494,110.09321 0,-11.207786 6.72467,0 0,29.065516 -6.72467,0 0,-3.0261 c -0.92154,1.23286 -1.93647,2.13571 -3.04478,2.70855 -1.10834,0.57284 -2.39101,0.85926 -3.84801,0.85926 -2.57779,0 -4.69482,-1.02115 -6.35107,-3.06346 -1.65627,-2.05475 -2.4844,-4.69481 -2.4844,-7.92017 0,-3.22533 0.82813,-5.85916 2.4844,-7.90148 1.65625,-2.05474 3.77328,-3.08212 6.35107,-3.08214 1.44455,2e-5 2.72099,0.29267 3.82933,0.87794 1.12076,0.57286 2.14192,1.46948 3.06346,2.68987 m -4.40839,13.54274 c 1.43209,0 2.52173,-0.52303 3.26893,-1.56909 0.75962,-1.04606 1.13944,-2.56533 1.13946,-4.55784 -2e-5,-1.99248 -0.37984,-3.51175 -1.13946,-4.55783 -0.7472,-1.04604 -1.83684,-1.56907 -3.26893,-1.56909 -1.41967,2e-5 -2.50931,0.52305 -3.26894,1.56909 -0.7472,1.04608 -1.12079,2.56535 -1.12078,4.55783 -10e-6,1.99251 0.37358,3.51178 1.12078,4.55784 0.75963,1.04606 1.84927,1.56909 3.26894,1.56909"
           id="path3098"
           style="font-weight:bold;-inkscape-font-specification:DejaVu Sans Bold" />
        <path
           d="m 576.9266,117.43431 0,1.90532 -15.63486,0 c 0.16188,1.5691 0.7285,2.74591 1.69985,3.53045 0.97133,0.78455 2.32871,1.17682 4.07216,1.17682 1.40718,0 2.84551,-0.20547 4.315,-0.61643 1.48189,-0.4234 3.00117,-1.05851 4.55783,-1.90532 l 0,5.15558 c -1.58157,0.59775 -3.16311,1.04606 -4.74463,1.34493 -1.58156,0.31133 -3.1631,0.46699 -4.74463,0.46699 -3.78575,0 -6.7309,-0.95889 -8.83547,-2.87666 -2.09212,-1.93023 -3.13818,-4.63255 -3.13818,-8.10697 0,-3.41213 1.02738,-6.09577 3.08214,-8.05092 2.06721,-1.95512 4.90651,-2.93268 8.51792,-2.9327 3.2876,2e-5 5.9152,0.99004 7.88281,2.97006 1.98002,1.98006 2.97004,4.62634 2.97006,7.93885 m -6.87411,-2.22288 c -2e-5,-1.2702 -0.37361,-2.29136 -1.12078,-3.06346 -0.73474,-0.78453 -1.69986,-1.1768 -2.89534,-1.17682 -1.29513,2e-5 -2.34742,0.36738 -3.15686,1.1021 -0.80946,0.72229 -1.31381,1.76835 -1.51305,3.13818 l 8.68603,0"
           id="path3100"
           style="font-weight:bold;-inkscape-font-specification:DejaVu Sans Bold" />
        <path
           d="m 612.49264,122.87008 -11.24514,0 -1.77457,5.08086 -7.22902,0 10.32984,-27.8887 8.57396,0 10.32984,27.8887 -7.22902,0 -1.75589,-5.08086 m -9.4519,-5.17426 7.63997,0 -3.81064,-11.0957 -3.82933,11.0957"
           id="path3102"
           style="font-weight:bold;-inkscape-font-specification:DejaVu Sans Bold" />
        <path
           d="m 645.89183,115.21143 0,12.73951 -6.72467,0 0,-2.07344 0,-7.67733 c -2e-5,-1.80569 -0.0436,-3.05099 -0.13076,-3.73593 -0.0747,-0.6849 -0.21172,-1.18925 -0.41095,-1.51305 -0.26153,-0.43584 -0.61644,-0.77207 -1.06474,-1.0087 -0.44832,-0.24904 -0.9589,-0.37357 -1.53173,-0.37359 -1.39476,2e-5 -2.49063,0.54172 -3.28761,1.62513 -0.79701,1.07098 -1.19551,2.55912 -1.1955,4.46443 l 0,10.29248 -6.68731,0 0,-20.92119 6.68731,0 0,3.06346 c 1.00869,-1.22039 2.07965,-2.11701 3.2129,-2.68987 1.13321,-0.58527 2.38475,-0.87792 3.7546,-0.87794 2.41589,2e-5 4.24649,0.74098 5.49182,2.22287 1.25774,1.48194 1.88662,3.63632 1.88664,6.46316"
           id="path3104"
           style="font-weight:bold;-inkscape-font-specification:DejaVu Sans Bold" />
        <path
           d="m 659.43458,101.08962 0,5.94013 6.89278,0 0,4.78198 -6.89278,0 0,8.87283 c -2e-5,0.97135 0.19301,1.63136 0.57906,1.98005 0.38604,0.33623 1.1519,0.50435 2.2976,0.50435 l 3.43705,0 0,4.78198 -5.73465,0 c -2.64006,0 -4.51425,-0.54793 -5.62257,-1.64381 -1.09587,-1.10832 -1.64381,-2.98251 -1.64381,-5.62257 l 0,-8.87283 -3.32497,0 0,-4.78198 3.32497,0 0,-5.94013 6.68732,0"
           id="path3106"
           style="font-weight:bold;-inkscape-font-specification:DejaVu Sans Bold" />
        <path
           d="m 680.39314,111.30738 c -1.48192,2e-5 -2.61516,0.5355 -3.39969,1.60645 -0.7721,1.05853 -1.15815,2.59026 -1.15814,4.59519 -1e-5,2.00496 0.38604,3.54292 1.15814,4.61388 0.78453,1.05851 1.91777,1.58777 3.39969,1.58776 1.457,10e-6 2.57155,-0.52925 3.34366,-1.58776 0.77207,-1.07096 1.15812,-2.60892 1.15814,-4.61388 -2e-5,-2.00493 -0.38607,-3.53666 -1.15814,-4.59519 -0.77211,-1.07095 -1.88666,-1.60643 -3.34366,-1.60645 m 0,-4.78198 c 3.59893,2e-5 6.4071,0.97136 8.42452,2.91402 2.02983,1.9427 3.04476,4.63256 3.04478,8.0696 -2e-5,3.43707 -1.01495,6.12693 -3.04478,8.06961 -2.01742,1.94268 -4.82559,2.91402 -8.42452,2.91402 -3.6114,0 -6.43825,-0.97134 -8.48055,-2.91402 -2.02986,-1.94268 -3.04478,-4.63254 -3.04478,-8.06961 0,-3.43704 1.01492,-6.1269 3.04478,-8.0696 2.0423,-1.94266 4.86915,-2.914 8.48055,-2.91402"
           id="path3108"
           style="font-weight:bold;-inkscape-font-specification:DejaVu Sans Bold" />
        <path
           d="m 717.77107,115.21143 0,12.73951 -6.72467,0 0,-2.07344 0,-7.67733 c -10e-6,-1.80569 -0.0436,-3.05099 -0.13075,-3.73593 -0.0747,-0.6849 -0.21172,-1.18925 -0.41096,-1.51305 -0.26153,-0.43584 -0.61644,-0.77207 -1.06473,-1.0087 -0.44833,-0.24904 -0.95891,-0.37357 -1.53174,-0.37359 -1.39475,2e-5 -2.49063,0.54172 -3.28761,1.62513 -0.79701,1.07098 -1.19551,2.55912 -1.1955,4.46443 l 0,10.29248 -6.68731,0 0,-20.92119 6.68731,0 0,3.06346 c 1.00869,-1.22039 2.07966,-2.11701 3.2129,-2.68987 1.13322,-0.58527 2.38475,-0.87792 3.75461,-0.87794 2.41588,2e-5 4.24648,0.74098 5.49181,2.22287 1.25774,1.48194 1.88662,3.63632 1.88664,6.46316"
           id="path3110"
           style="font-weight:bold;-inkscape-font-specification:DejaVu Sans Bold" />
        <path
           d="m 724.01008,107.02975 6.68731,0 0,20.92119 -6.68731,0 0,-20.92119 m 0,-8.144326 6.68731,0 0,5.454456 -6.68731,0 0,-5.454456"
           id="path3112"
           style="font-weight:bold;-inkscape-font-specification:DejaVu Sans Bold" />
        <path
           d="m 746.53774,118.5364 c -1.39476,1e-5 -2.44704,0.23662 -3.15686,0.70983 -0.69738,0.47323 -1.04607,1.1706 -1.04606,2.09212 -1e-5,0.84682 0.28019,1.51306 0.84058,1.99872 0.57284,0.47322 1.36361,0.70983 2.37232,0.70983 1.25775,0 2.31626,-0.44831 3.17554,-1.34494 0.85924,-0.90907 1.28888,-2.0423 1.28889,-3.39969 l 0,-0.76587 -3.47441,0 m 10.21776,-2.52175 0,11.93629 -6.74335,0 0,-3.10082 c -0.89664,1.27022 -1.90534,2.19797 -3.0261,2.78327 -1.12079,0.57284 -2.4844,0.85926 -4.09084,0.85926 -2.16685,0 -3.92896,-0.62888 -5.28634,-1.88664 -1.34493,-1.27021 -2.0174,-2.91402 -2.0174,-4.93143 0,-2.45325 0.84058,-4.25272 2.52175,-5.39841 1.69362,-1.14567 4.34612,-1.71852 7.95753,-1.71853 l 3.9414,0 0,-0.52303 c -10e-6,-1.0585 -0.41719,-1.83059 -1.25153,-2.31627 -0.83437,-0.49811 -2.13572,-0.74717 -3.90405,-0.74719 -1.43211,2e-5 -2.76459,0.14323 -3.99744,0.42963 -1.23286,0.28644 -2.37855,0.71607 -3.43705,1.2889 l 0,-5.09954 c 1.4321,-0.34867 2.87043,-0.61018 4.31499,-0.78455 1.44455,-0.18677 2.88911,-0.28017 4.33368,-0.28019 3.77327,2e-5 6.49427,0.7472 8.163,2.24155 1.68115,1.48194 2.52173,3.89784 2.52175,7.2477"
           id="path3114"
           style="font-weight:bold;-inkscape-font-specification:DejaVu Sans Bold" />
      </g>
    </g>
  </g>
</svg>
